SplineFontDB: 3.0
FontName: Caladea-Regular
FullName: Caladea
FamilyName: Caladea
Weight: Book
Copyright: Copyright (c) 2012, Huerta Tipografica (info@huertatipografica.com.ar), with Reserved Font Name 'Caladea'
Version: 1.002
ItalicAngle: 0
UnderlinePosition: -33
UnderlineWidth: 57
Ascent: 800
Descent: 200
sfntRevision: 0x00010083
LayerCount: 2
Layer: 0 1 "Back"  1
Layer: 1 1 "Fore"  0
XUID: [1021 864 903797180 6127885]
FSType: 0
OS2Version: 3
OS2_WeightWidthSlopeOnly: 0
OS2_UseTypoMetrics: 1
CreationTime: 1346472720
ModificationTime: 1354992062
PfmFamily: 17
TTFWeight: 400
TTFWidth: 5
LineGap: 0
VLineGap: 0
Panose: 2 4 5 3 5 4 6 3 2 4
OS2TypoAscent: 945
OS2TypoAOffset: 0
OS2TypoDescent: -222
OS2TypoDOffset: 0
OS2TypoLinegap: 0
OS2WinAscent: 945
OS2WinAOffset: 0
OS2WinDescent: 222
OS2WinDOffset: 0
HheadAscent: 945
HheadAOffset: 0
HheadDescent: -222
HheadDOffset: 0
OS2SubXSize: 650
OS2SubYSize: 600
OS2SubXOff: 0
OS2SubYOff: 75
OS2SupXSize: 650
OS2SupYSize: 600
OS2SupXOff: 0
OS2SupYOff: 350
OS2StrikeYSize: 57
OS2StrikeYPos: 280
OS2CodePages: 20000093.00000000
OS2UnicodeRanges: a000002f.500000fb.00000000.00000000
Lookup: 258 0 0 "'kern' Horizontal Kerning in Latin lookup 0"  {"'kern' Horizontal Kerning in Latin lookup 0 subtable"  } ['kern' ('latn' <'dflt' > ) ]
DEI: 91125
TtTable: prep
PUSHW_1
 511
SCANCTRL
PUSHB_1
 4
SCANTYPE
EndTTInstrs
ShortTable: maxp 16
  1
  0
  420
  83
  7
  0
  0
  2
  0
  1
  1
  0
  64
  0
  0
  0
EndShort
LangName: 1033 "" "" "" "HuertaTipografica: Caladea: 2012" "" "1.002" "" "Caladea is a trademark of Huerta Tipografica" "Huerta Tipografica" "Carolina Giovagnoli, Andres Torresi" "" "http://www.huertatipografica.com.ar" "http://www.huertatipografica.com.ar" "This Font Software is licensed under the SIL Open Font License, Version 1.1. This license is available with a FAQ at: http://scripts.sil.org/OFL" "http://scripts.sil.org/OFL" 
GaspTable: 1 65535 15 1
Encoding: UnicodeBmp
UnicodeInterp: none
NameList: AGL For New Fonts

StartChar: exclam
Encoding: 33 33 4
Width: 286
GlyphClass: 2
Flags: W
LayerCount: 2
Fore
SplineSet
99 203 m 1,0,-1
 101 405 l 1,1,2
 101 568 101 568 83 646 c 1,3,4
 104 663 104 663 143 663 c 0,5,6
 198 663 198 663 198 588 c 0,7,8
 198 555 198 555 177 415.5 c 128,-1,9
 156 276 156 276 151 212 c 1,10,-1
 99 203 l 1,0,-1
126 109 m 128,-1,12
 179 109 179 109 179 51 c 128,-1,13
 179 -7 179 -7 126 -7 c 128,-1,14
 73 -7 73 -7 73 51 c 128,-1,11
 73 109 73 109 126 109 c 128,-1,12
EndSplineSet
EndChar

StartChar: quotedbl
Encoding: 34 34 5
Width: 393
GlyphClass: 2
Flags: W
LayerCount: 2
Fore
SplineSet
97 471 m 1,0,1
 73 603 73 603 73 628 c 128,-1,2
 73 653 73 653 85.5 665.5 c 128,-1,3
 98 678 98 678 118.5 678 c 128,-1,4
 139 678 139 678 152 665.5 c 128,-1,5
 165 653 165 653 165 636 c 0,6,7
 165 607 165 607 147 505 c 2,8,-1
 141 471 l 1,9,-1
 97 471 l 1,0,1
257 471 m 1,10,11
 233 603 233 603 233 628 c 128,-1,12
 233 653 233 653 245.5 665.5 c 128,-1,13
 258 678 258 678 278.5 678 c 128,-1,14
 299 678 299 678 312 665.5 c 128,-1,15
 325 653 325 653 325 636 c 0,16,17
 325 607 325 607 307 505 c 2,18,-1
 301 471 l 1,19,-1
 257 471 l 1,10,11
EndSplineSet
EndChar

StartChar: numbersign
Encoding: 35 35 6
Width: 619
GlyphClass: 2
Flags: W
LayerCount: 2
Fore
SplineSet
302 5 m 1,0,-1
 339 174 l 1,1,-1
 215 174 l 1,2,-1
 175 -7 l 1,3,-1
 125 5 l 1,4,-1
 162 174 l 1,5,-1
 43 174 l 1,6,-1
 53 227 l 1,7,-1
 173 227 l 1,8,-1
 201 353 l 1,9,-1
 95 353 l 1,10,-1
 105 406 l 1,11,-1
 212 406 l 1,12,-1
 252 585 l 1,13,-1
 303 573 l 1,14,-1
 266 406 l 1,15,-1
 390 406 l 1,16,-1
 430 585 l 1,17,-1
 480 573 l 1,18,-1
 443 406 l 1,19,-1
 563 406 l 1,20,-1
 553 353 l 1,21,-1
 431 353 l 1,22,-1
 404 227 l 1,23,-1
 511 227 l 1,24,-1
 501 174 l 1,25,-1
 392 174 l 1,26,-1
 353 -7 l 1,27,-1
 302 5 l 1,0,-1
254 353 m 1,28,-1
 226 227 l 1,29,-1
 351 227 l 1,30,-1
 379 353 l 1,31,-1
 254 353 l 1,28,-1
EndSplineSet
EndChar

StartChar: dollar
Encoding: 36 36 7
Width: 506
GlyphClass: 2
Flags: W
LayerCount: 2
Fore
SplineSet
430 528 m 0,0,1
 430 500 430 500 418 483.5 c 128,-1,2
 406 467 406 467 382.5 467 c 128,-1,3
 359 467 359 467 337 483 c 1,4,5
 348 500 348 500 348 522.5 c 128,-1,6
 348 545 348 545 330.5 562.5 c 128,-1,7
 313 580 313 580 283 585 c 1,8,-1
 283 384 l 1,9,10
 402 334 402 334 428 275 c 0,11,12
 440 246 440 246 440 208 c 0,13,14
 440 136 440 136 398 90 c 128,-1,15
 356 44 356 44 283 34 c 1,16,-1
 283 -58 l 1,17,-1
 277 -64 l 1,18,19
 261 -64 261 -64 243 -59 c 1,20,-1
 243 32 l 1,21,22
 157 32 157 32 108 65.5 c 128,-1,23
 59 99 59 99 59 158 c 0,24,25
 59 180 59 180 75 194.5 c 128,-1,26
 91 209 91 209 116.5 209 c 128,-1,27
 142 209 142 209 157 191 c 1,28,29
 151 172 151 172 151 156 c 0,30,31
 151 123 151 123 176.5 101.5 c 128,-1,32
 202 80 202 80 243 79 c 1,33,-1
 243 303 l 1,34,35
 210 317 210 317 195 323.5 c 128,-1,36
 180 330 180 330 153 346.5 c 128,-1,37
 126 363 126 363 114 379 c 0,38,39
 79 423 79 423 79 483.5 c 128,-1,40
 79 544 79 544 125 587 c 128,-1,41
 171 630 171 630 243 634 c 1,42,-1
 243 726 l 1,43,-1
 249 732 l 1,44,45
 271 732 271 732 283 728 c 1,46,-1
 283 633 l 1,47,48
 346 627 346 627 388 597 c 128,-1,49
 430 567 430 567 430 528 c 0,0,1
161 489 m 0,50,51
 161 459 161 459 182 439 c 128,-1,52
 203 419 203 419 243 401 c 1,53,-1
 243 586 l 1,54,55
 161 578 161 578 161 489 c 0,50,51
358 180 m 0,56,57
 358 243 358 243 283 284 c 1,58,-1
 283 83 l 1,59,60
 358 100 358 100 358 180 c 0,56,57
EndSplineSet
EndChar

StartChar: percent
Encoding: 37 37 8
Width: 890
GlyphClass: 2
Flags: W
LayerCount: 2
Fore
SplineSet
193 -19 m 1,0,-1
 642 706 l 1,1,-1
 692 676 l 1,2,-1
 244 -49 l 1,3,-1
 193 -19 l 1,0,-1
142.5 378.5 m 128,-1,5
 158 341 158 341 201.5 341 c 128,-1,6
 245 341 245 341 260 378 c 128,-1,7
 275 415 275 415 275 492 c 128,-1,8
 275 569 275 569 260 606 c 128,-1,9
 245 643 245 643 201.5 643 c 128,-1,10
 158 643 158 643 142.5 605.5 c 128,-1,11
 127 568 127 568 127 492 c 128,-1,4
 127 416 127 416 142.5 378.5 c 128,-1,5
201 302 m 128,-1,13
 130 302 130 302 95 352 c 128,-1,14
 60 402 60 402 60 492 c 128,-1,15
 60 582 60 582 95 632 c 128,-1,16
 130 682 130 682 201 682 c 128,-1,17
 272 682 272 682 307 632 c 128,-1,18
 342 582 342 582 342 492 c 128,-1,19
 342 402 342 402 307 352 c 128,-1,12
 272 302 272 302 201 302 c 128,-1,13
624.5 69.5 m 128,-1,21
 640 32 640 32 683.5 32 c 128,-1,22
 727 32 727 32 742 69 c 128,-1,23
 757 106 757 106 757 183 c 128,-1,24
 757 260 757 260 742 297 c 128,-1,25
 727 334 727 334 683.5 334 c 128,-1,26
 640 334 640 334 624.5 296.5 c 128,-1,27
 609 259 609 259 609 183 c 128,-1,20
 609 107 609 107 624.5 69.5 c 128,-1,21
683 -7 m 128,-1,29
 612 -7 612 -7 577 43 c 128,-1,30
 542 93 542 93 542 183 c 128,-1,31
 542 273 542 273 577 323 c 128,-1,32
 612 373 612 373 683 373 c 128,-1,33
 754 373 754 373 789 323 c 128,-1,34
 824 273 824 273 824 183 c 128,-1,35
 824 93 824 93 789 43 c 128,-1,28
 754 -7 754 -7 683 -7 c 128,-1,29
EndSplineSet
EndChar

StartChar: ampersand
Encoding: 38 38 9
Width: 687
GlyphClass: 2
Flags: W
LayerCount: 2
Fore
SplineSet
44 196 m 0,0,1
 44 339 44 339 182 386 c 1,2,3
 97 424 97 424 97 518 c 0,4,5
 97 594 97 594 150 632 c 128,-1,6
 203 670 203 670 282.5 670 c 128,-1,7
 362 670 362 670 412.5 638.5 c 128,-1,8
 463 607 463 607 463 552 c 0,9,10
 463 522 463 522 447.5 504 c 128,-1,11
 432 486 432 486 406 486 c 128,-1,12
 380 486 380 486 362 512 c 1,13,14
 376 534 376 534 376 553 c 0,15,16
 376 631 376 631 284 631 c 0,17,18
 236 631 236 631 209.5 601 c 128,-1,19
 183 571 183 571 183 523.5 c 128,-1,20
 183 476 183 476 210 444.5 c 128,-1,21
 237 413 237 413 296 412 c 1,22,-1
 296 364 l 1,23,24
 223 355 223 355 179.5 311.5 c 128,-1,25
 136 268 136 268 136 195 c 128,-1,26
 136 122 136 122 183.5 82 c 128,-1,27
 231 42 231 42 317.5 42 c 128,-1,28
 404 42 404 42 465.5 95 c 128,-1,29
 527 148 527 148 527 251 c 0,30,31
 527 315 527 315 504 384 c 1,32,33
 429 380 429 380 429 335 c 0,34,35
 429 311 429 311 449 294 c 1,36,37
 430 275 430 275 406.5 275 c 128,-1,38
 383 275 383 275 369 292 c 128,-1,39
 355 309 355 309 355 335 c 0,40,41
 355 426 355 426 514 426 c 0,42,43
 568 426 568 426 592.5 437.5 c 128,-1,44
 617 449 617 449 617 475 c 128,-1,45
 617 501 617 501 598 518 c 1,46,47
 617 537 617 537 640 537 c 128,-1,48
 663 537 663 537 677 521.5 c 128,-1,49
 691 506 691 506 691 481 c 0,50,51
 691 388 691 388 552 385 c 1,52,53
 581 315 581 315 581 237 c 0,54,55
 581 120 581 120 507.5 56 c 128,-1,56
 434 -8 434 -8 309.5 -8 c 128,-1,57
 185 -8 185 -8 114.5 46 c 128,-1,58
 44 100 44 100 44 196 c 0,0,1
EndSplineSet
EndChar

StartChar: quotesingle
Encoding: 39 39 10
Width: 237
GlyphClass: 2
Flags: W
LayerCount: 2
Fore
SplineSet
97 467 m 1,0,1
 73 599 73 599 73 624 c 128,-1,2
 73 649 73 649 85.5 661.5 c 128,-1,3
 98 674 98 674 118.5 674 c 128,-1,4
 139 674 139 674 152 661.5 c 128,-1,5
 165 649 165 649 165 632 c 0,6,7
 165 603 165 603 147 501 c 2,8,-1
 141 467 l 1,9,-1
 97 467 l 1,0,1
EndSplineSet
EndChar

StartChar: parenleft
Encoding: 40 40 11
Width: 382
GlyphClass: 2
Flags: W
LayerCount: 2
Fore
SplineSet
88 282 m 128,-1,1
 88 362 88 362 108 436 c 128,-1,2
 128 510 128 510 157 558 c 0,3,4
 218 657 218 657 264 694 c 2,5,-1
 284 710 l 1,6,-1
 309 685 l 1,7,8
 160 529 160 529 160 283 c 128,-1,9
 160 37 160 37 309 -119 c 1,10,-1
 284 -145 l 1,11,12
 256 -124 256 -124 219 -81 c 128,-1,13
 182 -38 182 -38 156 7.5 c 128,-1,14
 130 53 130 53 109 127.5 c 128,-1,0
 88 202 88 202 88 282 c 128,-1,1
EndSplineSet
EndChar

StartChar: parenright
Encoding: 41 41 12
Width: 382
GlyphClass: 2
Flags: W
LayerCount: 2
Fore
SplineSet
73 -119 m 1,0,1
 222 37 222 37 222 282.5 c 128,-1,2
 222 528 222 528 73 685 c 1,3,-1
 98 710 l 1,4,5
 106 704 106 704 119 693 c 128,-1,6
 132 682 132 682 166 642 c 128,-1,7
 200 602 200 602 226 556.5 c 128,-1,8
 252 511 252 511 273 436.5 c 128,-1,9
 294 362 294 362 294 282 c 128,-1,10
 294 202 294 202 274 128.5 c 128,-1,11
 254 55 254 55 225 7 c 0,12,13
 166 -91 166 -91 118 -129 c 2,14,-1
 98 -145 l 1,15,-1
 73 -119 l 1,0,1
EndSplineSet
EndChar

StartChar: asterisk
Encoding: 42 42 13
Width: 427
GlyphClass: 2
Flags: W
LayerCount: 2
Fore
SplineSet
192 408 m 0,0,1
 179 389 179 389 162 389 c 128,-1,2
 145 389 145 389 134 399.5 c 128,-1,3
 123 410 123 410 123 425 c 128,-1,4
 123 440 123 440 133 449.5 c 128,-1,5
 143 459 143 459 163.5 474 c 128,-1,6
 184 489 184 489 199 512 c 1,7,8
 171 509 171 509 142.5 496.5 c 128,-1,9
 114 484 114 484 101.5 484 c 128,-1,10
 89 484 89 484 79 494.5 c 128,-1,11
 69 505 69 505 69 521 c 128,-1,12
 69 537 69 537 79 547 c 128,-1,13
 89 557 89 557 101.5 557 c 128,-1,14
 114 557 114 557 142.5 544 c 128,-1,15
 171 531 171 531 200 528 c 1,16,17
 185 549 185 549 164.5 564.5 c 128,-1,18
 144 580 144 580 133.5 590.5 c 128,-1,19
 123 601 123 601 123 615.5 c 128,-1,20
 123 630 123 630 134 640.5 c 128,-1,21
 145 651 145 651 164 651 c 128,-1,22
 183 651 183 651 189 638.5 c 128,-1,23
 195 626 195 626 199 594.5 c 128,-1,24
 203 563 203 563 214 538 c 1,25,26
 230 572 230 572 234 620 c 0,27,28
 236 651 236 651 268 651 c 0,29,30
 284 651 284 651 294.5 640.5 c 128,-1,31
 305 630 305 630 305 612.5 c 128,-1,32
 305 595 305 595 275 573 c 128,-1,33
 245 551 245 551 229 529 c 1,34,35
 255 532 255 532 284.5 544.5 c 128,-1,36
 314 557 314 557 326.5 557 c 128,-1,37
 339 557 339 557 349.5 547 c 128,-1,38
 360 537 360 537 360 521 c 128,-1,39
 360 505 360 505 349.5 494.5 c 128,-1,40
 339 484 339 484 326 484 c 128,-1,41
 313 484 313 484 283.5 496.5 c 128,-1,42
 254 509 254 509 228 512 c 1,43,44
 244 490 244 490 264.5 475 c 128,-1,45
 285 460 285 460 295 450.5 c 128,-1,46
 305 441 305 441 305 425.5 c 128,-1,47
 305 410 305 410 294 399.5 c 128,-1,48
 283 389 283 389 263.5 389 c 128,-1,49
 244 389 244 389 239 400 c 128,-1,50
 234 411 234 411 231 443 c 128,-1,51
 228 475 228 475 214 504 c 1,52,53
 202 477 202 477 199 446 c 128,-1,54
 196 415 196 415 192 408 c 0,0,1
EndSplineSet
EndChar

StartChar: plus
Encoding: 43 43 14
Width: 554
GlyphClass: 2
Flags: W
LayerCount: 2
Fore
SplineSet
72 259 m 1,0,-1
 72 312 l 1,1,-1
 244 312 l 1,2,-1
 244 490 l 1,3,-1
 304 490 l 1,4,-1
 304 312 l 1,5,-1
 481 312 l 1,6,-1
 481 259 l 1,7,-1
 304 259 l 1,8,-1
 304 82 l 1,9,-1
 244 82 l 1,10,-1
 244 259 l 1,11,-1
 72 259 l 1,0,-1
EndSplineSet
EndChar

StartChar: comma
Encoding: 44 44 15
Width: 205
GlyphClass: 2
Flags: W
LayerCount: 2
Fore
SplineSet
51 11 m 1,0,1
 40 24 40 24 40 47 c 128,-1,2
 40 70 40 70 57 84.5 c 128,-1,3
 74 99 74 99 101.5 99 c 128,-1,4
 129 99 129 99 146.5 79 c 128,-1,5
 164 59 164 59 164 26 c 0,6,7
 164 -71 164 -71 63 -135 c 1,8,-1
 39 -106 l 1,9,10
 59 -89 59 -89 71 -64.5 c 128,-1,11
 83 -40 83 -40 83 -13 c 128,-1,12
 83 14 83 14 63 14 c 0,13,14
 58 14 58 14 51 11 c 1,0,1
EndSplineSet
EndChar

StartChar: hyphen
Encoding: 45 45 16
Width: 332
GlyphClass: 2
Flags: W
LayerCount: 2
Fore
SplineSet
52 231 m 1,0,-1
 52 285 l 1,1,-1
 281 285 l 1,2,-1
 281 231 l 1,3,-1
 52 231 l 1,0,-1
EndSplineSet
EndChar

StartChar: period
Encoding: 46 46 17
Width: 205
GlyphClass: 2
Flags: W
LayerCount: 2
Fore
SplineSet
102 109 m 128,-1,1
 155 109 155 109 155 51 c 128,-1,2
 155 -7 155 -7 102 -7 c 128,-1,3
 49 -7 49 -7 49 51 c 128,-1,0
 49 109 49 109 102 109 c 128,-1,1
EndSplineSet
EndChar

StartChar: slash
Encoding: 47 47 18
Width: 490
GlyphClass: 2
Flags: W
LayerCount: 2
Fore
SplineSet
77 -112 m 1,0,-1
 390 699 l 1,1,-1
 445 678 l 1,2,-1
 132 -132 l 1,3,-1
 77 -112 l 1,0,-1
EndSplineSet
EndChar

StartChar: zero
Encoding: 48 48 19
Width: 554
GlyphClass: 2
Flags: W
LayerCount: 2
Fore
SplineSet
172 108.5 m 128,-1,1
 204 42 204 42 280.5 42 c 128,-1,2
 357 42 357 42 389.5 108.5 c 128,-1,3
 422 175 422 175 422 331.5 c 128,-1,4
 422 488 422 488 389.5 554.5 c 128,-1,5
 357 621 357 621 281 621 c 128,-1,6
 205 621 205 621 172.5 555 c 128,-1,7
 140 489 140 489 140 332 c 128,-1,0
 140 175 140 175 172 108.5 c 128,-1,1
281 -7 m 128,-1,9
 168 -7 168 -7 108 81 c 128,-1,10
 48 169 48 169 48 332.5 c 128,-1,11
 48 496 48 496 108 583.5 c 128,-1,12
 168 671 168 671 281 671 c 128,-1,13
 394 671 394 671 453.5 584 c 128,-1,14
 513 497 513 497 513 332.5 c 128,-1,15
 513 168 513 168 453.5 80.5 c 128,-1,8
 394 -7 394 -7 281 -7 c 128,-1,9
EndSplineSet
EndChar

StartChar: one
Encoding: 49 49 20
Width: 554
GlyphClass: 2
Flags: W
LayerCount: 2
Fore
SplineSet
273 572 m 1,0,-1
 139 572 l 1,1,-1
 139 615 l 1,2,3
 240 624 240 624 328 671 c 1,4,-1
 361 656 l 1,5,-1
 361 64 l 1,6,7
 394 46 394 46 486 34 c 1,8,-1
 483 0 l 1,9,-1
 135 0 l 1,10,-1
 137 34 l 1,11,12
 226 44 226 44 273 64 c 1,13,-1
 273 572 l 1,0,-1
EndSplineSet
EndChar

StartChar: two
Encoding: 50 50 21
Width: 554
GlyphClass: 2
Flags: W
LayerCount: 2
Fore
SplineSet
484 74 m 1,0,-1
 484 0 l 1,1,-1
 69 0 l 1,2,-1
 69 58 l 1,3,4
 237 217 237 217 301 313 c 128,-1,5
 365 409 365 409 365 496 c 0,6,7
 365 621 365 621 262 621 c 0,8,9
 215 621 215 621 188 598 c 128,-1,10
 161 575 161 575 161 539.5 c 128,-1,11
 161 504 161 504 182 477 c 1,12,13
 160 455 160 455 132.5 455 c 128,-1,14
 105 455 105 455 86.5 474 c 128,-1,15
 68 493 68 493 68 531 c 0,16,17
 68 600 68 600 123.5 635.5 c 128,-1,18
 179 671 179 671 268 671 c 128,-1,19
 357 671 357 671 407.5 623 c 128,-1,20
 458 575 458 575 458 487 c 128,-1,21
 458 399 458 399 393 302.5 c 128,-1,22
 328 206 328 206 174 74 c 1,23,-1
 484 74 l 1,0,-1
EndSplineSet
EndChar

StartChar: three
Encoding: 51 51 22
Width: 554
GlyphClass: 2
Flags: W
LayerCount: 2
Fore
SplineSet
215 328 m 1,0,-1
 215 372 l 1,1,2
 374 377 374 377 374 508 c 0,3,4
 374 563 374 563 349.5 592 c 128,-1,5
 325 621 325 621 280.5 621 c 128,-1,6
 236 621 236 621 209.5 598 c 128,-1,7
 183 575 183 575 183 544 c 128,-1,8
 183 513 183 513 194 499 c 1,9,10
 170 481 170 481 145.5 481 c 128,-1,11
 121 481 121 481 108.5 498.5 c 128,-1,12
 96 516 96 516 96 546 c 0,13,14
 96 599 96 599 149.5 635 c 128,-1,15
 203 671 203 671 283.5 671 c 128,-1,16
 364 671 364 671 415 626 c 128,-1,17
 466 581 466 581 466 508 c 0,18,19
 466 393 466 393 335 351 c 1,20,21
 474 314 474 314 474 181 c 0,22,23
 474 98 474 98 417.5 45.5 c 128,-1,24
 361 -7 361 -7 269.5 -7 c 128,-1,25
 178 -7 178 -7 124.5 29.5 c 128,-1,26
 71 66 71 66 71 130 c 0,27,28
 71 155 71 155 87 170.5 c 128,-1,29
 103 186 103 186 128 186 c 128,-1,30
 153 186 153 186 176 169 c 1,31,32
 168 147 168 147 168 127 c 0,33,34
 168 88 168 88 197.5 65 c 128,-1,35
 227 42 227 42 277.5 42 c 128,-1,36
 328 42 328 42 357 79.5 c 128,-1,37
 386 117 386 117 386 184 c 128,-1,38
 386 251 386 251 341 289.5 c 128,-1,39
 296 328 296 328 215 328 c 1,0,-1
EndSplineSet
EndChar

StartChar: four
Encoding: 52 52 23
Width: 554
GlyphClass: 2
Flags: W
LayerCount: 2
Fore
SplineSet
332 183 m 1,0,-1
 46 183 l 1,1,-1
 39 217 l 1,2,-1
 280 680 l 1,3,4
 321 678 321 678 362 652 c 1,5,-1
 118 238 l 1,6,-1
 332 238 l 1,7,-1
 332 433 l 1,8,9
 356 434 356 434 374.5 445 c 128,-1,10
 393 456 393 456 399 475 c 1,11,-1
 421 475 l 1,12,-1
 421 240 l 1,13,14
 448 231 448 231 508 221 c 1,15,-1
 503 183 l 1,16,-1
 416 183 l 1,17,-1
 416 0 l 1,18,-1
 332 0 l 1,19,-1
 332 183 l 1,0,-1
EndSplineSet
EndChar

StartChar: five
Encoding: 53 53 24
Width: 554
GlyphClass: 2
Flags: W
LayerCount: 2
Fore
SplineSet
390 668 m 1,0,-1
 437 669 l 1,1,-1
 457 655 l 1,2,3
 455 638 455 638 449 596 c 1,4,-1
 198 596 l 1,5,-1
 180 392 l 1,6,7
 237 416 237 416 297 416 c 0,8,9
 389 416 389 416 442 362.5 c 128,-1,10
 495 309 495 309 495 213.5 c 128,-1,11
 495 118 495 118 437 55 c 128,-1,12
 379 -8 379 -8 289 -8 c 128,-1,13
 199 -8 199 -8 142 28.5 c 128,-1,14
 85 65 85 65 85 123 c 0,15,16
 85 152 85 152 100.5 168.5 c 128,-1,17
 116 185 116 185 143.5 185 c 128,-1,18
 171 185 171 185 191 169 c 1,19,20
 182 146 182 146 182 128 c 0,21,22
 182 90 182 90 211 66 c 128,-1,23
 240 42 240 42 286 42 c 0,24,25
 408 42 408 42 408 211 c 0,26,27
 408 284 408 284 375 323 c 128,-1,28
 342 362 342 362 279 362 c 128,-1,29
 216 362 216 362 148 323 c 1,30,-1
 117 356 l 1,31,32
 121 405 121 405 130 506 c 128,-1,33
 139 607 139 607 143 656 c 1,34,-1
 163 670 l 1,35,-1
 185 669 l 1,36,37
 273 667 273 667 312 667 c 2,38,-1
 390 668 l 1,0,-1
EndSplineSet
EndChar

StartChar: six
Encoding: 54 54 25
Width: 554
GlyphClass: 2
Flags: W
LayerCount: 2
Fore
SplineSet
79 250 m 0,0,1
 79 414 79 414 170 520 c 128,-1,2
 261 626 261 626 416 675 c 1,3,-1
 434 636 l 1,4,5
 322 586 322 586 259 515 c 128,-1,6
 196 444 196 444 180 330 c 1,7,8
 239 369 239 369 315.5 369 c 128,-1,9
 392 369 392 369 446 320.5 c 128,-1,10
 500 272 500 272 500 186.5 c 128,-1,11
 500 101 500 101 442.5 47 c 128,-1,12
 385 -7 385 -7 294 -7 c 0,13,14
 179 -7 179 -7 129 59 c 128,-1,15
 79 125 79 125 79 250 c 0,0,1
298 320 m 0,16,17
 226 320 226 320 175 264 c 1,18,19
 174 260 174 260 174 250 c 0,20,21
 174 42 174 42 295 42 c 0,22,23
 352 42 352 42 379.5 83 c 128,-1,24
 407 124 407 124 407 186 c 128,-1,25
 407 248 407 248 379.5 284 c 128,-1,26
 352 320 352 320 298 320 c 0,16,17
EndSplineSet
EndChar

StartChar: seven
Encoding: 55 55 26
Width: 554
GlyphClass: 2
Flags: W
LayerCount: 2
Fore
SplineSet
274 115 m 128,-1,1
 274 58 274 58 309 33 c 1,2,3
 276 -8 276 -8 245 -8 c 128,-1,4
 214 -8 214 -8 194 18.5 c 128,-1,5
 174 45 174 45 174 85 c 0,6,7
 174 153 174 153 208.5 228.5 c 128,-1,8
 243 304 243 304 364 504 c 1,9,-1
 419 594 l 1,10,-1
 155 594 l 1,11,12
 137 543 137 543 134 486 c 1,13,14
 128 484 128 484 118.5 484 c 128,-1,15
 109 484 109 484 93 486 c 1,16,17
 93 488 93 488 85.5 558.5 c 128,-1,18
 78 629 78 629 78 653 c 1,19,-1
 92 668 l 1,20,21
 182 667 182 667 283 667 c 2,22,-1
 478 668 l 1,23,-1
 496 625 l 1,24,25
 412 490 412 490 343 331 c 128,-1,0
 274 172 274 172 274 115 c 128,-1,1
EndSplineSet
EndChar

StartChar: eight
Encoding: 56 56 27
Width: 554
GlyphClass: 2
Flags: W
LayerCount: 2
Fore
SplineSet
71 172 m 0,0,1
 71 280 71 280 191 355 c 1,2,3
 96 406 96 406 96 505 c 0,4,5
 96 580 96 580 148.5 625.5 c 128,-1,6
 201 671 201 671 287 671 c 128,-1,7
 373 671 373 671 422 628.5 c 128,-1,8
 471 586 471 586 471 513 c 0,9,10
 471 427 471 427 372 366 c 1,11,12
 501 301 501 301 501 181 c 0,13,14
 501 95 501 95 443.5 44 c 128,-1,15
 386 -7 386 -7 285.5 -7 c 128,-1,16
 185 -7 185 -7 128 39.5 c 128,-1,17
 71 86 71 86 71 172 c 0,0,1
162 178 m 0,18,19
 162 114 162 114 196 78 c 128,-1,20
 230 42 230 42 288 42 c 128,-1,21
 346 42 346 42 378.5 78 c 128,-1,22
 411 114 411 114 411 168.5 c 128,-1,23
 411 223 411 223 378 255 c 128,-1,24
 345 287 345 287 264 322 c 2,25,-1
 241 332 l 1,26,27
 162 280 162 280 162 178 c 0,18,19
208.5 593 m 128,-1,29
 181 565 181 565 181 521 c 128,-1,30
 181 477 181 477 209.5 451 c 128,-1,31
 238 425 238 425 314 393 c 1,32,-1
 321 389 l 1,33,34
 385 435 385 435 385 514 c 0,35,36
 385 562 385 562 357.5 591.5 c 128,-1,37
 330 621 330 621 283 621 c 128,-1,28
 236 621 236 621 208.5 593 c 128,-1,29
EndSplineSet
EndChar

StartChar: nine
Encoding: 57 57 28
Width: 554
GlyphClass: 2
Flags: W
LayerCount: 2
Fore
SplineSet
479 419 m 0,0,1
 479 255 479 255 387.5 146 c 128,-1,2
 296 37 296 37 142 -10 c 1,3,-1
 124 29 l 1,4,5
 235 78 235 78 298.5 151 c 128,-1,6
 362 224 362 224 378 338 c 1,7,8
 321 299 321 299 243.5 299 c 128,-1,9
 166 299 166 299 112.5 347.5 c 128,-1,10
 59 396 59 396 59 482 c 128,-1,11
 59 568 59 568 116 619.5 c 128,-1,12
 173 671 173 671 267 671 c 0,13,14
 479 671 479 671 479 419 c 0,0,1
259 348 m 0,15,16
 330 348 330 348 383 404 c 1,17,-1
 383 418 l 2,18,19
 383 621 383 621 266 621 c 0,20,21
 211 621 211 621 181 584 c 128,-1,22
 151 547 151 547 151 483.5 c 128,-1,23
 151 420 151 420 178.5 384 c 128,-1,24
 206 348 206 348 259 348 c 0,15,16
EndSplineSet
EndChar

StartChar: colon
Encoding: 58 58 29
Width: 264
GlyphClass: 2
Flags: W
LayerCount: 2
Fore
SplineSet
131 109 m 128,-1,1
 184 109 184 109 184 51 c 128,-1,2
 184 -7 184 -7 131 -7 c 128,-1,3
 78 -7 78 -7 78 51 c 128,-1,0
 78 109 78 109 131 109 c 128,-1,1
131 443 m 128,-1,5
 184 443 184 443 184 385 c 128,-1,6
 184 327 184 327 131 327 c 128,-1,7
 78 327 78 327 78 385 c 128,-1,4
 78 443 78 443 131 443 c 128,-1,5
EndSplineSet
EndChar

StartChar: semicolon
Encoding: 59 59 30
Width: 264
GlyphClass: 2
Flags: W
LayerCount: 2
Fore
SplineSet
80 11 m 1,0,1
 69 24 69 24 69 47 c 128,-1,2
 69 70 69 70 86 84.5 c 128,-1,3
 103 99 103 99 130.5 99 c 128,-1,4
 158 99 158 99 175.5 79 c 128,-1,5
 193 59 193 59 193 26 c 0,6,7
 193 -71 193 -71 92 -135 c 1,8,-1
 68 -106 l 1,9,10
 88 -89 88 -89 100 -64.5 c 128,-1,11
 112 -40 112 -40 112 -13 c 128,-1,12
 112 14 112 14 92 14 c 0,13,14
 88 14 88 14 80 11 c 1,0,1
131 443 m 128,-1,16
 184 443 184 443 184 385 c 128,-1,17
 184 327 184 327 131 327 c 128,-1,18
 78 327 78 327 78 385 c 128,-1,15
 78 443 78 443 131 443 c 128,-1,16
EndSplineSet
EndChar

StartChar: less
Encoding: 60 60 31
Width: 554
GlyphClass: 2
Flags: W
LayerCount: 2
Fore
SplineSet
64 260 m 1,0,-1
 64 312 l 1,1,-1
 447 493 l 1,2,-1
 472 442 l 1,3,-1
 143 286 l 1,4,-1
 472 129 l 1,5,-1
 447 79 l 1,6,-1
 64 260 l 1,0,-1
EndSplineSet
EndChar

StartChar: equal
Encoding: 61 61 32
Width: 554
GlyphClass: 2
Flags: W
LayerCount: 2
Fore
SplineSet
62 187 m 1,0,-1
 62 240 l 1,1,-1
 492 240 l 1,2,-1
 492 187 l 1,3,-1
 62 187 l 1,0,-1
62 331 m 1,4,-1
 62 383 l 1,5,-1
 492 383 l 1,6,-1
 492 331 l 1,7,-1
 62 331 l 1,4,-1
EndSplineSet
EndChar

StartChar: greater
Encoding: 62 62 33
Width: 554
GlyphClass: 2
Flags: W
LayerCount: 2
Fore
SplineSet
485 312 m 1,0,-1
 485 260 l 1,1,-1
 102 79 l 1,2,-1
 77 129 l 1,3,-1
 406 286 l 1,4,-1
 77 442 l 1,5,-1
 102 493 l 1,6,-1
 485 312 l 1,0,-1
EndSplineSet
EndChar

StartChar: question
Encoding: 63 63 34
Width: 422
GlyphClass: 2
Flags: W
LayerCount: 2
Fore
SplineSet
107 221 m 128,-1,1
 94 239 94 239 94 270.5 c 128,-1,2
 94 302 94 302 111.5 332 c 128,-1,3
 129 362 129 362 154 383.5 c 128,-1,4
 179 405 179 405 204 426 c 0,5,6
 263 477 263 477 263 541 c 0,7,8
 263 574 263 574 239.5 594 c 128,-1,9
 216 614 216 614 181 614 c 0,10,11
 111 614 111 614 111 562 c 0,12,13
 111 545 111 545 122 526 c 1,14,15
 102 497 102 497 74 497 c 0,16,17
 24 497 24 497 24 550 c 128,-1,18
 24 603 24 603 70 629.5 c 128,-1,19
 116 656 116 656 184 656 c 128,-1,20
 252 656 252 656 297 625.5 c 128,-1,21
 342 595 342 595 342 529 c 0,22,23
 342 491 342 491 325.5 457.5 c 128,-1,24
 309 424 309 424 285.5 401 c 128,-1,25
 262 378 262 378 238 356 c 0,26,27
 181 305 181 305 181 263 c 0,28,29
 181 243 181 243 187 219 c 1,30,31
 167 203 167 203 143.5 203 c 128,-1,0
 120 203 120 203 107 221 c 128,-1,1
153 109 m 128,-1,33
 206 109 206 109 206 51 c 128,-1,34
 206 -7 206 -7 153 -7 c 128,-1,35
 100 -7 100 -7 100 51 c 128,-1,32
 100 109 100 109 153 109 c 128,-1,33
EndSplineSet
EndChar

StartChar: at
Encoding: 64 64 35
Width: 885
GlyphClass: 2
Flags: W
LayerCount: 2
Fore
SplineSet
277 139 m 0,0,1
 277 261 277 261 441 275 c 2,2,-1
 511 281 l 1,3,-1
 511 349 l 2,4,5
 511 396 511 396 493.5 417.5 c 128,-1,6
 476 439 476 439 440.5 439 c 128,-1,7
 405 439 405 439 386 427 c 128,-1,8
 367 415 367 415 367 394 c 128,-1,9
 367 373 367 373 396 363 c 1,10,11
 396 314 396 314 340 314 c 0,12,13
 315 314 315 314 300 330 c 128,-1,14
 285 346 285 346 285 370 c 0,15,16
 285 419 285 419 327 447.5 c 128,-1,17
 369 476 369 476 440.5 476 c 128,-1,18
 512 476 512 476 553.5 442.5 c 128,-1,19
 595 409 595 409 595 349 c 2,20,-1
 595 139 l 2,21,22
 595 75 595 75 659 75 c 0,23,24
 701 75 701 75 725 140 c 128,-1,25
 749 205 749 205 749 298 c 0,26,27
 749 431 749 431 674.5 516.5 c 128,-1,28
 600 602 600 602 455.5 602 c 128,-1,29
 311 602 311 602 225.5 501 c 128,-1,30
 140 400 140 400 140 251.5 c 128,-1,31
 140 103 140 103 222.5 3 c 128,-1,32
 305 -97 305 -97 441 -97 c 0,33,34
 537 -97 537 -97 600 -59 c 1,35,-1
 622 -94 l 1,36,37
 546 -142 546 -142 441 -142 c 0,38,39
 262 -142 262 -142 156.5 -35.5 c 128,-1,40
 51 71 51 71 51 245 c 128,-1,41
 51 419 51 419 160.5 532 c 128,-1,42
 270 645 270 645 450.5 645 c 128,-1,43
 631 645 631 645 734.5 547.5 c 128,-1,44
 838 450 838 450 838 298 c 0,45,46
 838 179 838 179 790 103.5 c 128,-1,47
 742 28 742 28 653 28 c 0,48,49
 544 28 544 28 520 81 c 1,50,51
 463 32 463 32 400 32 c 0,52,53
 277 32 277 32 277 139 c 0,0,1
360 147 m 0,54,55
 360 75 360 75 416 75 c 0,56,57
 460 75 460 75 511 126 c 1,58,-1
 511 238 l 1,59,-1
 445 233 l 2,60,61
 406 230 406 230 383 206 c 128,-1,62
 360 182 360 182 360 147 c 0,54,55
EndSplineSet
EndChar

StartChar: A
Encoding: 65 65 36
Width: 623
GlyphClass: 2
Flags: W
LayerCount: 2
Fore
SplineSet
13 0 m 1,0,-1
 18 37 l 1,1,2
 63 44 63 44 89 63 c 1,3,-1
 276 667 l 1,4,-1
 336 667 l 1,5,-1
 542 62 l 1,6,7
 567 44 567 44 608 37 c 1,8,-1
 604 0 l 1,9,-1
 354 0 l 1,10,-1
 359 37 l 1,11,12
 417 44 417 44 451 64 c 1,13,-1
 400 215 l 1,14,-1
 198 215 l 1,15,-1
 152 64 l 1,16,17
 185 45 185 45 249 37 c 1,18,-1
 245 0 l 1,19,-1
 13 0 l 1,0,-1
295 528 m 1,20,-1
 214 267 l 1,21,-1
 383 267 l 1,22,-1
 295 528 l 1,20,-1
EndSplineSet
EndChar

StartChar: B
Encoding: 66 66 37
Width: 611
GlyphClass: 2
Flags: W
LayerCount: 2
Fore
SplineSet
305 667 m 2,0,1
 534 667 534 667 534 501 c 0,2,3
 534 387 534 387 417 354 c 1,4,5
 486 334 486 334 524 291.5 c 128,-1,6
 562 249 562 249 562 188 c 0,7,8
 562 101 562 101 501.5 50.5 c 128,-1,9
 441 0 441 0 332 0 c 2,10,-1
 42 0 l 1,11,12
 43 13 43 13 47 37 c 1,13,14
 105 44 105 44 139 64 c 1,15,-1
 139 604 l 1,16,17
 104 624 104 624 41 631 c 1,18,-1
 46 667 l 1,19,-1
 305 667 l 2,0,1
227 327 m 1,20,-1
 227 53 l 1,21,22
 286 49 286 49 332 49 c 0,23,24
 471 49 471 49 471 187 c 0,25,26
 471 254 471 254 429.5 290.5 c 128,-1,27
 388 327 388 327 306 327 c 2,28,-1
 227 327 l 1,20,-1
304 621 m 0,29,30
 279 621 279 621 227 617 c 1,31,-1
 227 376 l 1,32,-1
 307 376 l 2,33,34
 379 376 379 376 413 406 c 128,-1,35
 447 436 447 436 447 499 c 128,-1,36
 447 562 447 562 412.5 591.5 c 128,-1,37
 378 621 378 621 304 621 c 0,29,30
EndSplineSet
EndChar

StartChar: C
Encoding: 67 67 38
Width: 562
GlyphClass: 2
Flags: W
LayerCount: 2
Fore
SplineSet
312 -7 m 0,0,1
 180 -7 180 -7 117 76 c 128,-1,2
 54 159 54 159 54 333.5 c 128,-1,3
 54 508 54 508 117.5 592 c 128,-1,4
 181 676 181 676 313 676 c 0,5,6
 399 676 399 676 455.5 638.5 c 128,-1,7
 512 601 512 601 512 544 c 0,8,9
 512 511 512 511 495 488 c 128,-1,10
 478 465 478 465 456 465 c 128,-1,11
 434 465 434 465 418 476 c 128,-1,12
 402 487 402 487 396 504 c 1,13,14
 415 530 415 530 415 557.5 c 128,-1,15
 415 585 415 585 387 603.5 c 128,-1,16
 359 622 359 622 313 622 c 0,17,18
 232 622 232 622 193 551.5 c 128,-1,19
 154 481 154 481 154 335 c 128,-1,20
 154 189 154 189 192.5 121 c 128,-1,21
 231 53 231 53 313 53 c 0,22,23
 365 53 365 53 414.5 77.5 c 128,-1,24
 464 102 464 102 489 135 c 1,25,-1
 524 97 l 1,26,27
 515 85 515 85 490.5 64 c 128,-1,28
 466 43 466 43 443 29 c 0,29,30
 384 -7 384 -7 312 -7 c 0,0,1
EndSplineSet
EndChar

StartChar: D
Encoding: 68 68 39
Width: 662
GlyphClass: 2
Flags: W
LayerCount: 2
Fore
SplineSet
260 667 m 2,0,1
 435 667 435 667 522 587 c 128,-1,2
 609 507 609 507 609 332.5 c 128,-1,3
 609 158 609 158 521.5 79 c 128,-1,4
 434 0 434 0 254 0 c 2,5,-1
 41 0 l 1,6,-1
 46 37 l 1,7,8
 107 45 107 45 137 63 c 1,9,-1
 137 604 l 1,10,11
 102 623 102 623 40 631 c 1,12,-1
 45 667 l 1,13,-1
 260 667 l 2,0,1
274 617 m 2,14,-1
 226 617 l 1,15,-1
 226 53 l 1,16,17
 243 49 243 49 271 49 c 0,18,19
 391 49 391 49 450 113.5 c 128,-1,20
 509 178 509 178 509 333.5 c 128,-1,21
 509 489 509 489 451 553 c 128,-1,22
 393 617 393 617 274 617 c 2,14,-1
EndSplineSet
EndChar

StartChar: E
Encoding: 69 69 40
Width: 575
GlyphClass: 2
Flags: W
LayerCount: 2
Fore
SplineSet
490 515 m 1,0,1
 477 510 477 510 467 510 c 128,-1,2
 457 510 457 510 447 512 c 1,3,4
 434 578 434 578 405 614 c 1,5,-1
 217 614 l 1,6,-1
 217 364 l 1,7,-1
 330 369 l 2,8,9
 369 370 369 370 386 436 c 1,10,-1
 418 436 l 1,11,-1
 418 238 l 1,12,-1
 386 238 l 1,13,14
 381 262 381 262 376 274 c 128,-1,15
 371 286 371 286 358.5 298.5 c 128,-1,16
 346 311 346 311 329 312 c 2,17,-1
 217 318 l 1,18,-1
 217 58 l 1,19,-1
 430 58 l 1,20,21
 460 100 460 100 473 171 c 1,22,23
 485 173 485 173 491 173 c 128,-1,24
 497 173 497 173 513 171 c 1,25,-1
 504 0 l 1,26,-1
 31 0 l 1,27,-1
 37 37 l 1,28,29
 104 45 104 45 129 64 c 1,30,-1
 129 604 l 1,31,32
 91 624 91 624 31 631 c 1,33,34
 35 655 35 655 36 667 c 1,35,-1
 482 667 l 1,36,-1
 490 515 l 1,0,1
EndSplineSet
EndChar

StartChar: F
Encoding: 70 70 41
Width: 537
GlyphClass: 2
Flags: W
LayerCount: 2
Fore
SplineSet
490 515 m 1,0,1
 477 510 477 510 464.5 510 c 128,-1,2
 452 510 452 510 447 512 c 1,3,4
 435 574 435 574 400 614 c 1,5,-1
 217 614 l 1,6,-1
 217 356 l 1,7,-1
 330 361 l 2,8,9
 369 362 369 362 386 429 c 1,10,-1
 418 429 l 1,11,-1
 418 231 l 1,12,-1
 386 231 l 1,13,-1
 385 237 l 1,14,15
 369 302 369 302 329 304 c 2,16,-1
 217 310 l 1,17,-1
 217 64 l 1,18,19
 248 45 248 45 314 37 c 1,20,-1
 310 0 l 1,21,-1
 31 0 l 1,22,-1
 37 37 l 1,23,24
 104 45 104 45 129 64 c 1,25,-1
 129 604 l 1,26,27
 90 624 90 624 31 631 c 1,28,29
 35 655 35 655 36 667 c 1,30,-1
 482 667 l 1,31,-1
 490 515 l 1,0,1
EndSplineSet
EndChar

StartChar: G
Encoding: 71 71 42
Width: 611
GlyphClass: 2
Flags: W
LayerCount: 2
Fore
SplineSet
332 -7 m 0,0,1
 185 -7 185 -7 122.5 80.5 c 128,-1,2
 60 168 60 168 60 334 c 128,-1,3
 60 500 60 500 123.5 588 c 128,-1,4
 187 676 187 676 333 676 c 0,5,6
 448 676 448 676 510 620 c 0,7,8
 544 588 544 588 544 548.5 c 128,-1,9
 544 509 544 509 526.5 487 c 128,-1,10
 509 465 509 465 487 465 c 128,-1,11
 465 465 465 465 449 476 c 128,-1,12
 433 487 433 487 427 504 c 1,13,14
 446 532 446 532 446 559.5 c 128,-1,15
 446 587 446 587 414.5 604.5 c 128,-1,16
 383 622 383 622 331.5 622 c 128,-1,17
 280 622 280 622 244.5 599.5 c 128,-1,18
 209 577 209 577 191.5 534 c 128,-1,19
 174 491 174 491 167.5 444.5 c 128,-1,20
 161 398 161 398 161 334 c 128,-1,21
 161 270 161 270 167.5 223.5 c 128,-1,22
 174 177 174 177 191 134 c 0,23,24
 226 46 226 46 332 46 c 0,25,26
 403 46 403 46 455 83 c 1,27,-1
 455 258 l 1,28,29
 418 274 418 274 353 279 c 1,30,-1
 357 316 l 1,31,-1
 544 325 l 1,32,-1
 544 42 l 1,33,34
 455 -7 455 -7 332 -7 c 0,0,1
EndSplineSet
EndChar

StartChar: H
Encoding: 72 72 43
Width: 687
GlyphClass: 2
Flags: W
LayerCount: 2
Fore
SplineSet
481 317 m 1,0,-1
 206 317 l 1,1,-1
 206 64 l 1,2,3
 242 44 242 44 304 37 c 1,4,5
 300 13 300 13 299 0 c 1,6,-1
 25 0 l 1,7,-1
 31 37 l 1,8,9
 83 44 83 44 118 64 c 1,10,-1
 118 604 l 1,11,12
 78 625 78 625 25 631 c 1,13,14
 29 655 29 655 30 667 c 1,15,-1
 304 667 l 1,16,-1
 298 631 l 1,17,18
 243 624 243 624 206 604 c 1,19,-1
 206 368 l 1,20,-1
 481 368 l 1,21,-1
 481 604 l 1,22,23
 442 624 442 624 383 631 c 1,24,25
 387 655 387 655 388 667 c 1,26,-1
 661 667 l 1,27,28
 657 643 657 643 656 631 c 1,29,30
 607 625 607 625 569 604 c 1,31,-1
 569 64 l 1,32,33
 603 44 603 44 661 37 c 1,34,-1
 657 0 l 1,35,-1
 383 0 l 1,36,-1
 389 37 l 1,37,38
 447 44 447 44 481 64 c 1,39,-1
 481 317 l 1,0,-1
EndSplineSet
EndChar

StartChar: I
Encoding: 73 73 44
Width: 324
GlyphClass: 2
Flags: W
LayerCount: 2
Fore
SplineSet
20 0 m 1,0,-1
 26 37 l 1,1,2
 84 44 84 44 118 64 c 1,3,-1
 118 604 l 1,4,5
 79 624 79 624 20 631 c 1,6,7
 24 655 24 655 25 667 c 1,8,-1
 302 667 l 1,9,10
 301 655 301 655 297 631 c 1,11,12
 243 624 243 624 206 604 c 1,13,-1
 206 64 l 1,14,15
 239 45 239 45 303 37 c 1,16,-1
 298 0 l 1,17,-1
 20 0 l 1,0,-1
EndSplineSet
EndChar

StartChar: J
Encoding: 74 74 45
Width: 307
GlyphClass: 2
Flags: W
LayerCount: 2
Fore
SplineSet
198 16 m 2,0,1
 198 -72 198 -72 147.5 -122.5 c 128,-1,2
 97 -173 97 -173 3 -198 c 1,3,-1
 -8 -168 l 1,4,5
 46 -143 46 -143 78 -104.5 c 128,-1,6
 110 -66 110 -66 110 1 c 2,7,-1
 110 604 l 1,8,9
 71 624 71 624 12 631 c 1,10,-1
 17 667 l 1,11,-1
 294 667 l 1,12,13
 293 655 293 655 289 631 c 1,14,15
 233 624 233 624 198 604 c 1,16,-1
 198 16 l 2,0,1
EndSplineSet
EndChar

StartChar: K
Encoding: 75 75 46
Width: 629
GlyphClass: 2
Flags: W
LayerCount: 2
Fore
SplineSet
26 0 m 1,0,-1
 32 37 l 1,1,2
 90 44 90 44 123 64 c 1,3,-1
 123 604 l 1,4,5
 86 624 86 624 26 631 c 1,6,7
 30 655 30 655 31 667 c 1,8,-1
 310 667 l 1,9,-1
 304 631 l 1,10,11
 249 625 249 625 212 604 c 1,12,-1
 212 64 l 1,13,14
 248 44 248 44 310 37 c 1,15,16
 306 13 306 13 305 0 c 1,17,-1
 26 0 l 1,0,-1
416 602 m 0,18,19
 416 629 416 629 354 631 c 1,20,-1
 360 667 l 1,21,-1
 595 667 l 1,22,-1
 591 631 l 1,23,24
 530 627 530 627 500 599 c 1,25,-1
 314 366 l 1,26,-1
 532 64 l 1,27,28
 561 43 561 43 617 38 c 1,29,-1
 611 0 l 1,30,-1
 451 0 l 1,31,32
 449 27 449 27 435 48 c 2,33,-1
 222 348 l 1,34,-1
 410 582 l 1,35,36
 416 594 416 594 416 602 c 0,18,19
EndSplineSet
EndChar

StartChar: L
Encoding: 76 76 47
Width: 537
GlyphClass: 2
Flags: W
LayerCount: 2
Fore
SplineSet
233 58 m 1,0,-1
 420 58 l 1,1,2
 450 102 450 102 463 171 c 1,3,4
 470 174 470 174 480.5 174 c 128,-1,5
 491 174 491 174 503 171 c 1,6,-1
 494 0 l 1,7,-1
 48 0 l 1,8,-1
 54 37 l 1,9,10
 113 44 113 44 144 64 c 1,11,-1
 144 604 l 1,12,13
 107 624 107 624 48 631 c 1,14,15
 49 643 49 643 53 667 c 1,16,-1
 330 667 l 1,17,-1
 325 631 l 1,18,19
 270 624 270 624 233 604 c 1,20,-1
 233 58 l 1,0,-1
EndSplineSet
EndChar

StartChar: M
Encoding: 77 77 48
Width: 815
GlyphClass: 2
Flags: W
LayerCount: 2
Fore
SplineSet
636 529 m 1,0,-1
 632 529 l 1,1,-1
 429 0 l 1,2,-1
 370 0 l 1,3,-1
 157 538 l 1,4,-1
 153 538 l 1,5,-1
 153 64 l 1,6,7
 186 45 186 45 250 37 c 1,8,-1
 246 0 l 1,9,-1
 -7 0 l 1,10,-1
 -2 37 l 1,11,12
 56 44 56 44 89 64 c 1,13,-1
 89 604 l 1,14,15
 52 624 52 624 -7 631 c 1,16,-1
 -3 667 l 1,17,-1
 190 667 l 1,18,-1
 414 123 l 1,19,-1
 630 667 l 1,20,-1
 821 667 l 1,21,22
 817 643 817 643 816 631 c 1,23,24
 761 625 761 625 724 604 c 1,25,-1
 724 64 l 1,26,27
 757 45 757 45 821 37 c 1,28,-1
 817 0 l 1,29,-1
 539 0 l 1,30,31
 543 27 543 27 544 37 c 1,32,33
 601 44 601 44 636 64 c 1,34,-1
 636 529 l 1,0,-1
EndSplineSet
EndChar

StartChar: N
Encoding: 78 78 49
Width: 681
GlyphClass: 2
Flags: W
LayerCount: 2
Fore
SplineSet
569 0 m 1,0,-1
 526 0 l 1,1,-1
 186 515 l 1,2,-1
 186 64 l 1,3,4
 219 45 219 45 283 37 c 1,5,-1
 279 0 l 1,6,-1
 25 0 l 1,7,-1
 31 37 l 1,8,9
 89 44 89 44 123 64 c 1,10,-1
 123 604 l 1,11,12
 84 624 84 624 25 631 c 1,13,14
 29 655 29 655 30 667 c 1,15,-1
 189 667 l 1,16,-1
 504 191 l 1,17,-1
 504 604 l 1,18,19
 469 623 469 623 408 631 c 1,20,21
 409 643 409 643 413 667 c 1,22,-1
 666 667 l 1,23,24
 662 643 662 643 661 631 c 1,25,26
 606 625 606 625 569 604 c 1,27,-1
 569 0 l 1,0,-1
EndSplineSet
EndChar

StartChar: O
Encoding: 79 79 50
Width: 653
GlyphClass: 2
Flags: W
LayerCount: 2
Fore
SplineSet
237 65 m 128,-1,1
 273 42 273 42 322 42 c 128,-1,2
 371 42 371 42 402.5 58 c 128,-1,3
 434 74 434 74 452.5 99.5 c 128,-1,4
 471 125 471 125 481.5 165 c 128,-1,5
 492 205 492 205 495.5 243.5 c 128,-1,6
 499 282 499 282 499 333 c 128,-1,7
 499 384 499 384 495.5 423 c 128,-1,8
 492 462 492 462 481.5 502 c 128,-1,9
 471 542 471 542 452 568 c 0,10,11
 410 626 410 626 327 626 c 0,12,13
 219 626 219 626 184 536 c 0,14,15
 154 460 154 460 154 334 c 0,16,17
 154 210 154 210 184 132 c 0,18,0
 201 88 201 88 237 65 c 128,-1,1
116.5 588 m 128,-1,20
 180 676 180 676 326.5 676 c 128,-1,21
 473 676 473 676 536.5 587.5 c 128,-1,22
 600 499 600 499 600 333.5 c 128,-1,23
 600 168 600 168 536.5 80.5 c 128,-1,24
 473 -7 473 -7 326.5 -7 c 128,-1,25
 180 -7 180 -7 116.5 81 c 128,-1,26
 53 169 53 169 53 334.5 c 128,-1,19
 53 500 53 500 116.5 588 c 128,-1,20
EndSplineSet
EndChar

StartChar: P
Encoding: 80 80 51
Width: 568
GlyphClass: 2
Flags: W
LayerCount: 2
Fore
SplineSet
298 667 m 2,0,1
 520 667 520 667 520 482 c 0,2,3
 520 378 520 378 452 335.5 c 128,-1,4
 384 293 384 293 254 293 c 2,5,-1
 222 293 l 1,6,-1
 222 64 l 1,7,8
 255 45 255 45 319 37 c 1,9,-1
 315 0 l 1,10,-1
 37 0 l 1,11,-1
 43 37 l 1,12,13
 100 44 100 44 134 64 c 1,14,-1
 134 604 l 1,15,16
 95 624 95 624 36 631 c 1,17,18
 40 655 40 655 41 667 c 1,19,-1
 298 667 l 2,0,1
430 484 m 0,20,21
 430 625 430 625 288 625 c 0,22,23
 256 625 256 625 222 619 c 1,24,-1
 222 338 l 1,25,-1
 254 338 l 2,26,27
 430 338 430 338 430 484 c 0,20,21
EndSplineSet
EndChar

StartChar: Q
Encoding: 81 81 52
Width: 653
GlyphClass: 2
Flags: W
LayerCount: 2
Fore
SplineSet
116.5 588 m 128,-1,1
 180 676 180 676 326.5 676 c 128,-1,2
 473 676 473 676 536.5 587.5 c 128,-1,3
 600 499 600 499 600 342.5 c 128,-1,4
 600 186 600 186 549.5 100.5 c 128,-1,5
 499 15 499 15 385 -2 c 1,6,7
 403 -49 403 -49 444 -85.5 c 128,-1,8
 485 -122 485 -122 539 -140 c 1,9,-1
 539 -146 l 2,10,11
 539 -161 539 -161 529 -170 c 1,12,13
 375 -144 375 -144 304 -6 c 1,14,15
 170 0 170 0 111.5 87.5 c 128,-1,16
 53 175 53 175 53 337.5 c 128,-1,0
 53 500 53 500 116.5 588 c 128,-1,1
237 65 m 128,-1,18
 273 42 273 42 322 42 c 128,-1,19
 371 42 371 42 402.5 58 c 128,-1,20
 434 74 434 74 452.5 99.5 c 128,-1,21
 471 125 471 125 481.5 165 c 128,-1,22
 492 205 492 205 495.5 243.5 c 128,-1,23
 499 282 499 282 499 333 c 128,-1,24
 499 384 499 384 495.5 423 c 128,-1,25
 492 462 492 462 481.5 502 c 128,-1,26
 471 542 471 542 452 568 c 0,27,28
 410 626 410 626 327 626 c 0,29,30
 219 626 219 626 184 536 c 0,31,32
 154 460 154 460 154 334 c 0,33,34
 154 210 154 210 184 132 c 0,35,17
 201 88 201 88 237 65 c 128,-1,18
EndSplineSet
EndChar

StartChar: R
Encoding: 82 82 53
Width: 621
GlyphClass: 2
Flags: W
LayerCount: 2
Fore
SplineSet
300 667 m 2,0,1
 529 667 529 667 529 491 c 0,2,3
 529 359 529 359 391 326 c 1,4,5
 425 304 425 304 453 240 c 2,6,-1
 532 64 l 1,7,8
 562 44 562 44 616 38 c 1,9,-1
 610 0 l 1,10,-1
 459 0 l 1,11,-1
 372 223 l 2,12,13
 348 284 348 284 328 297.5 c 128,-1,14
 308 311 308 311 244 311 c 2,15,-1
 224 311 l 1,16,-1
 224 64 l 1,17,18
 252 46 252 46 321 37 c 1,19,20
 317 13 317 13 316 0 c 1,21,-1
 39 0 l 1,22,-1
 44 37 l 1,23,24
 102 44 102 44 136 64 c 1,25,-1
 136 604 l 1,26,27
 101 624 101 624 38 631 c 1,28,-1
 43 667 l 1,29,-1
 300 667 l 2,0,1
299 626 m 0,30,31
 265 626 265 626 224 619 c 1,32,-1
 224 357 l 1,33,-1
 255 357 l 2,34,35
 439 357 439 357 439 493 c 0,36,37
 439 626 439 626 299 626 c 0,30,31
EndSplineSet
EndChar

StartChar: S
Encoding: 83 83 54
Width: 496
GlyphClass: 2
Flags: W
LayerCount: 2
Fore
SplineSet
336 607.5 m 128,-1,1
 309 625 309 625 257 625 c 128,-1,2
 205 625 205 625 173.5 599 c 128,-1,3
 142 573 142 573 142 524 c 0,4,5
 142 469 142 469 186 438 c 0,6,7
 220 415 220 415 268 394.5 c 128,-1,8
 316 374 316 374 334 365.5 c 128,-1,9
 352 357 352 357 380.5 338 c 128,-1,10
 409 319 409 319 424 300 c 0,11,12
 462 250 462 250 462 181 c 0,13,14
 462 90 462 90 399 41.5 c 128,-1,15
 336 -7 336 -7 232 -7 c 0,16,17
 180 -7 180 -7 125.5 10.5 c 128,-1,18
 71 28 71 28 47 45 c 1,19,-1
 47 209 l 1,20,-1
 96 214 l 1,21,22
 108 120 108 120 132 66 c 1,23,24
 182 43 182 43 242 43 c 128,-1,25
 302 43 302 43 336.5 74 c 128,-1,26
 371 105 371 105 371 160 c 0,27,28
 371 220 371 220 325 254 c 0,29,30
 288 281 288 281 237.5 302 c 128,-1,31
 187 323 187 323 164.5 335.5 c 128,-1,32
 142 348 142 348 113 371 c 0,33,34
 56 416 56 416 56 498 c 128,-1,35
 56 580 56 580 110.5 628 c 128,-1,36
 165 676 165 676 252 676 c 128,-1,37
 339 676 339 676 394.5 639 c 128,-1,38
 450 602 450 602 450 549 c 0,39,40
 450 485 450 485 400 485 c 0,41,42
 363 485 363 485 342 513 c 1,43,44
 363 534 363 534 363 562 c 128,-1,0
 363 590 363 590 336 607.5 c 128,-1,1
EndSplineSet
EndChar

StartChar: T
Encoding: 84 84 55
Width: 593
GlyphClass: 2
Flags: W
LayerCount: 2
Fore
SplineSet
84 499 m 1,0,-1
 60 498 l 2,1,2
 47 498 47 498 40 499 c 1,3,-1
 40 671 l 1,4,5
 172 667 172 667 342.5 667 c 128,-1,6
 513 667 513 667 553 671 c 1,7,-1
 553 499 l 1,8,9
 546 498 546 498 531.5 498 c 128,-1,10
 517 498 517 498 509 499 c 1,11,12
 502 571 502 571 473 614 c 1,13,14
 408 621 408 621 341 622 c 1,15,-1
 341 64 l 1,16,17
 376 45 376 45 439 37 c 1,18,19
 435 13 435 13 434 0 c 1,20,-1
 156 0 l 1,21,-1
 162 37 l 1,22,23
 221 44 221 44 253 64 c 1,24,-1
 253 622 l 1,25,26
 176 621 176 621 122 615 c 1,27,28
 86 565 86 565 84 499 c 1,0,-1
EndSplineSet
EndChar

StartChar: U
Encoding: 85 85 56
Width: 648
GlyphClass: 2
Flags: W
LayerCount: 2
Fore
SplineSet
558 216 m 2,0,1
 558 109 558 109 499.5 51 c 128,-1,2
 441 -7 441 -7 322.5 -7 c 128,-1,3
 204 -7 204 -7 146.5 45 c 128,-1,4
 89 97 89 97 89 210 c 2,5,-1
 89 604 l 1,6,7
 50 624 50 624 -8 631 c 1,8,-1
 -4 667 l 1,9,-1
 276 667 l 1,10,-1
 270 631 l 1,11,12
 213 621 213 621 180 604 c 1,13,-1
 180 210 l 2,14,15
 180 122 180 122 216.5 83.5 c 128,-1,16
 253 45 253 45 331.5 45 c 128,-1,17
 410 45 410 45 452 89 c 128,-1,18
 494 133 494 133 494 216 c 2,19,-1
 494 604 l 1,20,21
 457 624 457 624 397 631 c 1,22,23
 398 643 398 643 402 667 c 1,24,-1
 655 667 l 1,25,-1
 650 631 l 1,26,27
 591 621 591 621 558 604 c 1,28,-1
 558 216 l 2,0,1
EndSplineSet
EndChar

StartChar: V
Encoding: 86 86 57
Width: 604
GlyphClass: 2
Flags: W
LayerCount: 2
Fore
SplineSet
596 667 m 1,0,-1
 590 631 l 1,1,2
 556 625 556 625 528 605 c 1,3,-1
 332 0 l 1,4,-1
 284 0 l 1,5,-1
 68 604 l 1,6,7
 47 622 47 622 7 631 c 1,8,-1
 12 667 l 1,9,-1
 254 667 l 1,10,-1
 248 631 l 1,11,12
 196 624 196 624 162 604 c 1,13,-1
 319 153 l 1,14,-1
 462 604 l 1,15,16
 422 625 422 625 371 631 c 1,17,18
 375 655 375 655 376 667 c 1,19,-1
 596 667 l 1,0,-1
EndSplineSet
EndChar

StartChar: W
Encoding: 87 87 58
Width: 921
GlyphClass: 2
Flags: W
LayerCount: 2
Fore
SplineSet
901 667 m 1,0,-1
 895 631 l 1,1,2
 862 625 862 625 835 606 c 1,3,-1
 662 0 l 1,4,-1
 614 0 l 1,5,-1
 460 462 l 1,6,-1
 320 0 l 1,7,-1
 272 0 l 1,8,-1
 80 605 l 1,9,10
 58 622 58 622 20 631 c 1,11,-1
 24 667 l 1,12,-1
 267 667 l 1,13,-1
 261 631 l 1,14,15
 209 624 209 624 175 604 c 1,16,-1
 307 159 l 1,17,-1
 456 667 l 1,18,-1
 488 667 l 1,19,-1
 648 161 l 1,20,-1
 767 604 l 1,21,22
 727 625 727 625 676 631 c 1,23,-1
 681 667 l 1,24,-1
 901 667 l 1,0,-1
EndSplineSet
EndChar

StartChar: X
Encoding: 88 88 59
Width: 571
GlyphClass: 2
Flags: W
LayerCount: 2
Fore
SplineSet
262 667 m 1,0,-1
 256 631 l 1,1,2
 207 624 207 624 176 604 c 1,3,-1
 298 412 l 1,4,-1
 418 604 l 1,5,6
 387 622 387 622 338 631 c 1,7,8
 339 643 339 643 343 667 c 1,9,-1
 560 667 l 1,10,-1
 555 631 l 1,11,12
 519 626 519 626 491 605 c 1,13,-1
 335 355 l 1,14,-1
 523 61 l 1,15,16
 547 44 547 44 597 37 c 1,17,18
 593 13 593 13 592 0 c 1,19,-1
 326 0 l 1,20,21
 330 27 330 27 331 37 c 1,22,23
 391 37 391 37 417 63 c 1,24,-1
 277 283 l 1,25,-1
 140 61 l 1,26,27
 158 37 158 37 233 37 c 1,28,-1
 229 0 l 1,29,-1
 -25 0 l 1,30,31
 -21 27 -21 27 -20 37 c 1,32,33
 37 41 37 41 68 61 c 1,34,-1
 242 339 l 1,35,-1
 71 605 l 1,36,37
 49 621 49 621 10 631 c 1,38,-1
 15 667 l 1,39,-1
 262 667 l 1,0,-1
EndSplineSet
EndChar

StartChar: Y
Encoding: 89 89 60
Width: 570
GlyphClass: 2
Flags: W
LayerCount: 2
Fore
SplineSet
141 0 m 1,0,-1
 146 37 l 1,1,2
 208 44 208 44 243 64 c 1,3,-1
 243 265 l 1,4,-1
 73 605 l 1,5,6
 49 623 49 623 11 631 c 1,7,-1
 16 667 l 1,8,-1
 263 667 l 1,9,10
 259 643 259 643 258 631 c 1,11,12
 206 624 206 624 171 604 c 1,13,-1
 296 343 l 1,14,-1
 424 605 l 1,15,16
 386 625 386 625 335 631 c 1,17,18
 336 643 336 643 340 667 c 1,19,-1
 560 667 l 1,20,-1
 554 631 l 1,21,22
 518 624 518 624 493 605 c 1,23,-1
 331 277 l 1,24,-1
 331 64 l 1,25,26
 365 45 365 45 433 37 c 1,27,-1
 429 0 l 1,28,-1
 141 0 l 1,0,-1
EndSplineSet
EndChar

StartChar: Z
Encoding: 90 90 61
Width: 538
GlyphClass: 2
Flags: W
LayerCount: 2
Fore
SplineSet
98 502 m 1,0,-1
 77 501 l 2,1,2
 65 501 65 501 60 502 c 1,3,-1
 48 648 l 1,4,-1
 74 672 l 1,5,6
 194 667 194 667 274.5 667 c 128,-1,7
 355 667 355 667 490 672 c 1,8,-1
 499 632 l 1,9,-1
 144 52 l 1,10,11
 171 51 171 51 256 51 c 128,-1,12
 341 51 341 51 389 52 c 1,13,14
 436 108 436 108 455 181 c 1,15,16
 467 183 467 183 475.5 183 c 128,-1,17
 484 183 484 183 498 181 c 1,18,-1
 489 -3 l 1,19,20
 420 0 420 0 244.5 0 c 128,-1,21
 69 0 69 0 41 -4 c 1,22,-1
 38 46 l 1,23,-1
 384 615 l 1,24,-1
 345 616 l 1,25,-1
 295 616 l 2,26,27
 236 616 236 616 146 614 c 1,28,29
 112 584 112 584 98 502 c 1,0,-1
EndSplineSet
EndChar

StartChar: bracketleft
Encoding: 91 91 62
Width: 350
GlyphClass: 2
Flags: W
LayerCount: 2
Fore
SplineSet
292 -140 m 1,0,-1
 111 -140 l 1,1,-1
 111 709 l 1,2,-1
 292 709 l 1,3,-1
 292 676 l 1,4,-1
 179 666 l 1,5,-1
 179 -96 l 1,6,-1
 292 -106 l 1,7,-1
 292 -140 l 1,0,-1
EndSplineSet
EndChar

StartChar: backslash
Encoding: 92 92 63
Width: 490
GlyphClass: 2
Flags: W
LayerCount: 2
Fore
SplineSet
355 -125 m 1,0,-1
 49 671 l 1,1,-1
 105 692 l 1,2,-1
 411 -104 l 1,3,-1
 355 -125 l 1,0,-1
EndSplineSet
EndChar

StartChar: bracketright
Encoding: 93 93 64
Width: 350
GlyphClass: 2
Flags: W
LayerCount: 2
Fore
SplineSet
239 -140 m 1,0,-1
 58 -140 l 1,1,-1
 58 -106 l 1,2,-1
 171 -96 l 1,3,-1
 171 666 l 1,4,-1
 58 676 l 1,5,-1
 58 709 l 1,6,-1
 239 709 l 1,7,-1
 239 -140 l 1,0,-1
EndSplineSet
EndChar

StartChar: asciicircum
Encoding: 94 94 65
Width: 554
GlyphClass: 2
Flags: W
LayerCount: 2
Fore
SplineSet
251 674 m 1,0,-1
 303 674 l 1,1,-1
 484 356 l 1,2,-1
 434 331 l 1,3,-1
 277 604 l 1,4,-1
 121 331 l 1,5,-1
 70 356 l 1,6,-1
 251 674 l 1,0,-1
EndSplineSet
EndChar

StartChar: underscore
Encoding: 95 95 66
Width: 371
GlyphClass: 2
Flags: W
LayerCount: 2
Fore
SplineSet
371 -112 m 1,0,-1
 0 -112 l 1,1,-1
 0 -58 l 1,2,-1
 371 -58 l 1,3,-1
 371 -112 l 1,0,-1
EndSplineSet
EndChar

StartChar: grave
Encoding: 96 96 67
Width: 285
GlyphClass: 2
Flags: W
LayerCount: 2
Fore
SplineSet
82 607 m 1,0,1
 57 629 57 629 57 644.5 c 128,-1,2
 57 660 57 660 68 670.5 c 128,-1,3
 79 681 79 681 95.5 681 c 128,-1,4
 112 681 112 681 125 664 c 2,5,-1
 208 548 l 1,6,-1
 184 524 l 1,7,-1
 82 607 l 1,0,1
EndSplineSet
EndChar

StartChar: a
Encoding: 97 97 68
Width: 488
GlyphClass: 2
Flags: W
LayerCount: 2
Fore
SplineSet
171 -7 m 0,0,1
 109 -7 109 -7 75 23 c 128,-1,2
 41 53 41 53 41 112.5 c 128,-1,3
 41 172 41 172 89 209.5 c 128,-1,4
 137 247 137 247 228 253 c 2,5,-1
 310 259 l 1,6,-1
 310 340 l 2,7,8
 310 390 310 390 289 413 c 128,-1,9
 268 436 268 436 221 436 c 0,10,11
 138 436 138 436 138 391 c 0,12,13
 138 365 138 365 168 354 c 1,14,15
 168 306 168 306 111 306 c 0,16,17
 85 306 85 306 69 322 c 128,-1,18
 53 338 53 338 53 364 c 0,19,20
 53 415 53 415 98.5 445.5 c 128,-1,21
 144 476 144 476 223.5 476 c 128,-1,22
 303 476 303 476 349 440 c 128,-1,23
 395 404 395 404 395 340 c 2,24,-1
 395 61 l 1,25,26
 418 44 418 44 465 34 c 1,27,-1
 461 0 l 1,28,-1
 323 0 l 1,29,-1
 313 45 l 1,30,31
 257 -7 257 -7 171 -7 c 0,0,1
129 116 m 0,32,33
 129 34 129 34 196 34 c 0,34,35
 249 34 249 34 310 92 c 1,36,-1
 310 218 l 1,37,-1
 230 211 l 2,38,39
 183 207 183 207 156 181.5 c 128,-1,40
 129 156 129 156 129 116 c 0,32,33
EndSplineSet
EndChar

StartChar: b
Encoding: 98 98 69
Width: 547
GlyphClass: 2
Flags: W
LayerCount: 2
Fore
SplineSet
298 476 m 0,0,1
 400 476 400 476 447 412 c 128,-1,2
 494 348 494 348 494 238 c 128,-1,3
 494 128 494 128 438 60.5 c 128,-1,4
 382 -7 382 -7 278 -7 c 0,5,6
 215 -7 215 -7 162 42 c 1,7,8
 147 19 147 19 142 0 c 1,9,-1
 94 0 l 1,10,-1
 94 567 l 2,11,12
 94 604 94 604 79 617.5 c 128,-1,13
 64 631 64 631 24 633 c 1,14,-1
 27 663 l 1,15,16
 63 669 63 669 160 697 c 1,17,-1
 180 687 l 1,18,-1
 180 406 l 1,19,20
 195 435 195 435 228.5 455.5 c 128,-1,21
 262 476 262 476 298 476 c 0,0,1
399 165 m 128,-1,23
 403 196 403 196 403 234 c 128,-1,24
 403 272 403 272 401.5 297 c 128,-1,25
 400 322 400 322 394 349.5 c 128,-1,26
 388 377 388 377 377 394 c 0,27,28
 352 433 352 433 306.5 433 c 128,-1,29
 261 433 261 433 236 414 c 128,-1,30
 211 395 211 395 200 359 c 0,31,32
 180 298 180 298 180 205 c 2,33,-1
 180 85 l 1,34,35
 237 35 237 35 279 35 c 128,-1,36
 321 35 321 35 346.5 52.5 c 128,-1,37
 372 70 372 70 383.5 102 c 128,-1,22
 395 134 395 134 399 165 c 128,-1,23
EndSplineSet
EndChar

StartChar: c
Encoding: 99 99 70
Width: 441
GlyphClass: 2
Flags: W
LayerCount: 2
Fore
SplineSet
257 476 m 0,0,1
 326 476 326 476 368.5 446.5 c 128,-1,2
 411 417 411 417 411 370 c 0,3,4
 411 347 411 347 395.5 329 c 128,-1,5
 380 311 380 311 359.5 311 c 128,-1,6
 339 311 339 311 325 321 c 128,-1,7
 311 331 311 331 306 347 c 1,8,9
 319 368 319 368 319 388.5 c 128,-1,10
 319 409 319 409 302 424.5 c 128,-1,11
 285 440 285 440 252.5 440 c 128,-1,12
 220 440 220 440 194.5 424 c 128,-1,13
 169 408 169 408 156 378 c 0,14,15
 135 326 135 326 135 258 c 128,-1,16
 135 190 135 190 139 159 c 128,-1,17
 143 128 143 128 155 99 c 0,18,19
 179 42 179 42 258 42 c 0,20,21
 291 42 291 42 323 54 c 128,-1,22
 355 66 355 66 370 78 c 2,23,-1
 385 89 l 1,24,-1
 411 59 l 1,25,26
 404 52 404 52 391 41 c 128,-1,27
 378 30 378 30 336.5 11.5 c 128,-1,28
 295 -7 295 -7 253 -7 c 0,29,30
 140 -7 140 -7 91 54.5 c 128,-1,31
 42 116 42 116 42 238 c 1,32,33
 45 476 45 476 257 476 c 0,0,1
EndSplineSet
EndChar

StartChar: d
Encoding: 100 100 71
Width: 555
GlyphClass: 2
Flags: W
LayerCount: 2
Fore
SplineSet
238 -7 m 0,0,1
 55 -7 55 -7 55 224 c 0,2,3
 55 347 55 347 113 411.5 c 128,-1,4
 171 476 171 476 281 476 c 0,5,6
 324 476 324 476 366 459 c 1,7,-1
 366 567 l 2,8,9
 366 604 366 604 351 617.5 c 128,-1,10
 336 631 336 631 297 633 c 1,11,-1
 299 662 l 1,12,13
 333 668 333 668 432 697 c 1,14,-1
 452 687 l 1,15,-1
 452 61 l 1,16,17
 475 43 475 43 521 34 c 1,18,-1
 518 0 l 1,19,-1
 374 0 l 1,20,-1
 366 59 l 1,21,22
 324 -7 324 -7 238 -7 c 0,0,1
247 36 m 0,23,24
 366 36 366 36 366 224 c 2,25,-1
 366 414 l 1,26,27
 328 434 328 434 278 434 c 0,28,29
 214 434 214 434 178.5 379 c 128,-1,30
 143 324 143 324 143 225.5 c 128,-1,31
 143 127 143 127 168.5 81.5 c 128,-1,32
 194 36 194 36 247 36 c 0,23,24
EndSplineSet
EndChar

StartChar: e
Encoding: 101 101 72
Width: 488
GlyphClass: 2
Flags: W
LayerCount: 2
Fore
SplineSet
152 243 m 1,0,-1
 152 238 l 2,1,2
 152 116 152 116 183 78 c 0,3,4
 212 42 212 42 275 42 c 0,5,6
 308 42 308 42 340 54 c 128,-1,7
 372 66 372 66 388 78 c 2,8,-1
 403 89 l 1,9,-1
 428 59 l 1,10,11
 421 52 421 52 408 41 c 128,-1,12
 395 30 395 30 354 11.5 c 128,-1,13
 313 -7 313 -7 271 -7 c 0,14,15
 157 -7 157 -7 108.5 54.5 c 128,-1,16
 60 116 60 116 60 232.5 c 128,-1,17
 60 349 60 349 113.5 412.5 c 128,-1,18
 167 476 167 476 267.5 476 c 128,-1,19
 368 476 368 476 408 424 c 128,-1,20
 448 372 448 372 451 270 c 1,21,-1
 430 243 l 1,22,-1
 152 243 l 1,0,-1
265 436 m 0,23,24
 155 436 155 436 152 280 c 1,25,-1
 361 287 l 1,26,27
 361 366 361 366 340.5 401 c 128,-1,28
 320 436 320 436 265 436 c 0,23,24
EndSplineSet
EndChar

StartChar: f
Encoding: 102 102 73
Width: 303
GlyphClass: 2
Flags: W
LayerCount: 2
Fore
SplineSet
160 590 m 1,0,-1
 172 470 l 1,1,-1
 276 470 l 1,2,-1
 276 417 l 1,3,-1
 172 417 l 1,4,-1
 172 62 l 1,5,6
 194 45 194 45 248 34 c 1,7,-1
 245 0 l 1,8,-1
 17 0 l 1,9,-1
 21 36 l 1,10,11
 63 43 63 43 87 62 c 1,12,-1
 87 417 l 1,13,-1
 13 417 l 1,14,-1
 8 452 l 1,15,16
 54 456 54 456 87 470 c 1,17,-1
 87 524 l 2,18,19
 87 607 87 607 121.5 658 c 128,-1,20
 156 709 156 709 232 709 c 0,21,22
 282 709 282 709 318 685 c 128,-1,23
 354 661 354 661 354 626.5 c 128,-1,24
 354 592 354 592 338.5 576 c 128,-1,25
 323 560 323 560 304 560 c 128,-1,26
 285 560 285 560 272.5 570 c 128,-1,27
 260 580 260 580 257 598 c 1,28,29
 275 616 275 616 275 633.5 c 128,-1,30
 275 651 275 651 261.5 661.5 c 128,-1,31
 248 672 248 672 225 672 c 0,32,33
 160 672 160 672 160 590 c 1,0,-1
EndSplineSet
EndChar

StartChar: g
Encoding: 103 103 74
Width: 494
GlyphClass: 2
Flags: W
LayerCount: 2
Fore
SplineSet
241 475 m 0,0,1
 310 475 310 475 353 451 c 1,2,3
 389 462 389 462 389 487.5 c 128,-1,4
 389 513 389 513 361 526 c 1,5,6
 361 541 361 541 373.5 550.5 c 128,-1,7
 386 560 386 560 408 560 c 128,-1,8
 430 560 430 560 444 546 c 128,-1,9
 458 532 458 532 458 510 c 0,10,11
 458 447 458 447 388 423 c 1,12,13
 425 382 425 382 425 308 c 128,-1,14
 425 234 425 234 375.5 190.5 c 128,-1,15
 326 147 326 147 241 147 c 2,16,-1
 227 147 l 1,17,-1
 185 95 l 1,18,19
 187 80 187 80 200.5 74 c 128,-1,20
 214 68 214 68 249 67 c 1,21,-1
 291 67 l 2,22,23
 383 67 383 67 426.5 25.5 c 128,-1,24
 470 -16 470 -16 470 -80 c 0,25,26
 470 -219 470 -219 258 -219 c 0,27,28
 152 -219 152 -219 98.5 -185 c 128,-1,29
 45 -151 45 -151 45 -97 c 128,-1,30
 45 -43 45 -43 62 -19.5 c 128,-1,31
 79 4 79 4 122 28 c 1,32,33
 100 53 100 53 100 95 c 1,34,-1
 182 153 l 1,35,36
 123 167 123 167 90.5 207.5 c 128,-1,37
 58 248 58 248 58 308 c 0,38,39
 58 475 58 475 241 475 c 0,0,1
241 188 m 128,-1,41
 290 188 290 188 312 217 c 128,-1,42
 334 246 334 246 334 311 c 128,-1,43
 334 376 334 376 312 405.5 c 128,-1,44
 290 435 290 435 241 435 c 128,-1,45
 192 435 192 435 170 405.5 c 128,-1,46
 148 376 148 376 148 311 c 128,-1,47
 148 246 148 246 170 217 c 128,-1,40
 192 188 192 188 241 188 c 128,-1,41
267 -1 m 2,48,-1
 182 -1 l 1,49,50
 137 -30 137 -30 137 -80 c 0,51,52
 137 -178 137 -178 257.5 -178 c 128,-1,53
 378 -178 378 -178 378 -80 c 0,54,55
 378 -1 378 -1 267 -1 c 2,48,-1
EndSplineSet
EndChar

StartChar: h
Encoding: 104 104 75
Width: 552
GlyphClass: 2
Flags: W
LayerCount: 2
Fore
SplineSet
94 567 m 2,0,1
 94 604 94 604 78.5 617.5 c 128,-1,2
 63 631 63 631 24 633 c 1,3,-1
 27 663 l 1,4,5
 63 669 63 669 160 697 c 1,6,-1
 179 687 l 1,7,-1
 179 408 l 1,8,9
 232 476 232 476 306.5 476 c 128,-1,10
 381 476 381 476 421.5 439.5 c 128,-1,11
 462 403 462 403 462 338 c 2,12,-1
 462 62 l 1,13,14
 484 44 484 44 532 34 c 1,15,-1
 528 0 l 1,16,-1
 308 0 l 1,17,-1
 311 34 l 1,18,19
 349 40 349 40 377 62 c 1,20,-1
 377 329 l 2,21,22
 377 428 377 428 292 428 c 0,23,24
 257 428 257 428 226 404.5 c 128,-1,25
 195 381 195 381 179 344 c 1,26,-1
 179 62 l 1,27,28
 204 43 204 43 249 35 c 1,29,-1
 245 0 l 1,30,-1
 24 0 l 1,31,-1
 28 37 l 1,32,33
 70 43 70 43 94 62 c 1,34,-1
 94 567 l 2,0,1
EndSplineSet
EndChar

StartChar: i
Encoding: 105 105 76
Width: 278
GlyphClass: 2
Flags: W
LayerCount: 2
Fore
SplineSet
104 349 m 2,0,1
 104 386 104 386 88.5 399.5 c 128,-1,2
 73 413 73 413 34 415 c 1,3,-1
 37 444 l 1,4,5
 75 451 75 451 169 479 c 1,6,-1
 189 468 l 1,7,-1
 189 61 l 1,8,9
 214 43 214 43 259 34 c 1,10,-1
 255 0 l 1,11,-1
 34 0 l 1,12,-1
 38 36 l 1,13,14
 79 43 79 43 104 61 c 1,15,-1
 104 349 l 2,0,1
194 598 m 128,-1,17
 194 540 194 540 141.5 540 c 128,-1,18
 89 540 89 540 89 598 c 128,-1,19
 89 656 89 656 141.5 656 c 128,-1,16
 194 656 194 656 194 598 c 128,-1,17
EndSplineSet
EndChar

StartChar: j
Encoding: 106 106 77
Width: 266
GlyphClass: 2
Flags: W
LayerCount: 2
Fore
SplineSet
189 -33 m 2,0,1
 189 -167 189 -167 134 -201 c 0,2,3
 110 -216 110 -216 69 -216 c 128,-1,4
 28 -216 28 -216 -2.5 -197.5 c 128,-1,5
 -33 -179 -33 -179 -33 -139 c 0,6,7
 -33 -116 -33 -116 -19.5 -100 c 128,-1,8
 -6 -84 -6 -84 18 -84 c 128,-1,9
 42 -84 42 -84 54 -104 c 1,10,11
 39 -116 39 -116 39 -134 c 128,-1,12
 39 -152 39 -152 49 -162.5 c 128,-1,13
 59 -173 59 -173 76 -173 c 0,14,15
 116 -173 116 -173 116 -108 c 0,16,17
 116 -75 116 -75 110 -24.5 c 128,-1,18
 104 26 104 26 104 73 c 2,19,-1
 104 349 l 2,20,21
 104 386 104 386 88.5 399.5 c 128,-1,22
 73 413 73 413 34 415 c 1,23,-1
 37 444 l 1,24,25
 88 453 88 453 170 479 c 1,26,-1
 189 468 l 1,27,-1
 189 -33 l 2,0,1
195 598 m 128,-1,29
 195 540 195 540 142.5 540 c 128,-1,30
 90 540 90 540 90 598 c 128,-1,31
 90 656 90 656 142.5 656 c 128,-1,28
 195 656 195 656 195 598 c 128,-1,29
EndSplineSet
EndChar

StartChar: k
Encoding: 107 107 78
Width: 524
GlyphClass: 2
Flags: W
LayerCount: 2
Fore
SplineSet
94 567 m 2,0,1
 94 604 94 604 78.5 617.5 c 128,-1,2
 63 631 63 631 24 633 c 1,3,-1
 27 663 l 1,4,5
 63 669 63 669 160 697 c 1,6,-1
 179 687 l 1,7,-1
 179 273 l 1,8,-1
 316 411 l 1,9,10
 342 439 342 439 349 467 c 1,11,-1
 482 467 l 1,12,-1
 485 437 l 1,13,14
 416 434 416 434 375 394 c 2,15,-1
 283 302 l 1,16,-1
 433 63 l 1,17,18
 469 43 469 43 525 35 c 1,19,-1
 521 0 l 1,20,-1
 378 0 l 1,21,-1
 225 244 l 1,22,-1
 179 199 l 1,23,-1
 179 62 l 1,24,25
 204 43 204 43 249 35 c 1,26,-1
 245 0 l 1,27,-1
 24 0 l 1,28,-1
 28 37 l 1,29,30
 70 43 70 43 94 62 c 1,31,-1
 94 567 l 2,0,1
EndSplineSet
EndChar

StartChar: l
Encoding: 108 108 79
Width: 271
GlyphClass: 2
Flags: W
LayerCount: 2
Fore
SplineSet
93 567 m 2,0,1
 93 604 93 604 78 617.5 c 128,-1,2
 63 631 63 631 23 633 c 1,3,-1
 26 663 l 1,4,5
 62 669 62 669 159 697 c 1,6,-1
 178 687 l 1,7,-1
 178 62 l 1,8,9
 203 43 203 43 248 35 c 1,10,-1
 244 0 l 1,11,-1
 23 0 l 1,12,-1
 27 37 l 1,13,14
 69 43 69 43 93 62 c 1,15,-1
 93 567 l 2,0,1
EndSplineSet
EndChar

StartChar: m
Encoding: 109 109 80
Width: 832
GlyphClass: 2
Flags: W
LayerCount: 2
Fore
SplineSet
114 347 m 2,0,1
 114 384 114 384 99 397.5 c 128,-1,2
 84 411 84 411 44 413 c 1,3,-1
 47 442 l 1,4,5
 63 445 63 445 170 476 c 1,6,-1
 188 467 l 1,7,-1
 195 415 l 1,8,9
 248 476 248 476 317 476 c 0,10,11
 409 476 409 476 449 414 c 1,12,13
 517 476 517 476 583.5 476 c 128,-1,14
 650 476 650 476 693.5 439.5 c 128,-1,15
 737 403 737 403 737 326 c 2,16,-1
 737 62 l 1,17,18
 761 44 761 44 807 34 c 1,19,-1
 803 0 l 1,20,-1
 584 0 l 1,21,-1
 586 34 l 1,22,23
 624 40 624 40 652 62 c 1,24,-1
 652 329 l 2,25,26
 652 428 652 428 573 428 c 0,27,28
 541 428 541 428 513 408 c 128,-1,29
 485 388 485 388 471 361 c 1,30,-1
 471 62 l 1,31,32
 493 44 493 44 541 34 c 1,33,-1
 537 0 l 1,34,-1
 317 0 l 1,35,-1
 320 34 l 1,36,37
 358 40 358 40 386 62 c 1,38,-1
 386 329 l 2,39,40
 386 428 386 428 307 428 c 0,41,42
 272 428 272 428 241 403.5 c 128,-1,43
 210 379 210 379 200 350 c 1,44,-1
 200 62 l 1,45,46
 223 44 223 44 269 34 c 1,47,-1
 265 0 l 1,48,-1
 44 0 l 1,49,-1
 48 36 l 1,50,51
 90 43 90 43 114 62 c 1,52,-1
 114 347 l 2,0,1
EndSplineSet
EndChar

StartChar: n
Encoding: 110 110 81
Width: 558
GlyphClass: 2
Flags: W
LayerCount: 2
Fore
SplineSet
383 329 m 2,0,1
 383 428 383 428 297 428 c 0,2,3
 263 428 263 428 232 404.5 c 128,-1,4
 201 381 201 381 185 344 c 1,5,-1
 185 62 l 1,6,7
 209 43 209 43 255 34 c 1,8,-1
 251 0 l 1,9,-1
 30 0 l 1,10,-1
 34 36 l 1,11,12
 77 43 77 43 100 62 c 1,13,-1
 100 347 l 2,14,15
 100 384 100 384 84.5 397.5 c 128,-1,16
 69 411 69 411 30 413 c 1,17,-1
 33 442 l 1,18,19
 46 444 46 444 155 476 c 1,20,-1
 173 467 l 1,21,-1
 182 405 l 1,22,23
 205 438 205 438 240.5 457 c 128,-1,24
 276 476 276 476 314 476 c 0,25,26
 387 476 387 476 427.5 439.5 c 128,-1,27
 468 403 468 403 468 338 c 2,28,-1
 468 62 l 1,29,30
 490 44 490 44 538 34 c 1,31,-1
 534 0 l 1,32,-1
 314 0 l 1,33,-1
 317 34 l 1,34,35
 355 40 355 40 383 62 c 1,36,-1
 383 329 l 2,0,1
EndSplineSet
EndChar

StartChar: o
Encoding: 111 111 82
Width: 531
GlyphClass: 2
Flags: W
LayerCount: 2
Fore
SplineSet
143 235 m 128,-1,1
 143 131 143 131 171.5 85 c 128,-1,2
 200 39 200 39 265 39 c 128,-1,3
 330 39 330 39 359.5 85 c 128,-1,4
 389 131 389 131 389 235 c 128,-1,5
 389 339 389 339 360 384.5 c 128,-1,6
 331 430 331 430 265.5 430 c 128,-1,7
 200 430 200 430 171.5 384.5 c 128,-1,0
 143 339 143 339 143 235 c 128,-1,1
53 235 m 128,-1,9
 53 353 53 353 106.5 414.5 c 128,-1,10
 160 476 160 476 265 476 c 128,-1,11
 370 476 370 476 423.5 414.5 c 128,-1,12
 477 353 477 353 477 235 c 128,-1,13
 477 117 477 117 423.5 55 c 128,-1,14
 370 -7 370 -7 265 -7 c 128,-1,15
 160 -7 160 -7 106.5 55 c 128,-1,8
 53 117 53 117 53 235 c 128,-1,9
EndSplineSet
EndChar

StartChar: p
Encoding: 112 112 83
Width: 556
GlyphClass: 2
Flags: W
LayerCount: 2
Fore
SplineSet
105 348 m 2,0,1
 105 385 105 385 90 398.5 c 128,-1,2
 75 412 75 412 36 414 c 1,3,-1
 39 443 l 1,4,5
 52 445 52 445 161 477 c 1,6,-1
 179 467 l 1,7,-1
 188 406 l 1,8,9
 229 476 229 476 319 476 c 0,10,11
 502 476 502 476 502 244 c 0,12,13
 502 122 502 122 444 57.5 c 128,-1,14
 386 -7 386 -7 276 -7 c 0,15,16
 229 -7 229 -7 191 9 c 1,17,-1
 191 -149 l 1,18,19
 216 -168 216 -168 260 -176 c 1,20,-1
 257 -210 l 1,21,-1
 36 -210 l 1,22,-1
 40 -174 l 1,23,24
 79 -169 79 -169 105 -149 c 1,25,-1
 105 348 l 2,0,1
311 433 m 0,26,27
 191 433 191 433 191 245 c 2,28,-1
 191 55 l 1,29,30
 227 35 227 35 285 35 c 128,-1,31
 343 35 343 35 378.5 90 c 128,-1,32
 414 145 414 145 414 243 c 128,-1,33
 414 341 414 341 389 387 c 128,-1,34
 364 433 364 433 311 433 c 0,26,27
EndSplineSet
EndChar

StartChar: q
Encoding: 113 113 84
Width: 547
GlyphClass: 2
Flags: W
LayerCount: 2
Fore
SplineSet
249 -7 m 0,0,1
 60 -7 60 -7 60 232 c 0,2,3
 60 344 60 344 110 410 c 128,-1,4
 160 476 160 476 267 476 c 0,5,6
 327 476 327 476 379 429 c 1,7,-1
 395 467 l 1,8,-1
 448 467 l 1,9,-1
 448 -151 l 1,10,11
 473 -169 473 -169 518 -178 c 1,12,-1
 514 -212 l 1,13,-1
 293 -212 l 1,14,-1
 297 -176 l 1,15,16
 337 -169 337 -169 363 -151 c 1,17,-1
 363 59 l 1,18,19
 321 -7 321 -7 249 -7 c 0,0,1
152.5 302.5 m 128,-1,21
 150 275 150 275 150 231 c 128,-1,22
 150 187 150 187 153 157 c 128,-1,23
 156 127 156 127 166 96 c 0,24,25
 185 35 185 35 249.5 35 c 128,-1,26
 314 35 314 35 338.5 91 c 128,-1,27
 363 147 363 147 363 240 c 2,28,-1
 363 383 l 1,29,30
 314 434 314 434 270 434 c 128,-1,31
 226 434 226 434 201 416.5 c 128,-1,32
 176 399 176 399 165.5 364.5 c 128,-1,20
 155 330 155 330 152.5 302.5 c 128,-1,21
EndSplineSet
EndChar

StartChar: r
Encoding: 114 114 85
Width: 414
GlyphClass: 2
Flags: W
LayerCount: 2
Fore
SplineSet
319 476 m 0,0,1
 355 476 355 476 381.5 455 c 128,-1,2
 408 434 408 434 408 402 c 128,-1,3
 408 370 408 370 393.5 351 c 128,-1,4
 379 332 379 332 358.5 332 c 128,-1,5
 338 332 338 332 323 340.5 c 128,-1,6
 308 349 308 349 304 363 c 1,7,8
 314 373 314 373 314 391 c 0,9,10
 314 421 314 421 286 421 c 128,-1,11
 258 421 258 421 229.5 380.5 c 128,-1,12
 201 340 201 340 201 294 c 2,13,-1
 201 62 l 1,14,15
 228 44 228 44 280 34 c 1,16,-1
 276 0 l 1,17,-1
 46 0 l 1,18,-1
 50 36 l 1,19,20
 91 43 91 43 116 62 c 1,21,-1
 116 347 l 2,22,23
 116 384 116 384 100.5 397.5 c 128,-1,24
 85 411 85 411 46 413 c 1,25,-1
 49 442 l 1,26,27
 62 444 62 444 171 476 c 1,28,-1
 189 467 l 1,29,-1
 199 397 l 1,30,31
 252 476 252 476 319 476 c 0,0,1
EndSplineSet
EndChar

StartChar: s
Encoding: 115 115 86
Width: 430
GlyphClass: 2
Flags: W
LayerCount: 2
Fore
SplineSet
268.5 422 m 128,-1,1
 246 435 246 435 209.5 435 c 128,-1,2
 173 435 173 435 150 417 c 128,-1,3
 127 399 127 399 127 368 c 128,-1,4
 127 337 127 337 153 317 c 128,-1,5
 179 297 179 297 216 284.5 c 128,-1,6
 253 272 253 272 290 257.5 c 128,-1,7
 327 243 327 243 353 212.5 c 128,-1,8
 379 182 379 182 379 136 c 0,9,10
 379 69 379 69 332 31.5 c 128,-1,11
 285 -6 285 -6 200 -6 c 0,12,13
 165 -6 165 -6 119.5 5.5 c 128,-1,14
 74 17 74 17 51 32 c 1,15,-1
 51 155 l 1,16,-1
 104 162 l 1,17,18
 110 89 110 89 131 49 c 1,19,20
 163 39 163 39 206 39 c 128,-1,21
 249 39 249 39 275 61 c 128,-1,22
 301 83 301 83 301 114.5 c 128,-1,23
 301 146 301 146 275.5 165 c 128,-1,24
 250 184 250 184 213.5 195.5 c 128,-1,25
 177 207 177 207 140 221.5 c 128,-1,26
 103 236 103 236 77.5 267.5 c 128,-1,27
 52 299 52 299 52 353 c 128,-1,28
 52 407 52 407 96.5 441 c 128,-1,29
 141 475 141 475 212 475 c 128,-1,30
 283 475 283 475 328.5 446.5 c 128,-1,31
 374 418 374 418 374 377 c 0,32,33
 374 325 374 325 328 325 c 0,34,35
 292 325 292 325 274 352 c 1,36,37
 291 364 291 364 291 386.5 c 128,-1,0
 291 409 291 409 268.5 422 c 128,-1,1
EndSplineSet
EndChar

StartChar: t
Encoding: 116 116 87
Width: 338
GlyphClass: 2
Flags: W
LayerCount: 2
Fore
SplineSet
333 27 m 1,0,1
 283 -10 283 -10 217.5 -10 c 128,-1,2
 152 -10 152 -10 128 18 c 128,-1,3
 104 46 104 46 104 113 c 2,4,-1
 104 413 l 1,5,-1
 23 413 l 1,6,-1
 23 443 l 1,7,8
 120 476 120 476 151 564 c 1,9,-1
 191 564 l 1,10,-1
 191 467 l 1,11,-1
 319 467 l 1,12,-1
 319 413 l 1,13,-1
 190 413 l 1,14,-1
 190 106 l 2,15,16
 190 69 190 69 199.5 53 c 128,-1,17
 209 37 209 37 243 37 c 128,-1,18
 277 37 277 37 313 57 c 1,19,-1
 333 27 l 1,0,1
EndSplineSet
EndChar

StartChar: u
Encoding: 117 117 88
Width: 552
GlyphClass: 2
Flags: W
LayerCount: 2
Fore
SplineSet
254 -7 m 0,0,1
 93 -7 93 -7 93 154 c 2,2,-1
 93 349 l 2,3,4
 93 386 93 386 78 399.5 c 128,-1,5
 63 413 63 413 24 415 c 1,6,-1
 26 444 l 1,7,8
 60 450 60 450 159 479 c 1,9,-1
 179 469 l 1,10,-1
 179 143 l 2,11,12
 179 38 179 38 265 38 c 0,13,14
 291 38 291 38 320 57.5 c 128,-1,15
 349 77 349 77 371 117 c 1,16,-1
 371 349 l 2,17,18
 371 386 371 386 355.5 399.5 c 128,-1,19
 340 413 340 413 301 415 c 1,20,-1
 304 444 l 1,21,22
 338 450 338 450 437 479 c 1,23,-1
 456 469 l 1,24,-1
 456 62 l 1,25,26
 478 43 478 43 525 35 c 1,27,-1
 522 0 l 1,28,-1
 389 0 l 1,29,-1
 379 63 l 1,30,31
 327 -7 327 -7 254 -7 c 0,0,1
EndSplineSet
EndChar

StartChar: v
Encoding: 118 118 89
Width: 504
GlyphClass: 2
Flags: W
LayerCount: 2
Fore
SplineSet
215 0 m 1,0,-1
 70 395 l 2,1,2
 59 425 59 425 -1 437 c 1,3,-1
 1 467 l 1,4,-1
 224 467 l 1,5,-1
 221 437 l 1,6,7
 177 431 177 431 159 415 c 1,8,-1
 265 96 l 1,9,-1
 371 415 l 1,10,11
 350 430 350 430 311 437 c 1,12,-1
 314 467 l 1,13,-1
 504 467 l 1,14,-1
 501 437 l 1,15,16
 441 425 441 425 434 407 c 2,17,-1
 282 0 l 1,18,-1
 215 0 l 1,0,-1
EndSplineSet
EndChar

StartChar: w
Encoding: 119 119 90
Width: 774
GlyphClass: 2
Flags: W
LayerCount: 2
Fore
SplineSet
219 0 m 1,0,-1
 81 395 l 2,1,2
 70 425 70 425 10 437 c 1,3,-1
 12 467 l 1,4,-1
 235 467 l 1,5,-1
 232 437 l 1,6,7
 188 431 188 431 170 415 c 1,8,-1
 266 104 l 1,9,-1
 378 450 l 1,10,-1
 417 450 l 1,11,-1
 539 103 l 1,12,-1
 632 415 l 1,13,14
 613 430 613 430 573 437 c 1,15,-1
 576 467 l 1,16,-1
 765 467 l 1,17,-1
 762 437 l 1,18,19
 702 425 702 425 695 407 c 2,20,-1
 552 0 l 1,21,-1
 491 0 l 1,22,-1
 384 291 l 1,23,-1
 281 0 l 1,24,-1
 219 0 l 1,0,-1
EndSplineSet
EndChar

StartChar: x
Encoding: 120 120 91
Width: 483
GlyphClass: 2
Flags: W
LayerCount: 2
Fore
SplineSet
-3 0 m 1,0,-1
 0 36 l 1,1,2
 54 41 54 41 73 62 c 1,3,-1
 200 229 l 1,4,-1
 73 402 l 2,5,6
 52 431 52 431 11 437 c 1,7,-1
 14 467 l 1,8,-1
 229 467 l 1,9,-1
 224 437 l 1,10,11
 188 434 188 434 163 416 c 1,12,-1
 255 292 l 1,13,-1
 343 409 l 1,14,15
 313 432 313 432 276 437 c 1,16,-1
 279 467 l 1,17,-1
 480 467 l 1,18,-1
 476 437 l 1,19,20
 421 430 421 430 402 405 c 2,21,-1
 285 250 l 1,22,-1
 424 62 l 1,23,24
 443 42 443 42 483 37 c 1,25,-1
 479 0 l 1,26,-1
 263 0 l 1,27,-1
 267 36 l 1,28,29
 313 41 313 41 330 53 c 1,30,-1
 230 188 l 1,31,-1
 131 56 l 1,32,33
 150 41 150 41 198 36 c 1,34,-1
 195 0 l 1,35,-1
 -3 0 l 1,0,-1
EndSplineSet
EndChar

StartChar: y
Encoding: 121 121 92
Width: 504
GlyphClass: 2
Flags: W
LayerCount: 2
Fore
SplineSet
202.5 -187.5 m 128,-1,1
 171 -218 171 -218 127.5 -218 c 128,-1,2
 84 -218 84 -218 58 -196.5 c 128,-1,3
 32 -175 32 -175 32 -144.5 c 128,-1,4
 32 -114 32 -114 46 -99 c 128,-1,5
 60 -84 60 -84 79.5 -84 c 128,-1,6
 99 -84 99 -84 116 -95 c 1,7,8
 104 -112 104 -112 104 -128.5 c 128,-1,9
 104 -145 104 -145 113 -154.5 c 128,-1,10
 122 -164 122 -164 140 -164 c 0,11,12
 177 -164 177 -164 207 -73 c 2,13,-1
 228 -8 l 1,14,-1
 64 394 l 2,15,16
 51 426 51 426 -7 436 c 1,17,-1
 -5 467 l 1,18,-1
 213 467 l 1,19,-1
 210 437 l 1,20,21
 172 434 172 434 151 415 c 1,22,-1
 267 110 l 1,23,-1
 366 415 l 1,24,25
 344 432 344 432 307 437 c 1,26,-1
 309 467 l 1,27,-1
 504 467 l 1,28,-1
 502 437 l 1,29,30
 436 427 436 427 429 407 c 2,31,-1
 259 -84 l 2,32,0
 234 -157 234 -157 202.5 -187.5 c 128,-1,1
EndSplineSet
EndChar

StartChar: z
Encoding: 122 122 93
Width: 455
GlyphClass: 2
Flags: W
LayerCount: 2
Fore
SplineSet
74 469 m 1,0,-1
 247 467 l 2,1,2
 330 467 330 467 398 469 c 1,3,-1
 405 433 l 1,4,-1
 144 46 l 1,5,6
 159 45 159 45 225.5 45 c 128,-1,7
 292 45 292 45 315 46 c 1,8,9
 339 79 339 79 355 138 c 1,10,11
 367 141 367 141 377 141 c 128,-1,12
 387 141 387 141 403 139 c 1,13,-1
 396 21 l 1,14,-1
 377 -3 l 1,15,16
 338 0 338 0 235 0 c 1,17,-1
 52 -4 l 1,18,-1
 44 38 l 1,19,-1
 303 421 l 1,20,21
 247 425 247 425 208.5 425 c 128,-1,22
 170 425 170 425 138 420 c 1,23,24
 117 394 117 394 111 339 c 1,25,26
 98 334 98 334 83.5 334 c 128,-1,27
 69 334 69 334 58 338 c 1,28,-1
 49 448 l 1,29,-1
 74 469 l 1,0,-1
EndSplineSet
EndChar

StartChar: braceleft
Encoding: 123 123 94
Width: 387
GlyphClass: 2
Flags: W
LayerCount: 2
Fore
SplineSet
143 18 m 0,0,1
 143 39 143 39 156 105 c 128,-1,2
 169 171 169 171 169 196 c 128,-1,3
 169 221 169 221 156.5 239 c 128,-1,4
 144 257 144 257 132 262 c 2,5,-1
 120 267 l 1,6,-1
 120 301 l 1,7,8
 124 301 124 301 134.5 307.5 c 128,-1,9
 145 314 145 314 152 322 c 0,10,11
 169 342 169 342 169 369 c 128,-1,12
 169 396 169 396 156 461.5 c 128,-1,13
 143 527 143 527 143 549 c 0,14,15
 143 616 143 616 195 662 c 128,-1,16
 247 708 247 708 317 708 c 1,17,-1
 317 675 l 1,18,19
 269 671 269 671 243 637 c 128,-1,20
 217 603 217 603 217 565.5 c 128,-1,21
 217 528 217 528 226 480.5 c 128,-1,22
 235 433 235 433 235 404 c 0,23,24
 235 323 235 323 189 284 c 1,25,26
 235 245 235 245 235 163 c 0,27,28
 235 134 235 134 226 86.5 c 128,-1,29
 217 39 217 39 217 1.5 c 128,-1,30
 217 -36 217 -36 243 -70.5 c 128,-1,31
 269 -105 269 -105 317 -107 c 1,32,-1
 317 -142 l 1,33,34
 247 -142 247 -142 195 -95.5 c 128,-1,35
 143 -49 143 -49 143 18 c 0,0,1
EndSplineSet
EndChar

StartChar: bar
Encoding: 124 124 95
Width: 316
GlyphClass: 2
Flags: W
LayerCount: 2
Fore
SplineSet
126 -146 m 1,0,-1
 126 754 l 1,1,-1
 190 754 l 1,2,-1
 190 -146 l 1,3,-1
 126 -146 l 1,0,-1
EndSplineSet
EndChar

StartChar: braceright
Encoding: 125 125 96
Width: 387
GlyphClass: 2
Flags: W
LayerCount: 2
Fore
SplineSet
244 18 m 0,0,1
 244 -49 244 -49 192 -95.5 c 128,-1,2
 140 -142 140 -142 70 -142 c 1,3,-1
 70 -107 l 1,4,5
 118 -105 118 -105 144 -70.5 c 128,-1,6
 170 -36 170 -36 170 1.5 c 128,-1,7
 170 39 170 39 161 86.5 c 128,-1,8
 152 134 152 134 152 163 c 0,9,10
 152 245 152 245 198 284 c 1,11,12
 152 323 152 323 152 404 c 0,13,14
 152 433 152 433 161 480.5 c 128,-1,15
 170 528 170 528 170 565.5 c 128,-1,16
 170 603 170 603 144 637 c 128,-1,17
 118 671 118 671 70 675 c 1,18,-1
 70 708 l 1,19,20
 140 708 140 708 192 662 c 128,-1,21
 244 616 244 616 244 549 c 0,22,23
 244 527 244 527 231 461.5 c 128,-1,24
 218 396 218 396 218 376 c 128,-1,25
 218 356 218 356 223 342.5 c 128,-1,26
 228 329 228 329 235 322 c 0,27,28
 249 306 249 306 267 301 c 1,29,-1
 267 267 l 1,30,31
 249 263 249 263 233.5 242 c 128,-1,32
 218 221 218 221 218 196 c 128,-1,33
 218 171 218 171 231 105 c 128,-1,34
 244 39 244 39 244 18 c 0,0,1
EndSplineSet
EndChar

StartChar: asciitilde
Encoding: 126 126 97
Width: 712
GlyphClass: 2
Flags: W
LayerCount: 2
Fore
SplineSet
254 342 m 0,0,1
 286 342 286 342 369.5 317.5 c 128,-1,2
 453 293 453 293 480 293 c 0,3,4
 530 293 530 293 585 333 c 1,5,6
 597 326 597 326 606 314 c 1,7,8
 586 283 586 283 551 257 c 128,-1,9
 516 231 516 231 474.5 231 c 128,-1,10
 433 231 433 231 348 256 c 128,-1,11
 263 281 263 281 230 281 c 0,12,13
 180 281 180 281 127 241 c 1,14,15
 114 248 114 248 106 262 c 1,16,17
 175 342 175 342 254 342 c 0,0,1
EndSplineSet
EndChar

StartChar: exclamdown
Encoding: 161 161 99
Width: 286
GlyphClass: 2
Flags: W
LayerCount: 2
Fore
SplineSet
163 263 m 1,0,-1
 160 61 l 1,1,2
 160 -99 160 -99 179 -180 c 1,3,4
 158 -197 158 -197 120 -197 c 0,5,6
 64 -197 64 -197 64 -122 c 0,7,8
 64 -88 64 -88 85 51 c 128,-1,9
 106 190 106 190 111 254 c 1,10,-1
 163 263 l 1,0,-1
134 487 m 128,-1,12
 187 487 187 487 187 429 c 128,-1,13
 187 371 187 371 134 371 c 128,-1,14
 81 371 81 371 81 429 c 128,-1,11
 81 487 81 487 134 487 c 128,-1,12
EndSplineSet
EndChar

StartChar: cent
Encoding: 162 162 100
Width: 441
GlyphClass: 2
Flags: W
LayerCount: 2
Fore
SplineSet
411 369 m 0,0,1
 411 346 411 346 395.5 329 c 128,-1,2
 380 312 380 312 359.5 312 c 128,-1,3
 339 312 339 312 325 321.5 c 128,-1,4
 311 331 311 331 306 346 c 1,5,6
 318 366 318 366 318 386.5 c 128,-1,7
 318 407 318 407 301.5 421 c 128,-1,8
 285 435 285 435 260 437 c 1,9,-1
 260 82 l 1,10,11
 293 83 293 83 324 95 c 128,-1,12
 355 107 355 107 370 118 c 2,13,-1
 385 129 l 1,14,-1
 411 99 l 1,15,16
 404 92 404 92 391.5 81 c 128,-1,17
 379 70 379 70 339.5 51.5 c 128,-1,18
 300 33 300 33 260 32 c 1,19,-1
 260 -58 l 1,20,-1
 254 -64 l 1,21,22
 242 -64 242 -64 220 -60 c 1,23,-1
 220 33 l 1,24,25
 132 41 132 41 87 96.5 c 128,-1,26
 42 152 42 152 42 249 c 128,-1,27
 42 346 42 346 87.5 403.5 c 128,-1,28
 133 461 133 461 220 471 c 1,29,-1
 220 562 l 1,30,-1
 226 569 l 1,31,32
 242 569 242 569 260 564 c 1,33,-1
 260 473 l 1,34,35
 327 472 327 472 369 442.5 c 128,-1,36
 411 413 411 413 411 369 c 0,0,1
135 250 m 0,37,38
 135 106 135 106 220 85 c 1,39,-1
 220 433 l 1,40,41
 170 421 170 421 152.5 374.5 c 128,-1,42
 135 328 135 328 135 250 c 0,37,38
EndSplineSet
EndChar

StartChar: sterling
Encoding: 163 163 101
Width: 528
GlyphClass: 2
Flags: W
LayerCount: 2
Fore
SplineSet
110 468 m 0,0,1
 110 568 110 568 162.5 621.5 c 128,-1,2
 215 675 215 675 311 675 c 0,3,4
 375 675 375 675 423.5 645 c 128,-1,5
 472 615 472 615 472 557 c 0,6,7
 472 526 472 526 455.5 506.5 c 128,-1,8
 439 487 439 487 418.5 487 c 128,-1,9
 398 487 398 487 382.5 496.5 c 128,-1,10
 367 506 367 506 362 520 c 1,11,12
 380 544 380 544 380 569 c 128,-1,13
 380 594 380 594 359.5 610.5 c 128,-1,14
 339 627 339 627 303 627 c 0,15,16
 200 627 200 627 200 476 c 0,17,18
 200 426 200 426 220 348 c 1,19,-1
 369 348 l 1,20,21
 374 328 374 328 374 314 c 1,22,-1
 367 308 l 1,23,-1
 231 308 l 1,24,25
 247 242 247 242 247 196 c 128,-1,26
 247 150 247 150 230 104 c 1,27,28
 307 76 307 76 375 76 c 0,29,30
 402 76 402 76 410.5 90.5 c 128,-1,31
 419 105 419 105 419 133 c 2,32,-1
 419 151 l 1,33,34
 448 150 448 150 468.5 131.5 c 128,-1,35
 489 113 489 113 489 83 c 0,36,37
 489 -7 489 -7 381 -7 c 0,38,39
 338 -7 338 -7 310.5 6 c 128,-1,40
 283 19 283 19 274 23 c 0,41,42
 253 32 253 32 210 61 c 1,43,44
 166 -7 166 -7 100 -7 c 0,45,46
 64 -7 64 -7 39.5 10.5 c 128,-1,47
 15 28 15 28 15 61 c 128,-1,48
 15 94 15 94 40.5 115 c 128,-1,49
 66 136 66 136 100 136 c 128,-1,50
 134 136 134 136 167 125 c 1,51,52
 168 132 168 132 168 148 c 0,53,54
 168 201 168 201 139 308 c 1,55,-1
 53 308 l 1,56,57
 48 326 48 326 48 341 c 1,58,-1
 55 348 l 1,59,-1
 129 348 l 1,60,61
 110 432 110 432 110 468 c 0,0,1
99 32 m 0,62,63
 146 32 146 32 161 87 c 1,64,65
 130 99 130 99 104 99 c 0,66,67
 61 99 61 99 61 62 c 0,68,69
 61 32 61 32 99 32 c 0,62,63
EndSplineSet
EndChar

StartChar: currency
Encoding: 164 164 102
Width: 544
GlyphClass: 2
Flags: W
LayerCount: 2
Fore
SplineSet
132 170 m 1,0,1
 91 217 91 217 91 294.5 c 128,-1,2
 91 372 91 372 134 421 c 1,3,-1
 74 486 l 1,4,-1
 113 524 l 1,5,-1
 178 454 l 1,6,7
 219 476 219 476 271 476 c 128,-1,8
 323 476 323 476 365 455 c 1,9,-1
 431 524 l 1,10,-1
 470 486 l 1,11,-1
 409 421 l 1,12,13
 452 370 452 370 452 294.5 c 128,-1,14
 452 219 452 219 411 170 c 1,15,-1
 470 105 l 1,16,-1
 431 68 l 1,17,-1
 370 136 l 1,18,19
 330 112 330 112 272.5 112 c 128,-1,20
 215 112 215 112 173 136 c 1,21,-1
 113 68 l 1,22,-1
 74 105 l 1,23,-1
 132 170 l 1,0,1
272 153 m 128,-1,25
 330 153 330 153 358.5 190 c 128,-1,26
 387 227 387 227 387 293.5 c 128,-1,27
 387 360 387 360 358.5 397.5 c 128,-1,28
 330 435 330 435 272 435 c 0,29,30
 156 435 156 435 156 294 c 0,31,32
 156 227 156 227 185 190 c 128,-1,24
 214 153 214 153 272 153 c 128,-1,25
EndSplineSet
EndChar

StartChar: yen
Encoding: 165 165 103
Width: 609
GlyphClass: 2
Flags: W
LayerCount: 2
Fore
SplineSet
233 384 m 1,0,-1
 233 345 l 1,1,-1
 99 345 l 1,2,3
 94 362 94 362 94 378 c 1,4,-1
 101 384 l 1,5,-1
 233 384 l 1,0,-1
101 281 m 1,6,-1
 510 281 l 1,7,8
 514 268 514 268 514 248 c 1,9,-1
 508 242 l 1,10,-1
 99 242 l 1,11,12
 94 259 94 259 94 275 c 1,13,-1
 101 281 l 1,6,-1
376 384 m 1,14,-1
 376 345 l 1,15,-1
 508 345 l 1,16,-1
 514 351 l 1,17,18
 514 369 514 369 510 384 c 1,19,-1
 376 384 l 1,14,-1
162 0 m 1,20,-1
 167 37 l 1,21,22
 229 44 229 44 264 64 c 1,23,-1
 264 265 l 1,24,-1
 94 605 l 1,25,26
 70 623 70 623 32 631 c 1,27,-1
 37 667 l 1,28,-1
 284 667 l 1,29,30
 280 643 280 643 279 631 c 1,31,32
 227 624 227 624 192 604 c 1,33,-1
 317 343 l 1,34,-1
 445 605 l 1,35,36
 407 625 407 625 356 631 c 1,37,38
 357 643 357 643 361 667 c 1,39,-1
 581 667 l 1,40,-1
 575 631 l 1,41,42
 539 624 539 624 514 605 c 1,43,-1
 352 277 l 1,44,-1
 352 64 l 1,45,46
 386 45 386 45 454 37 c 1,47,-1
 450 0 l 1,48,-1
 162 0 l 1,20,-1
EndSplineSet
EndChar

StartChar: brokenbar
Encoding: 166 166 104
Width: 316
GlyphClass: 2
Flags: W
LayerCount: 2
Fore
SplineSet
126 398 m 1,0,-1
 126 754 l 1,1,-1
 190 754 l 1,2,-1
 190 398 l 1,3,-1
 126 398 l 1,0,-1
126 -146 m 1,4,-1
 126 210 l 1,5,-1
 190 210 l 1,6,-1
 190 -146 l 1,7,-1
 126 -146 l 1,4,-1
EndSplineSet
EndChar

StartChar: section
Encoding: 167 167 105
Width: 500
GlyphClass: 2
Flags: W
LayerCount: 2
Fore
SplineSet
369 81 m 1,0,1
 390 107 390 107 390 150.5 c 128,-1,2
 390 194 390 194 373 232.5 c 128,-1,3
 356 271 356 271 330.5 299.5 c 128,-1,4
 305 328 305 328 274.5 361.5 c 128,-1,5
 244 395 244 395 218 424.5 c 128,-1,6
 192 454 192 454 173.5 494 c 128,-1,7
 155 534 155 534 153 576 c 1,8,9
 132 553 132 553 132 508.5 c 128,-1,10
 132 464 132 464 156.5 422.5 c 128,-1,11
 181 381 181 381 216 344 c 128,-1,12
 251 307 251 307 286 268 c 0,13,14
 369 174 369 174 369 81 c 1,0,1
443 148 m 0,15,16
 443 66 443 66 387.5 17.5 c 128,-1,17
 332 -31 332 -31 250.5 -31 c 128,-1,18
 169 -31 169 -31 125.5 1 c 128,-1,19
 82 33 82 33 82 87 c 0,20,21
 82 117 82 117 97 137 c 128,-1,22
 112 157 112 157 143 157 c 128,-1,23
 174 157 174 157 193 128 c 1,24,25
 171 106 171 106 171 74.5 c 128,-1,26
 171 43 171 43 191 27.5 c 128,-1,27
 211 12 211 12 244 12 c 0,28,29
 315 12 315 12 315 85 c 0,30,31
 315 154 315 154 241 242 c 0,32,33
 227 258 227 258 192.5 297 c 128,-1,34
 158 336 158 336 137.5 363.5 c 128,-1,35
 117 391 117 391 97.5 433.5 c 128,-1,36
 78 476 78 476 78 517 c 0,37,38
 78 599 78 599 132 648 c 128,-1,39
 186 697 186 697 267 697 c 128,-1,40
 348 697 348 697 390 664 c 128,-1,41
 432 631 432 631 432 576 c 0,42,43
 432 545 432 545 418 527 c 128,-1,44
 404 509 404 509 373.5 509 c 128,-1,45
 343 509 343 509 324 537 c 1,46,47
 346 559 346 559 346 591 c 0,48,49
 346 653 346 653 274 653 c 0,50,51
 205 653 205 653 205 580 c 0,52,53
 205 546 205 546 218.5 515 c 128,-1,54
 232 484 232 484 248 465 c 128,-1,55
 264 446 264 446 295 411.5 c 128,-1,56
 326 377 326 377 336.5 364 c 128,-1,57
 347 351 347 351 366.5 327.5 c 128,-1,58
 386 304 386 304 391 296.5 c 128,-1,59
 396 289 396 289 410 267.5 c 128,-1,60
 424 246 424 246 428 232 c 0,61,62
 443 185 443 185 443 148 c 0,15,16
EndSplineSet
EndChar

StartChar: dieresis
Encoding: 168 168 106
Width: 285
GlyphClass: 2
Flags: W
LayerCount: 2
Fore
SplineSet
59 552 m 128,-1,1
 12 552 12 552 12 604.5 c 128,-1,2
 12 657 12 657 59 657 c 128,-1,3
 106 657 106 657 106 604.5 c 128,-1,0
 106 552 106 552 59 552 c 128,-1,1
225 552 m 0,4,5
 179 552 179 552 179 604.5 c 128,-1,6
 179 657 179 657 225 657 c 0,7,8
 273 657 273 657 273 604.5 c 128,-1,9
 273 552 273 552 225 552 c 0,4,5
EndSplineSet
EndChar

StartChar: copyright
Encoding: 169 169 107
Width: 851
GlyphClass: 2
Flags: W
LayerCount: 2
Fore
SplineSet
251.5 481 m 128,-1,1
 179 407 179 407 179 303.5 c 128,-1,2
 179 200 179 200 251.5 126.5 c 128,-1,3
 324 53 324 53 425 53 c 128,-1,4
 526 53 526 53 598.5 126.5 c 128,-1,5
 671 200 671 200 671 303.5 c 128,-1,6
 671 407 671 407 598.5 481 c 128,-1,7
 526 555 526 555 425 555 c 128,-1,0
 324 555 324 555 251.5 481 c 128,-1,1
219.5 100 m 128,-1,9
 135 184 135 184 135 303.5 c 128,-1,10
 135 423 135 423 219.5 507.5 c 128,-1,11
 304 592 304 592 425 592 c 128,-1,12
 546 592 546 592 631 507.5 c 128,-1,13
 716 423 716 423 716 304 c 128,-1,14
 716 185 716 185 631 100.5 c 128,-1,15
 546 16 546 16 425 16 c 128,-1,8
 304 16 304 16 219.5 100 c 128,-1,9
430 127 m 0,16,17
 350 127 350 127 313 169 c 128,-1,18
 276 211 276 211 276 301 c 0,19,20
 276 476 276 476 433 476 c 0,21,22
 483 476 483 476 514.5 454.5 c 128,-1,23
 546 433 546 433 546 399 c 0,24,25
 546 382 546 382 534.5 368.5 c 128,-1,26
 523 355 523 355 507 355 c 0,27,28
 475 355 475 355 468 382 c 1,29,30
 478 397 478 397 478 411.5 c 128,-1,31
 478 426 478 426 465.5 437.5 c 128,-1,32
 453 449 453 449 433 449 c 0,33,34
 387 449 387 449 366 413.5 c 128,-1,35
 345 378 345 378 345 301 c 128,-1,36
 345 224 345 224 364.5 191 c 128,-1,37
 384 158 384 158 430 158 c 0,38,39
 490 158 490 158 513 221 c 1,40,-1
 543 211 l 1,41,42
 531 173 531 173 500.5 150 c 128,-1,43
 470 127 470 127 430 127 c 0,16,17
EndSplineSet
EndChar

StartChar: ordfeminine
Encoding: 170 170 108
Width: 417
GlyphClass: 2
Flags: W
LayerCount: 2
Fore
SplineSet
244 369 m 1,0,1
 210 340 210 340 162.5 340 c 128,-1,2
 115 340 115 340 92 360.5 c 128,-1,3
 69 381 69 381 69 418 c 0,4,5
 69 505 69 505 193 516 c 2,6,-1
 240 520 l 1,7,-1
 240 568 l 2,8,9
 240 603 240 603 228.5 618.5 c 128,-1,10
 217 634 217 634 193 634 c 128,-1,11
 169 634 169 634 156 626.5 c 128,-1,12
 143 619 143 619 143 606 c 128,-1,13
 143 593 143 593 154 581 c 1,14,15
 151 550 151 550 117 550 c 0,16,17
 100 550 100 550 88 560 c 128,-1,18
 76 570 76 570 76 588 c 0,19,20
 76 623 76 623 108.5 644 c 128,-1,21
 141 665 141 665 194.5 665 c 128,-1,22
 248 665 248 665 277.5 639 c 128,-1,23
 307 613 307 613 307 568 c 2,24,-1
 307 387 l 1,25,26
 320 378 320 378 354 371 c 1,27,-1
 351 345 l 1,28,-1
 250 345 l 1,29,-1
 244 369 l 1,0,1
137 423 m 0,30,31
 137 372 137 372 178 372 c 0,32,33
 209 372 209 372 240 398 c 1,34,-1
 240 488 l 1,35,-1
 196 485 l 2,36,37
 169 483 169 483 153 466 c 128,-1,38
 137 449 137 449 137 423 c 0,30,31
69 256 m 1,39,-1
 69 290 l 1,40,-1
 352 290 l 1,41,-1
 352 256 l 1,42,-1
 69 256 l 1,39,-1
EndSplineSet
EndChar

StartChar: guillemotleft
Encoding: 171 171 109
Width: 488
GlyphClass: 2
Flags: W
LayerCount: 2
Fore
SplineSet
198 43 m 1,0,-1
 38 241 l 1,1,-1
 198 439 l 1,2,-1
 237 415 l 1,3,-1
 137 241 l 1,4,-1
 237 68 l 1,5,-1
 198 43 l 1,0,-1
385 43 m 1,6,-1
 225 241 l 1,7,-1
 385 439 l 1,8,-1
 424 415 l 1,9,-1
 324 241 l 1,10,-1
 424 68 l 1,11,-1
 385 43 l 1,6,-1
EndSplineSet
EndChar

StartChar: logicalnot
Encoding: 172 172 110
Width: 554
GlyphClass: 2
Flags: W
LayerCount: 2
Fore
SplineSet
478 398 m 1,0,-1
 478 177 l 1,1,-1
 418 177 l 1,2,-1
 418 345 l 1,3,-1
 39 345 l 1,4,-1
 39 398 l 1,5,-1
 478 398 l 1,0,-1
EndSplineSet
EndChar

StartChar: uni00AD
Encoding: 173 173 111
Width: 332
GlyphClass: 2
Flags: W
LayerCount: 2
Fore
SplineSet
52 231 m 1,0,-1
 52 285 l 1,1,-1
 281 285 l 1,2,-1
 281 231 l 1,3,-1
 52 231 l 1,0,-1
EndSplineSet
EndChar

StartChar: registered
Encoding: 174 174 112
Width: 851
GlyphClass: 2
Flags: W
LayerCount: 2
Fore
SplineSet
394 297 m 1,0,-1
 394 194 l 1,1,-1
 436 185 l 1,2,-1
 433 160 l 1,3,-1
 294 160 l 1,4,-1
 297 185 l 1,5,-1
 337 194 l 1,6,-1
 337 430 l 1,7,-1
 294 442 l 1,8,-1
 297 467 l 1,9,-1
 427 467 l 2,10,11
 539 467 539 467 539 383 c 0,12,13
 539 325 539 325 477 308 c 1,14,15
 495 295 495 295 503 275 c 1,16,-1
 540 194 l 1,17,-1
 575 186 l 1,18,-1
 571 160 l 1,19,-1
 489 160 l 1,20,-1
 450 261 l 2,21,22
 441 285 441 285 430.5 291 c 128,-1,23
 420 297 420 297 394 297 c 1,0,-1
427 437 m 2,24,-1
 394 437 l 1,25,-1
 394 330 l 1,26,-1
 408 330 l 2,27,28
 481 330 481 330 481 383 c 0,29,30
 481 409 481 409 466.5 423 c 128,-1,31
 452 437 452 437 427 437 c 2,24,-1
251.5 481 m 128,-1,33
 179 407 179 407 179 303.5 c 128,-1,34
 179 200 179 200 251.5 126.5 c 128,-1,35
 324 53 324 53 425 53 c 128,-1,36
 526 53 526 53 598.5 126.5 c 128,-1,37
 671 200 671 200 671 303.5 c 128,-1,38
 671 407 671 407 598.5 481 c 128,-1,39
 526 555 526 555 425 555 c 128,-1,32
 324 555 324 555 251.5 481 c 128,-1,33
219.5 100 m 128,-1,41
 135 184 135 184 135 303.5 c 128,-1,42
 135 423 135 423 219.5 507.5 c 128,-1,43
 304 592 304 592 425 592 c 128,-1,44
 546 592 546 592 631 507.5 c 128,-1,45
 716 423 716 423 716 304 c 128,-1,46
 716 185 716 185 631 100.5 c 128,-1,47
 546 16 546 16 425 16 c 128,-1,40
 304 16 304 16 219.5 100 c 128,-1,41
EndSplineSet
EndChar

StartChar: macron
Encoding: 175 175 113
Width: 285
GlyphClass: 2
Flags: W
LayerCount: 2
Fore
SplineSet
3 570 m 1,0,-1
 3 614 l 1,1,-1
 281 614 l 1,2,-1
 281 570 l 1,3,-1
 3 570 l 1,0,-1
EndSplineSet
EndChar

StartChar: degree
Encoding: 176 176 114
Width: 375
GlyphClass: 2
Flags: W
LayerCount: 2
Fore
SplineSet
87 430 m 128,-1,1
 47 470 47 470 47 527.5 c 128,-1,2
 47 585 47 585 87 625 c 128,-1,3
 127 665 127 665 187.5 665 c 128,-1,4
 248 665 248 665 288 625 c 128,-1,5
 328 585 328 585 328 527.5 c 128,-1,6
 328 470 328 470 288 430 c 128,-1,7
 248 390 248 390 187.5 390 c 128,-1,0
 127 390 127 390 87 430 c 128,-1,1
116 527 m 128,-1,9
 116 483 116 483 134.5 454 c 128,-1,10
 153 425 153 425 187.5 425 c 128,-1,11
 222 425 222 425 240.5 454 c 128,-1,12
 259 483 259 483 259 527 c 128,-1,13
 259 571 259 571 240.5 600 c 128,-1,14
 222 629 222 629 187.5 629 c 128,-1,15
 153 629 153 629 134.5 600 c 128,-1,8
 116 571 116 571 116 527 c 128,-1,9
EndSplineSet
EndChar

StartChar: plusminus
Encoding: 177 177 115
Width: 554
GlyphClass: 2
Flags: W
LayerCount: 2
Fore
SplineSet
72 327 m 1,0,-1
 72 380 l 1,1,-1
 244 380 l 1,2,-1
 244 558 l 1,3,-1
 304 558 l 1,4,-1
 304 380 l 1,5,-1
 481 380 l 1,6,-1
 481 327 l 1,7,-1
 304 327 l 1,8,-1
 304 150 l 1,9,-1
 244 150 l 1,10,-1
 244 327 l 1,11,-1
 72 327 l 1,0,-1
75 27 m 1,12,-1
 75 80 l 1,13,-1
 475 80 l 1,14,-1
 475 27 l 1,15,-1
 75 27 l 1,12,-1
EndSplineSet
EndChar

StartChar: twosuperior
Encoding: 178 178 116
Width: 407
GlyphClass: 2
Flags: W
LayerCount: 2
Fore
SplineSet
326 459 m 1,0,-1
 326 405 l 1,1,-1
 46 405 l 1,2,-1
 46 447 l 1,3,4
 156 541 156 541 198 597 c 128,-1,5
 240 653 240 653 240 703 c 0,6,7
 240 772 240 772 176 772 c 0,8,9
 147 772 147 772 130 760 c 128,-1,10
 113 748 113 748 113 729.5 c 128,-1,11
 113 711 113 711 130 692 c 1,12,13
 110 674 110 674 90.5 674 c 128,-1,14
 71 674 71 674 58 686.5 c 128,-1,15
 45 699 45 699 45 724 c 0,16,17
 45 768 45 768 82.5 790 c 128,-1,18
 120 812 120 812 180 812 c 128,-1,19
 240 812 240 812 274.5 782.5 c 128,-1,20
 309 753 309 753 309 699.5 c 128,-1,21
 309 646 309 646 268 590 c 128,-1,22
 227 534 227 534 132 459 c 1,23,-1
 326 459 l 1,0,-1
EndSplineSet
EndChar

StartChar: threesuperior
Encoding: 179 179 117
Width: 407
GlyphClass: 2
Flags: W
LayerCount: 2
Fore
SplineSet
142 599 m 1,0,-1
 142 635 l 1,1,2
 246 638 246 638 246 711 c 0,3,4
 246 772 246 772 187 772 c 0,5,6
 160 772 160 772 144 760 c 128,-1,7
 128 748 128 748 128 732.5 c 128,-1,8
 128 717 128 717 138 704 c 1,9,10
 117 689 117 689 100 689 c 0,11,12
 64 689 64 689 64 733 c 0,13,14
 64 766 64 766 100 789 c 128,-1,15
 136 812 136 812 190.5 812 c 128,-1,16
 245 812 245 812 279.5 784 c 128,-1,17
 314 756 314 756 314 711 c 0,18,19
 314 645 314 645 241 618 c 1,20,21
 319 592 319 592 319 517 c 0,22,23
 319 465 319 465 281 433 c 128,-1,24
 243 401 243 401 181 401 c 128,-1,25
 119 401 119 401 83 424 c 128,-1,26
 47 447 47 447 47 487 c 0,27,28
 47 504 47 504 58.5 514.5 c 128,-1,29
 70 525 70 525 88 525 c 128,-1,30
 106 525 106 525 125 512 c 1,31,32
 118 498 118 498 118 481.5 c 128,-1,33
 118 465 118 465 136.5 452.5 c 128,-1,34
 155 440 155 440 186.5 440 c 128,-1,35
 218 440 218 440 236 460.5 c 128,-1,36
 254 481 254 481 254 518.5 c 128,-1,37
 254 556 254 556 224.5 577.5 c 128,-1,38
 195 599 195 599 142 599 c 1,0,-1
EndSplineSet
EndChar

StartChar: acute
Encoding: 180 180 118
Width: 285
GlyphClass: 2
Flags: W
LayerCount: 2
Fore
SplineSet
150 664 m 2,0,1
 163 681 163 681 179.5 681 c 128,-1,2
 196 681 196 681 207 670.5 c 128,-1,3
 218 660 218 660 218 644.5 c 128,-1,4
 218 629 218 629 193 607 c 1,5,-1
 89 524 l 1,6,-1
 67 548 l 1,7,-1
 150 664 l 2,0,1
EndSplineSet
EndChar

StartChar: mu
Encoding: 181 181 119
Width: 544
GlyphClass: 2
Flags: W
LayerCount: 2
Fore
SplineSet
365 349 m 2,0,1
 365 386 365 386 349.5 399.5 c 128,-1,2
 334 413 334 413 295 415 c 1,3,-1
 298 444 l 1,4,5
 332 450 332 450 431 479 c 1,6,-1
 450 469 l 1,7,-1
 450 62 l 1,8,9
 473 43 473 43 520 35 c 1,10,-1
 516 0 l 1,11,-1
 383 0 l 1,12,-1
 373 63 l 1,13,14
 320 -7 320 -7 248 -7 c 0,15,16
 209 -7 209 -7 173 5 c 1,17,-1
 173 -205 l 1,18,-1
 87 -205 l 1,19,-1
 87 349 l 2,20,21
 87 386 87 386 72 399.5 c 128,-1,22
 57 413 57 413 18 415 c 1,23,-1
 21 444 l 1,24,25
 54 450 54 450 153 479 c 1,26,-1
 173 469 l 1,27,-1
 173 143 l 2,28,29
 173 38 173 38 259 38 c 0,30,31
 321 38 321 38 365 117 c 1,32,-1
 365 349 l 2,0,1
EndSplineSet
EndChar

StartChar: paragraph
Encoding: 182 182 120
Width: 588
GlyphClass: 2
Flags: W
LayerCount: 2
Fore
SplineSet
301 314 m 1,0,1
 188 314 188 314 127.5 352 c 128,-1,2
 67 390 67 390 67 484.5 c 128,-1,3
 67 579 67 579 128 618 c 128,-1,4
 189 657 189 657 301 657 c 2,5,-1
 521 657 l 1,6,-1
 516 620 l 1,7,8
 458 613 458 613 426 593 c 1,9,-1
 426 0 l 2,10,11
 426 -47 426 -47 413 -81.5 c 128,-1,12
 400 -116 400 -116 381.5 -134 c 128,-1,13
 363 -152 363 -152 338 -163 c 0,14,15
 303 -179 303 -179 261 -179 c 0,16,17
 146 -179 146 -179 146 -97 c 0,18,19
 146 -70 146 -70 161 -53.5 c 128,-1,20
 176 -37 176 -37 201 -37 c 128,-1,21
 226 -37 226 -37 238 -62 c 1,22,23
 220 -78 220 -78 220 -99.5 c 128,-1,24
 220 -121 220 -121 231.5 -132 c 128,-1,25
 243 -143 243 -143 261.5 -143 c 128,-1,26
 280 -143 280 -143 290.5 -128 c 128,-1,27
 301 -113 301 -113 301 -91 c 2,28,-1
 301 314 l 1,0,1
166 485 m 0,29,30
 166 424 166 424 202.5 391 c 128,-1,31
 239 358 239 358 301 358 c 1,32,-1
 301 613 l 1,33,34
 166 613 166 613 166 485 c 0,29,30
349 -78 m 2,35,36
 349 -116 349 -116 333 -132 c 1,37,38
 385 -117 385 -117 385 -47 c 2,39,-1
 385 612 l 1,40,-1
 349 615 l 1,41,-1
 349 -78 l 2,35,36
EndSplineSet
EndChar

StartChar: periodcentered
Encoding: 183 183 121
Width: 282
GlyphClass: 2
Flags: W
LayerCount: 2
Fore
SplineSet
141 351 m 128,-1,1
 194 351 194 351 194 293 c 128,-1,2
 194 235 194 235 141 235 c 128,-1,3
 88 235 88 235 88 293 c 128,-1,0
 88 351 88 351 141 351 c 128,-1,1
EndSplineSet
EndChar

StartChar: cedilla
Encoding: 184 184 122
Width: 285
GlyphClass: 2
Flags: W
LayerCount: 2
Fore
SplineSet
211.5 -71 m 128,-1,1
 231 -89 231 -89 231 -123.5 c 128,-1,2
 231 -158 231 -158 204 -181 c 128,-1,3
 177 -204 177 -204 134 -204 c 128,-1,4
 91 -204 91 -204 68 -184 c 128,-1,5
 45 -164 45 -164 45 -143 c 128,-1,6
 45 -122 45 -122 54 -110.5 c 128,-1,7
 63 -99 63 -99 75 -99 c 128,-1,8
 87 -99 87 -99 96 -103 c 1,9,10
 92 -117 92 -117 92 -130.5 c 128,-1,11
 92 -144 92 -144 105 -157.5 c 128,-1,12
 118 -171 118 -171 137 -171 c 0,13,14
 180 -171 180 -171 180 -121 c 0,15,16
 180 -84 180 -84 125 -76 c 1,17,-1
 107 -56 l 1,18,-1
 147 9 l 1,19,-1
 173 4 l 1,20,-1
 155 -46 l 1,21,0
 192 -53 192 -53 211.5 -71 c 128,-1,1
EndSplineSet
EndChar

StartChar: onesuperior
Encoding: 185 185 123
Width: 407
GlyphClass: 2
Flags: W
LayerCount: 2
Fore
SplineSet
180 743 m 1,0,-1
 92 743 l 1,1,-1
 92 779 l 1,2,3
 162 785 162 785 219 812 c 1,4,-1
 245 802 l 1,5,-1
 245 452 l 1,6,7
 273 439 273 439 327 435 c 1,8,-1
 324 405 l 1,9,-1
 89 405 l 1,10,-1
 91 435 l 1,11,12
 153 442 153 442 180 452 c 1,13,-1
 180 743 l 1,0,-1
EndSplineSet
EndChar

StartChar: ordmasculine
Encoding: 186 186 124
Width: 428
GlyphClass: 2
Flags: W
LayerCount: 2
Fore
SplineSet
135 502 m 128,-1,1
 135 435 135 435 152.5 405 c 128,-1,2
 170 375 170 375 208.5 375 c 128,-1,3
 247 375 247 375 265 405 c 128,-1,4
 283 435 283 435 283 502 c 128,-1,5
 283 569 283 569 265 599 c 128,-1,6
 247 629 247 629 208.5 629 c 128,-1,7
 170 629 170 629 152.5 599 c 128,-1,0
 135 569 135 569 135 502 c 128,-1,1
66 502 m 0,8,9
 66 581 66 581 102 623 c 128,-1,10
 138 665 138 665 208.5 665 c 128,-1,11
 279 665 279 665 315.5 623 c 128,-1,12
 352 581 352 581 352 502 c 0,13,14
 352 340 352 340 208 340 c 0,15,16
 66 340 66 340 66 502 c 0,8,9
66 256 m 1,17,-1
 66 290 l 1,18,-1
 353 290 l 1,19,-1
 353 256 l 1,20,-1
 66 256 l 1,17,-1
EndSplineSet
EndChar

StartChar: guillemotright
Encoding: 187 187 125
Width: 488
GlyphClass: 2
Flags: W
LayerCount: 2
Fore
SplineSet
263 241 m 1,0,-1
 103 43 l 1,1,-1
 64 68 l 1,2,-1
 163 241 l 1,3,-1
 64 415 l 1,4,-1
 103 439 l 1,5,-1
 263 241 l 1,0,-1
450 241 m 1,6,-1
 290 43 l 1,7,-1
 251 68 l 1,8,-1
 350 241 l 1,9,-1
 251 415 l 1,10,-1
 290 439 l 1,11,-1
 450 241 l 1,6,-1
EndSplineSet
EndChar

StartChar: onequarter
Encoding: 188 188 126
Width: 865
GlyphClass: 2
Flags: W
LayerCount: 2
Fore
SplineSet
282 -32 m 1,0,-1
 232 -6 l 1,1,-1
 542 680 l 1,2,-1
 593 657 l 1,3,-1
 282 -32 l 1,0,-1
167 609 m 1,4,-1
 90 609 l 1,5,-1
 90 637 l 1,6,7
 158 649 158 649 205 672 c 1,8,-1
 230 662 l 1,9,-1
 230 339 l 1,10,-1
 293 323 l 1,11,-1
 291 295 l 1,12,-1
 95 295 l 1,13,-1
 98 323 l 1,14,-1
 167 339 l 1,15,-1
 167 609 l 1,4,-1
679 131 m 1,16,-1
 679 231 l 1,17,18
 714 231 714 231 722 256 c 1,19,-1
 744 256 l 1,20,-1
 744 130 l 1,21,-1
 799 121 l 1,22,-1
 799 91 l 1,23,-1
 742 91 l 1,24,-1
 742 0 l 1,25,-1
 679 0 l 1,26,-1
 679 91 l 1,27,-1
 503 91 l 1,28,-1
 497 116 l 1,29,-1
 628 371 l 1,30,31
 668 371 668 371 689 354 c 1,32,-1
 559 131 l 1,33,-1
 679 131 l 1,16,-1
EndSplineSet
EndChar

StartChar: onehalf
Encoding: 189 189 127
Width: 890
GlyphClass: 2
Flags: W
LayerCount: 2
Fore
SplineSet
163 609 m 1,0,-1
 86 609 l 1,1,-1
 86 637 l 1,2,3
 154 649 154 649 201 672 c 1,4,-1
 226 662 l 1,5,-1
 226 339 l 1,6,-1
 289 323 l 1,7,-1
 287 295 l 1,8,-1
 91 295 l 1,9,-1
 94 323 l 1,10,-1
 163 339 l 1,11,-1
 163 609 l 1,0,-1
300 -32 m 1,12,-1
 250 -6 l 1,13,-1
 560 680 l 1,14,-1
 611 657 l 1,15,-1
 300 -32 l 1,12,-1
555 0 m 1,16,-1
 555 40 l 1,17,18
 660 127 660 127 699.5 178 c 128,-1,19
 739 229 739 229 739 275 c 0,20,21
 739 338 739 338 680 338 c 0,22,23
 653 338 653 338 638 324 c 128,-1,24
 623 310 623 310 623 291 c 128,-1,25
 623 272 623 272 636 253 c 1,26,27
 620 237 620 237 600 237 c 128,-1,28
 580 237 580 237 568 249 c 128,-1,29
 556 261 556 261 556 291.5 c 128,-1,30
 556 322 556 322 593 349.5 c 128,-1,31
 630 377 630 377 684.5 377 c 128,-1,32
 739 377 739 377 773 348.5 c 128,-1,33
 807 320 807 320 807 271.5 c 128,-1,34
 807 223 807 223 768 172 c 128,-1,35
 729 121 729 121 637 52 c 1,36,-1
 823 52 l 1,37,-1
 823 0 l 1,38,-1
 555 0 l 1,16,-1
EndSplineSet
EndChar

StartChar: threequarters
Encoding: 190 190 128
Width: 865
GlyphClass: 2
Flags: W
LayerCount: 2
Fore
SplineSet
291 -32 m 1,0,-1
 241 -6 l 1,1,-1
 551 680 l 1,2,-1
 602 657 l 1,3,-1
 291 -32 l 1,0,-1
151 472 m 1,4,-1
 151 503 l 1,5,6
 251 506 251 506 251 577 c 0,7,8
 251 602 251 602 236.5 616 c 128,-1,9
 222 630 222 630 196 630 c 128,-1,10
 170 630 170 630 156 617 c 128,-1,11
 142 604 142 604 142 588.5 c 128,-1,12
 142 573 142 573 149 562 c 1,13,14
 131 548 131 548 113.5 548 c 128,-1,15
 96 548 96 548 86.5 559.5 c 128,-1,16
 77 571 77 571 77 591 c 0,17,18
 77 624 77 624 111 646.5 c 128,-1,19
 145 669 145 669 198 669 c 128,-1,20
 251 669 251 669 283.5 643.5 c 128,-1,21
 316 618 316 618 316 577 c 0,22,23
 316 516 316 516 244 489 c 1,24,25
 325 466 325 466 325 395 c 0,26,27
 325 349 325 349 287.5 318.5 c 128,-1,28
 250 288 250 288 191 288 c 128,-1,29
 132 288 132 288 97 313 c 128,-1,30
 62 338 62 338 62 378 c 0,31,32
 62 396 62 396 74 405.5 c 128,-1,33
 86 415 86 415 103 415 c 128,-1,34
 120 415 120 415 138 402 c 1,35,36
 132 387 132 387 132 370 c 128,-1,37
 132 353 132 353 148.5 340 c 128,-1,38
 165 327 165 327 194 327 c 0,39,40
 258 327 258 327 258 395 c 0,41,42
 258 430 258 430 231.5 450.5 c 128,-1,43
 205 471 205 471 155 472 c 1,44,-1
 151 472 l 1,4,-1
673 131 m 1,45,-1
 673 231 l 1,46,47
 708 231 708 231 716 256 c 1,48,-1
 738 256 l 1,49,-1
 738 130 l 1,50,-1
 793 121 l 1,51,-1
 793 91 l 1,52,-1
 736 91 l 1,53,-1
 736 0 l 1,54,-1
 673 0 l 1,55,-1
 673 91 l 1,56,-1
 497 91 l 1,57,-1
 491 116 l 1,58,-1
 622 371 l 1,59,60
 662 371 662 371 683 354 c 1,61,-1
 553 131 l 1,62,-1
 673 131 l 1,45,-1
EndSplineSet
EndChar

StartChar: questiondown
Encoding: 191 191 129
Width: 422
GlyphClass: 2
Flags: W
LayerCount: 2
Fore
SplineSet
278 245 m 128,-1,1
 291 227 291 227 291 195.5 c 128,-1,2
 291 164 291 164 273.5 134 c 128,-1,3
 256 104 256 104 231 82.5 c 128,-1,4
 206 61 206 61 182 40 c 0,5,6
 122 -13 122 -13 122 -76 c 0,7,8
 122 -109 122 -109 145.5 -128.5 c 128,-1,9
 169 -148 169 -148 201.5 -148 c 128,-1,10
 234 -148 234 -148 254 -135.5 c 128,-1,11
 274 -123 274 -123 274 -101 c 128,-1,12
 274 -79 274 -79 263 -61 c 1,13,14
 284 -31 284 -31 311 -31 c 0,15,16
 360 -31 360 -31 360 -85 c 128,-1,17
 360 -139 360 -139 314 -165 c 128,-1,18
 268 -191 268 -191 200.5 -191 c 128,-1,19
 133 -191 133 -191 88 -160.5 c 128,-1,20
 43 -130 43 -130 43 -64 c 0,21,22
 43 -26 43 -26 59.5 7.5 c 128,-1,23
 76 41 76 41 99.5 64 c 128,-1,24
 123 87 123 87 147 108 c 0,25,26
 204 160 204 160 204 203 c 0,27,28
 204 222 204 222 198 246 c 1,29,30
 219 263 219 263 242 263 c 128,-1,0
 265 263 265 263 278 245 c 128,-1,1
234 487 m 128,-1,32
 287 487 287 487 287 429 c 128,-1,33
 287 371 287 371 234 371 c 128,-1,34
 181 371 181 371 181 429 c 128,-1,31
 181 487 181 487 234 487 c 128,-1,32
EndSplineSet
EndChar

StartChar: Agrave
Encoding: 192 192 130
Width: 623
GlyphClass: 2
Flags: W
LayerCount: 2
Fore
SplineSet
13 0 m 1,0,-1
 18 37 l 1,1,2
 63 44 63 44 89 63 c 1,3,-1
 276 667 l 1,4,-1
 336 667 l 1,5,-1
 542 62 l 1,6,7
 567 44 567 44 608 37 c 1,8,-1
 604 0 l 1,9,-1
 354 0 l 1,10,-1
 359 37 l 1,11,12
 417 44 417 44 451 64 c 1,13,-1
 400 215 l 1,14,-1
 198 215 l 1,15,-1
 152 64 l 1,16,17
 185 45 185 45 249 37 c 1,18,-1
 245 0 l 1,19,-1
 13 0 l 1,0,-1
295 528 m 1,20,-1
 214 267 l 1,21,-1
 383 267 l 1,22,-1
 295 528 l 1,20,-1
234 779 m 1,23,24
 209 801 209 801 209 816.5 c 128,-1,25
 209 832 209 832 220 842.5 c 128,-1,26
 231 853 231 853 247.5 853 c 128,-1,27
 264 853 264 853 277 836 c 2,28,-1
 360 720 l 1,29,-1
 336 696 l 1,30,-1
 234 779 l 1,23,24
EndSplineSet
EndChar

StartChar: Aacute
Encoding: 193 193 131
Width: 623
GlyphClass: 2
Flags: W
LayerCount: 2
Fore
SplineSet
13 0 m 1,0,-1
 18 37 l 1,1,2
 63 44 63 44 89 63 c 1,3,-1
 276 667 l 1,4,-1
 336 667 l 1,5,-1
 542 62 l 1,6,7
 567 44 567 44 608 37 c 1,8,-1
 604 0 l 1,9,-1
 354 0 l 1,10,-1
 359 37 l 1,11,12
 417 44 417 44 451 64 c 1,13,-1
 400 215 l 1,14,-1
 198 215 l 1,15,-1
 152 64 l 1,16,17
 185 45 185 45 249 37 c 1,18,-1
 245 0 l 1,19,-1
 13 0 l 1,0,-1
295 528 m 1,20,-1
 214 267 l 1,21,-1
 383 267 l 1,22,-1
 295 528 l 1,20,-1
357 836 m 2,23,24
 370 853 370 853 386.5 853 c 128,-1,25
 403 853 403 853 414 842.5 c 128,-1,26
 425 832 425 832 425 816.5 c 128,-1,27
 425 801 425 801 400 779 c 1,28,-1
 296 696 l 1,29,-1
 274 720 l 1,30,-1
 357 836 l 2,23,24
EndSplineSet
EndChar

StartChar: Acircumflex
Encoding: 194 194 132
Width: 623
GlyphClass: 2
Flags: W
LayerCount: 2
Fore
SplineSet
13 0 m 1,0,-1
 18 37 l 1,1,2
 63 44 63 44 89 63 c 1,3,-1
 276 667 l 1,4,-1
 336 667 l 1,5,-1
 542 62 l 1,6,7
 567 44 567 44 608 37 c 1,8,-1
 604 0 l 1,9,-1
 354 0 l 1,10,-1
 359 37 l 1,11,12
 417 44 417 44 451 64 c 1,13,-1
 400 215 l 1,14,-1
 198 215 l 1,15,-1
 152 64 l 1,16,17
 185 45 185 45 249 37 c 1,18,-1
 245 0 l 1,19,-1
 13 0 l 1,0,-1
295 528 m 1,20,-1
 214 267 l 1,21,-1
 383 267 l 1,22,-1
 295 528 l 1,20,-1
279 827 m 2,23,24
 293 843 293 843 310.5 843 c 128,-1,25
 328 843 328 843 341 827 c 2,26,-1
 433 720 l 1,27,-1
 410 696 l 1,28,-1
 309 773 l 1,29,-1
 208 696 l 1,30,-1
 186 720 l 1,31,-1
 279 827 l 2,23,24
EndSplineSet
EndChar

StartChar: Atilde
Encoding: 195 195 133
Width: 623
GlyphClass: 2
Flags: W
LayerCount: 2
Fore
SplineSet
13 0 m 1,0,-1
 18 37 l 1,1,2
 63 44 63 44 89 63 c 1,3,-1
 276 667 l 1,4,-1
 336 667 l 1,5,-1
 542 62 l 1,6,7
 567 44 567 44 608 37 c 1,8,-1
 604 0 l 1,9,-1
 354 0 l 1,10,-1
 359 37 l 1,11,12
 417 44 417 44 451 64 c 1,13,-1
 400 215 l 1,14,-1
 198 215 l 1,15,-1
 152 64 l 1,16,17
 185 45 185 45 249 37 c 1,18,-1
 245 0 l 1,19,-1
 13 0 l 1,0,-1
295 528 m 1,20,-1
 214 267 l 1,21,-1
 383 267 l 1,22,-1
 295 528 l 1,20,-1
190 795 m 128,-1,24
 216 820 216 820 246 820 c 128,-1,25
 276 820 276 820 312 802.5 c 128,-1,26
 348 785 348 785 372 785 c 128,-1,27
 396 785 396 785 433 822 c 1,28,29
 450 816 450 816 466 803 c 1,30,31
 454 775 454 775 427.5 749 c 128,-1,32
 401 723 401 723 371.5 723 c 128,-1,33
 342 723 342 723 306 740.5 c 128,-1,34
 270 758 270 758 245 758 c 128,-1,35
 220 758 220 758 185 723 c 1,36,37
 169 727 169 727 153 742 c 1,38,23
 164 770 164 770 190 795 c 128,-1,24
EndSplineSet
EndChar

StartChar: Adieresis
Encoding: 196 196 134
Width: 623
GlyphClass: 2
Flags: W
LayerCount: 2
Fore
SplineSet
13 0 m 1,0,-1
 18 37 l 1,1,2
 63 44 63 44 89 63 c 1,3,-1
 276 667 l 1,4,-1
 336 667 l 1,5,-1
 542 62 l 1,6,7
 567 44 567 44 608 37 c 1,8,-1
 604 0 l 1,9,-1
 354 0 l 1,10,-1
 359 37 l 1,11,12
 417 44 417 44 451 64 c 1,13,-1
 400 215 l 1,14,-1
 198 215 l 1,15,-1
 152 64 l 1,16,17
 185 45 185 45 249 37 c 1,18,-1
 245 0 l 1,19,-1
 13 0 l 1,0,-1
295 528 m 1,20,-1
 214 267 l 1,21,-1
 383 267 l 1,22,-1
 295 528 l 1,20,-1
226 728 m 128,-1,24
 179 728 179 728 179 780.5 c 128,-1,25
 179 833 179 833 226 833 c 128,-1,26
 273 833 273 833 273 780.5 c 128,-1,23
 273 728 273 728 226 728 c 128,-1,24
392 728 m 0,27,28
 346 728 346 728 346 780.5 c 128,-1,29
 346 833 346 833 392 833 c 0,30,31
 440 833 440 833 440 780.5 c 128,-1,32
 440 728 440 728 392 728 c 0,27,28
EndSplineSet
EndChar

StartChar: Aring
Encoding: 197 197 135
Width: 623
GlyphClass: 2
Flags: W
LayerCount: 2
Fore
SplineSet
13 0 m 1,0,-1
 18 37 l 1,1,2
 63 44 63 44 89 63 c 1,3,-1
 276 667 l 1,4,-1
 336 667 l 1,5,-1
 542 62 l 1,6,7
 567 44 567 44 608 37 c 1,8,-1
 604 0 l 1,9,-1
 354 0 l 1,10,-1
 359 37 l 1,11,12
 417 44 417 44 451 64 c 1,13,-1
 400 215 l 1,14,-1
 198 215 l 1,15,-1
 152 64 l 1,16,17
 185 45 185 45 249 37 c 1,18,-1
 245 0 l 1,19,-1
 13 0 l 1,0,-1
295 528 m 1,20,-1
 214 267 l 1,21,-1
 383 267 l 1,22,-1
 295 528 l 1,20,-1
309 695 m 128,-1,24
 271 695 271 695 247.5 718 c 128,-1,25
 224 741 224 741 224 777.5 c 128,-1,26
 224 814 224 814 247 837 c 128,-1,27
 270 860 270 860 308.5 860 c 128,-1,28
 347 860 347 860 371 836.5 c 128,-1,29
 395 813 395 813 395 777 c 128,-1,30
 395 741 395 741 371 718 c 128,-1,23
 347 695 347 695 309 695 c 128,-1,24
309 734 m 128,-1,32
 327 734 327 734 340.5 747 c 128,-1,33
 354 760 354 760 354 777.5 c 128,-1,34
 354 795 354 795 340.5 808.5 c 128,-1,35
 327 822 327 822 309 822 c 128,-1,36
 291 822 291 822 278.5 808.5 c 128,-1,37
 266 795 266 795 266 777 c 128,-1,38
 266 759 266 759 278.5 746.5 c 128,-1,31
 291 734 291 734 309 734 c 128,-1,32
EndSplineSet
EndChar

StartChar: AE
Encoding: 198 198 136
Width: 866
GlyphClass: 2
Flags: W
LayerCount: 2
Fore
SplineSet
794 515 m 1,0,1
 781 510 781 510 771.5 510 c 128,-1,2
 762 510 762 510 752 512 c 1,3,4
 740 576 740 576 710 614 c 1,5,-1
 521 614 l 1,6,-1
 521 364 l 1,7,-1
 633 369 l 2,8,9
 673 370 673 370 691 436 c 1,10,-1
 721 436 l 1,11,-1
 721 238 l 1,12,-1
 691 238 l 1,13,-1
 681 268 l 1,14,15
 670 297 670 297 657.5 304 c 128,-1,16
 645 311 645 311 632 312 c 2,17,-1
 521 318 l 1,18,-1
 521 58 l 1,19,-1
 734 58 l 1,20,21
 764 100 764 100 777 171 c 1,22,23
 791 173 791 173 797 173 c 128,-1,24
 803 173 803 173 817 171 c 1,25,-1
 808 0 l 1,26,-1
 335 0 l 1,27,-1
 341 37 l 1,28,29
 397 44 397 44 433 64 c 1,30,-1
 433 271 l 1,31,-1
 265 271 l 1,32,-1
 157 64 l 1,33,34
 189 45 189 45 256 37 c 1,35,-1
 252 0 l 1,36,-1
 19 0 l 1,37,-1
 25 37 l 1,38,39
 62 43 62 43 88 61 c 1,40,-1
 406 667 l 1,41,-1
 785 667 l 1,42,-1
 794 515 l 1,0,1
433 318 m 1,43,-1
 433 590 l 1,44,-1
 290 318 l 1,45,-1
 433 318 l 1,43,-1
EndSplineSet
EndChar

StartChar: Ccedilla
Encoding: 199 199 137
Width: 562
GlyphClass: 2
Flags: W
LayerCount: 2
Fore
SplineSet
322 -7 m 0,0,1
 394 -7 394 -7 453 29 c 0,2,3
 476 43 476 43 500.5 64 c 128,-1,4
 525 85 525 85 534 97 c 1,5,-1
 499 135 l 1,6,7
 474 102 474 102 424.5 77.5 c 128,-1,8
 375 53 375 53 323 53 c 0,9,10
 241 53 241 53 202.5 121 c 128,-1,11
 164 189 164 189 164 335 c 128,-1,12
 164 481 164 481 203 551.5 c 128,-1,13
 242 622 242 622 323 622 c 0,14,15
 369 622 369 622 397 603.5 c 128,-1,16
 425 585 425 585 425 557.5 c 128,-1,17
 425 530 425 530 406 504 c 1,18,19
 412 487 412 487 428 476 c 128,-1,20
 444 465 444 465 466 465 c 128,-1,21
 488 465 488 465 505 488 c 128,-1,22
 522 511 522 511 522 544 c 0,23,24
 522 601 522 601 465.5 638.5 c 128,-1,25
 409 676 409 676 323 676 c 0,26,27
 191 676 191 676 127.5 592 c 128,-1,28
 64 508 64 508 64 333.5 c 128,-1,29
 64 159 64 159 127 76 c 128,-1,30
 190 -7 190 -7 322 -7 c 0,0,1
367.5 -71 m 128,-1,32
 387 -89 387 -89 387 -123.5 c 128,-1,33
 387 -158 387 -158 360 -181 c 128,-1,34
 333 -204 333 -204 290 -204 c 128,-1,35
 247 -204 247 -204 224 -184 c 128,-1,36
 201 -164 201 -164 201 -143 c 128,-1,37
 201 -122 201 -122 210 -110.5 c 128,-1,38
 219 -99 219 -99 231 -99 c 128,-1,39
 243 -99 243 -99 252 -103 c 1,40,41
 248 -117 248 -117 248 -130.5 c 128,-1,42
 248 -144 248 -144 261 -157.5 c 128,-1,43
 274 -171 274 -171 293 -171 c 0,44,45
 336 -171 336 -171 336 -121 c 0,46,47
 336 -84 336 -84 281 -76 c 1,48,-1
 263 -56 l 1,49,-1
 303 9 l 1,50,-1
 329 4 l 1,51,-1
 311 -46 l 1,52,31
 348 -53 348 -53 367.5 -71 c 128,-1,32
EndSplineSet
EndChar

StartChar: Egrave
Encoding: 200 200 138
Width: 575
GlyphClass: 2
Flags: W
LayerCount: 2
Fore
SplineSet
490 515 m 1,0,1
 477 510 477 510 467 510 c 128,-1,2
 457 510 457 510 447 512 c 1,3,4
 434 578 434 578 405 614 c 1,5,-1
 217 614 l 1,6,-1
 217 364 l 1,7,-1
 330 369 l 2,8,9
 369 370 369 370 386 436 c 1,10,-1
 418 436 l 1,11,-1
 418 238 l 1,12,-1
 386 238 l 1,13,14
 381 262 381 262 376 274 c 128,-1,15
 371 286 371 286 358.5 298.5 c 128,-1,16
 346 311 346 311 329 312 c 2,17,-1
 217 318 l 1,18,-1
 217 58 l 1,19,-1
 430 58 l 1,20,21
 460 100 460 100 473 171 c 1,22,23
 485 173 485 173 491 173 c 128,-1,24
 497 173 497 173 513 171 c 1,25,-1
 504 0 l 1,26,-1
 31 0 l 1,27,-1
 37 37 l 1,28,29
 104 45 104 45 129 64 c 1,30,-1
 129 604 l 1,31,32
 91 624 91 624 31 631 c 1,33,34
 35 655 35 655 36 667 c 1,35,-1
 482 667 l 1,36,-1
 490 515 l 1,0,1
197 789 m 1,37,38
 172 811 172 811 172 826.5 c 128,-1,39
 172 842 172 842 183 852.5 c 128,-1,40
 194 863 194 863 210.5 863 c 128,-1,41
 227 863 227 863 240 846 c 2,42,-1
 323 730 l 1,43,-1
 299 706 l 1,44,-1
 197 789 l 1,37,38
EndSplineSet
EndChar

StartChar: Eacute
Encoding: 201 201 139
Width: 575
GlyphClass: 2
Flags: W
LayerCount: 2
Fore
SplineSet
490 515 m 1,0,1
 477 510 477 510 467 510 c 128,-1,2
 457 510 457 510 447 512 c 1,3,4
 434 578 434 578 405 614 c 1,5,-1
 217 614 l 1,6,-1
 217 364 l 1,7,-1
 330 369 l 2,8,9
 369 370 369 370 386 436 c 1,10,-1
 418 436 l 1,11,-1
 418 238 l 1,12,-1
 386 238 l 1,13,14
 381 262 381 262 376 274 c 128,-1,15
 371 286 371 286 358.5 298.5 c 128,-1,16
 346 311 346 311 329 312 c 2,17,-1
 217 318 l 1,18,-1
 217 58 l 1,19,-1
 430 58 l 1,20,21
 460 100 460 100 473 171 c 1,22,23
 485 173 485 173 491 173 c 128,-1,24
 497 173 497 173 513 171 c 1,25,-1
 504 0 l 1,26,-1
 31 0 l 1,27,-1
 37 37 l 1,28,29
 104 45 104 45 129 64 c 1,30,-1
 129 604 l 1,31,32
 91 624 91 624 31 631 c 1,33,34
 35 655 35 655 36 667 c 1,35,-1
 482 667 l 1,36,-1
 490 515 l 1,0,1
320 846 m 2,37,38
 333 863 333 863 349.5 863 c 128,-1,39
 366 863 366 863 377 852.5 c 128,-1,40
 388 842 388 842 388 826.5 c 128,-1,41
 388 811 388 811 363 789 c 1,42,-1
 259 706 l 1,43,-1
 237 730 l 1,44,-1
 320 846 l 2,37,38
EndSplineSet
EndChar

StartChar: Ecircumflex
Encoding: 202 202 140
Width: 575
GlyphClass: 2
Flags: W
LayerCount: 2
Fore
SplineSet
490 515 m 1,0,1
 477 510 477 510 467 510 c 128,-1,2
 457 510 457 510 447 512 c 1,3,4
 434 578 434 578 405 614 c 1,5,-1
 217 614 l 1,6,-1
 217 364 l 1,7,-1
 330 369 l 2,8,9
 369 370 369 370 386 436 c 1,10,-1
 418 436 l 1,11,-1
 418 238 l 1,12,-1
 386 238 l 1,13,14
 381 262 381 262 376 274 c 128,-1,15
 371 286 371 286 358.5 298.5 c 128,-1,16
 346 311 346 311 329 312 c 2,17,-1
 217 318 l 1,18,-1
 217 58 l 1,19,-1
 430 58 l 1,20,21
 460 100 460 100 473 171 c 1,22,23
 485 173 485 173 491 173 c 128,-1,24
 497 173 497 173 513 171 c 1,25,-1
 504 0 l 1,26,-1
 31 0 l 1,27,-1
 37 37 l 1,28,29
 104 45 104 45 129 64 c 1,30,-1
 129 604 l 1,31,32
 91 624 91 624 31 631 c 1,33,34
 35 655 35 655 36 667 c 1,35,-1
 482 667 l 1,36,-1
 490 515 l 1,0,1
242 837 m 2,37,38
 256 853 256 853 273.5 853 c 128,-1,39
 291 853 291 853 304 837 c 2,40,-1
 396 730 l 1,41,-1
 373 706 l 1,42,-1
 272 783 l 1,43,-1
 171 706 l 1,44,-1
 149 730 l 1,45,-1
 242 837 l 2,37,38
EndSplineSet
EndChar

StartChar: Edieresis
Encoding: 203 203 141
Width: 575
GlyphClass: 2
Flags: W
LayerCount: 2
Fore
SplineSet
490 515 m 1,0,1
 477 510 477 510 467 510 c 128,-1,2
 457 510 457 510 447 512 c 1,3,4
 434 578 434 578 405 614 c 1,5,-1
 217 614 l 1,6,-1
 217 364 l 1,7,-1
 330 369 l 2,8,9
 369 370 369 370 386 436 c 1,10,-1
 418 436 l 1,11,-1
 418 238 l 1,12,-1
 386 238 l 1,13,14
 381 262 381 262 376 274 c 128,-1,15
 371 286 371 286 358.5 298.5 c 128,-1,16
 346 311 346 311 329 312 c 2,17,-1
 217 318 l 1,18,-1
 217 58 l 1,19,-1
 430 58 l 1,20,21
 460 100 460 100 473 171 c 1,22,23
 485 173 485 173 491 173 c 128,-1,24
 497 173 497 173 513 171 c 1,25,-1
 504 0 l 1,26,-1
 31 0 l 1,27,-1
 37 37 l 1,28,29
 104 45 104 45 129 64 c 1,30,-1
 129 604 l 1,31,32
 91 624 91 624 31 631 c 1,33,34
 35 655 35 655 36 667 c 1,35,-1
 482 667 l 1,36,-1
 490 515 l 1,0,1
189 728 m 128,-1,38
 142 728 142 728 142 780.5 c 128,-1,39
 142 833 142 833 189 833 c 128,-1,40
 236 833 236 833 236 780.5 c 128,-1,37
 236 728 236 728 189 728 c 128,-1,38
355 728 m 0,41,42
 309 728 309 728 309 780.5 c 128,-1,43
 309 833 309 833 355 833 c 0,44,45
 403 833 403 833 403 780.5 c 128,-1,46
 403 728 403 728 355 728 c 0,41,42
EndSplineSet
EndChar

StartChar: Igrave
Encoding: 204 204 142
Width: 324
GlyphClass: 2
Flags: W
LayerCount: 2
Fore
SplineSet
20 0 m 1,0,-1
 26 37 l 1,1,2
 84 44 84 44 118 64 c 1,3,-1
 118 604 l 1,4,5
 79 624 79 624 20 631 c 1,6,7
 24 655 24 655 25 667 c 1,8,-1
 302 667 l 1,9,10
 301 655 301 655 297 631 c 1,11,12
 243 624 243 624 206 604 c 1,13,-1
 206 64 l 1,14,15
 239 45 239 45 303 37 c 1,16,-1
 298 0 l 1,17,-1
 20 0 l 1,0,-1
86 789 m 1,18,19
 61 811 61 811 61 826.5 c 128,-1,20
 61 842 61 842 72 852.5 c 128,-1,21
 83 863 83 863 99.5 863 c 128,-1,22
 116 863 116 863 129 846 c 2,23,-1
 212 730 l 1,24,-1
 188 706 l 1,25,-1
 86 789 l 1,18,19
EndSplineSet
EndChar

StartChar: Iacute
Encoding: 205 205 143
Width: 324
GlyphClass: 2
Flags: W
LayerCount: 2
Fore
SplineSet
20 0 m 1,0,-1
 26 37 l 1,1,2
 84 44 84 44 118 64 c 1,3,-1
 118 604 l 1,4,5
 79 624 79 624 20 631 c 1,6,7
 24 655 24 655 25 667 c 1,8,-1
 302 667 l 1,9,10
 301 655 301 655 297 631 c 1,11,12
 243 624 243 624 206 604 c 1,13,-1
 206 64 l 1,14,15
 239 45 239 45 303 37 c 1,16,-1
 298 0 l 1,17,-1
 20 0 l 1,0,-1
209 846 m 2,18,19
 222 863 222 863 238.5 863 c 128,-1,20
 255 863 255 863 266 852.5 c 128,-1,21
 277 842 277 842 277 826.5 c 128,-1,22
 277 811 277 811 252 789 c 1,23,-1
 148 706 l 1,24,-1
 126 730 l 1,25,-1
 209 846 l 2,18,19
EndSplineSet
EndChar

StartChar: Icircumflex
Encoding: 206 206 144
Width: 324
GlyphClass: 2
Flags: W
LayerCount: 2
Fore
SplineSet
20 0 m 1,0,-1
 26 37 l 1,1,2
 84 44 84 44 118 64 c 1,3,-1
 118 604 l 1,4,5
 79 624 79 624 20 631 c 1,6,7
 24 655 24 655 25 667 c 1,8,-1
 302 667 l 1,9,10
 301 655 301 655 297 631 c 1,11,12
 243 624 243 624 206 604 c 1,13,-1
 206 64 l 1,14,15
 239 45 239 45 303 37 c 1,16,-1
 298 0 l 1,17,-1
 20 0 l 1,0,-1
131 837 m 2,18,19
 145 853 145 853 162.5 853 c 128,-1,20
 180 853 180 853 193 837 c 2,21,-1
 285 730 l 1,22,-1
 262 706 l 1,23,-1
 161 783 l 1,24,-1
 60 706 l 1,25,-1
 38 730 l 1,26,-1
 131 837 l 2,18,19
EndSplineSet
EndChar

StartChar: Idieresis
Encoding: 207 207 145
Width: 324
GlyphClass: 2
Flags: W
LayerCount: 2
Fore
SplineSet
20 0 m 1,0,-1
 26 37 l 1,1,2
 84 44 84 44 118 64 c 1,3,-1
 118 604 l 1,4,5
 79 624 79 624 20 631 c 1,6,7
 24 655 24 655 25 667 c 1,8,-1
 302 667 l 1,9,10
 301 655 301 655 297 631 c 1,11,12
 243 624 243 624 206 604 c 1,13,-1
 206 64 l 1,14,15
 239 45 239 45 303 37 c 1,16,-1
 298 0 l 1,17,-1
 20 0 l 1,0,-1
78 728 m 128,-1,19
 31 728 31 728 31 780.5 c 128,-1,20
 31 833 31 833 78 833 c 128,-1,21
 125 833 125 833 125 780.5 c 128,-1,18
 125 728 125 728 78 728 c 128,-1,19
244 728 m 0,22,23
 198 728 198 728 198 780.5 c 128,-1,24
 198 833 198 833 244 833 c 0,25,26
 292 833 292 833 292 780.5 c 128,-1,27
 292 728 292 728 244 728 c 0,22,23
EndSplineSet
EndChar

StartChar: Eth
Encoding: 208 208 146
Width: 665
GlyphClass: 2
Flags: W
LayerCount: 2
Fore
SplineSet
60 304 m 1,0,-1
 60 348 l 1,1,-1
 338 348 l 1,2,-1
 338 304 l 1,3,-1
 60 304 l 1,0,-1
262 667 m 2,4,5
 437 667 437 667 524 587 c 128,-1,6
 611 507 611 507 611 332.5 c 128,-1,7
 611 158 611 158 523.5 79 c 128,-1,8
 436 0 436 0 256 0 c 2,9,-1
 43 0 l 1,10,-1
 48 37 l 1,11,12
 109 45 109 45 139 63 c 1,13,-1
 139 604 l 1,14,15
 104 623 104 623 42 631 c 1,16,-1
 47 667 l 1,17,-1
 262 667 l 2,4,5
276 617 m 2,18,-1
 228 617 l 1,19,-1
 228 53 l 1,20,21
 245 49 245 49 273 49 c 0,22,23
 393 49 393 49 452 113.5 c 128,-1,24
 511 178 511 178 511 333.5 c 128,-1,25
 511 489 511 489 453 553 c 128,-1,26
 395 617 395 617 276 617 c 2,18,-1
EndSplineSet
EndChar

StartChar: Ntilde
Encoding: 209 209 147
Width: 681
GlyphClass: 2
Flags: W
LayerCount: 2
Fore
SplineSet
569 0 m 1,0,-1
 526 0 l 1,1,-1
 186 515 l 1,2,-1
 186 64 l 1,3,4
 219 45 219 45 283 37 c 1,5,-1
 279 0 l 1,6,-1
 25 0 l 1,7,-1
 31 37 l 1,8,9
 89 44 89 44 123 64 c 1,10,-1
 123 604 l 1,11,12
 84 624 84 624 25 631 c 1,13,14
 29 655 29 655 30 667 c 1,15,-1
 189 667 l 1,16,-1
 504 191 l 1,17,-1
 504 604 l 1,18,19
 469 623 469 623 408 631 c 1,20,21
 409 643 409 643 413 667 c 1,22,-1
 666 667 l 1,23,24
 662 643 662 643 661 631 c 1,25,26
 606 625 606 625 569 604 c 1,27,-1
 569 0 l 1,0,-1
226 805 m 128,-1,29
 252 830 252 830 282 830 c 128,-1,30
 312 830 312 830 348 812.5 c 128,-1,31
 384 795 384 795 408 795 c 128,-1,32
 432 795 432 795 469 832 c 1,33,34
 486 826 486 826 502 813 c 1,35,36
 490 785 490 785 463.5 759 c 128,-1,37
 437 733 437 733 407.5 733 c 128,-1,38
 378 733 378 733 342 750.5 c 128,-1,39
 306 768 306 768 281 768 c 128,-1,40
 256 768 256 768 221 733 c 1,41,42
 205 737 205 737 189 752 c 1,43,28
 200 780 200 780 226 805 c 128,-1,29
EndSplineSet
EndChar

StartChar: Ograve
Encoding: 210 210 148
Width: 653
GlyphClass: 2
Flags: W
LayerCount: 2
Fore
SplineSet
237 65 m 128,-1,1
 273 42 273 42 322 42 c 128,-1,2
 371 42 371 42 402.5 58 c 128,-1,3
 434 74 434 74 452.5 99.5 c 128,-1,4
 471 125 471 125 481.5 165 c 128,-1,5
 492 205 492 205 495.5 243.5 c 128,-1,6
 499 282 499 282 499 333 c 128,-1,7
 499 384 499 384 495.5 423 c 128,-1,8
 492 462 492 462 481.5 502 c 128,-1,9
 471 542 471 542 452 568 c 0,10,11
 410 626 410 626 327 626 c 0,12,13
 219 626 219 626 184 536 c 0,14,15
 154 460 154 460 154 334 c 0,16,17
 154 210 154 210 184 132 c 0,18,0
 201 88 201 88 237 65 c 128,-1,1
116.5 588 m 128,-1,20
 180 676 180 676 326.5 676 c 128,-1,21
 473 676 473 676 536.5 587.5 c 128,-1,22
 600 499 600 499 600 333.5 c 128,-1,23
 600 168 600 168 536.5 80.5 c 128,-1,24
 473 -7 473 -7 326.5 -7 c 128,-1,25
 180 -7 180 -7 116.5 81 c 128,-1,26
 53 169 53 169 53 334.5 c 128,-1,19
 53 500 53 500 116.5 588 c 128,-1,20
251 789 m 1,27,28
 226 811 226 811 226 826.5 c 128,-1,29
 226 842 226 842 237 852.5 c 128,-1,30
 248 863 248 863 264.5 863 c 128,-1,31
 281 863 281 863 294 846 c 2,32,-1
 377 730 l 1,33,-1
 353 706 l 1,34,-1
 251 789 l 1,27,28
EndSplineSet
EndChar

StartChar: Oacute
Encoding: 211 211 149
Width: 653
GlyphClass: 2
Flags: W
LayerCount: 2
Fore
SplineSet
237 65 m 128,-1,1
 273 42 273 42 322 42 c 128,-1,2
 371 42 371 42 402.5 58 c 128,-1,3
 434 74 434 74 452.5 99.5 c 128,-1,4
 471 125 471 125 481.5 165 c 128,-1,5
 492 205 492 205 495.5 243.5 c 128,-1,6
 499 282 499 282 499 333 c 128,-1,7
 499 384 499 384 495.5 423 c 128,-1,8
 492 462 492 462 481.5 502 c 128,-1,9
 471 542 471 542 452 568 c 0,10,11
 410 626 410 626 327 626 c 0,12,13
 219 626 219 626 184 536 c 0,14,15
 154 460 154 460 154 334 c 0,16,17
 154 210 154 210 184 132 c 0,18,0
 201 88 201 88 237 65 c 128,-1,1
116.5 588 m 128,-1,20
 180 676 180 676 326.5 676 c 128,-1,21
 473 676 473 676 536.5 587.5 c 128,-1,22
 600 499 600 499 600 333.5 c 128,-1,23
 600 168 600 168 536.5 80.5 c 128,-1,24
 473 -7 473 -7 326.5 -7 c 128,-1,25
 180 -7 180 -7 116.5 81 c 128,-1,26
 53 169 53 169 53 334.5 c 128,-1,19
 53 500 53 500 116.5 588 c 128,-1,20
374 846 m 2,27,28
 387 863 387 863 403.5 863 c 128,-1,29
 420 863 420 863 431 852.5 c 128,-1,30
 442 842 442 842 442 826.5 c 128,-1,31
 442 811 442 811 417 789 c 1,32,-1
 313 706 l 1,33,-1
 291 730 l 1,34,-1
 374 846 l 2,27,28
EndSplineSet
EndChar

StartChar: Ocircumflex
Encoding: 212 212 150
Width: 653
GlyphClass: 2
Flags: W
LayerCount: 2
Fore
SplineSet
237 65 m 128,-1,1
 273 42 273 42 322 42 c 128,-1,2
 371 42 371 42 402.5 58 c 128,-1,3
 434 74 434 74 452.5 99.5 c 128,-1,4
 471 125 471 125 481.5 165 c 128,-1,5
 492 205 492 205 495.5 243.5 c 128,-1,6
 499 282 499 282 499 333 c 128,-1,7
 499 384 499 384 495.5 423 c 128,-1,8
 492 462 492 462 481.5 502 c 128,-1,9
 471 542 471 542 452 568 c 0,10,11
 410 626 410 626 327 626 c 0,12,13
 219 626 219 626 184 536 c 0,14,15
 154 460 154 460 154 334 c 0,16,17
 154 210 154 210 184 132 c 0,18,0
 201 88 201 88 237 65 c 128,-1,1
116.5 588 m 128,-1,20
 180 676 180 676 326.5 676 c 128,-1,21
 473 676 473 676 536.5 587.5 c 128,-1,22
 600 499 600 499 600 333.5 c 128,-1,23
 600 168 600 168 536.5 80.5 c 128,-1,24
 473 -7 473 -7 326.5 -7 c 128,-1,25
 180 -7 180 -7 116.5 81 c 128,-1,26
 53 169 53 169 53 334.5 c 128,-1,19
 53 500 53 500 116.5 588 c 128,-1,20
296 837 m 2,27,28
 310 853 310 853 327.5 853 c 128,-1,29
 345 853 345 853 358 837 c 2,30,-1
 450 730 l 1,31,-1
 427 706 l 1,32,-1
 326 783 l 1,33,-1
 225 706 l 1,34,-1
 203 730 l 1,35,-1
 296 837 l 2,27,28
EndSplineSet
EndChar

StartChar: Otilde
Encoding: 213 213 151
Width: 653
GlyphClass: 2
Flags: W
LayerCount: 2
Fore
SplineSet
237 65 m 128,-1,1
 273 42 273 42 322 42 c 128,-1,2
 371 42 371 42 402.5 58 c 128,-1,3
 434 74 434 74 452.5 99.5 c 128,-1,4
 471 125 471 125 481.5 165 c 128,-1,5
 492 205 492 205 495.5 243.5 c 128,-1,6
 499 282 499 282 499 333 c 128,-1,7
 499 384 499 384 495.5 423 c 128,-1,8
 492 462 492 462 481.5 502 c 128,-1,9
 471 542 471 542 452 568 c 0,10,11
 410 626 410 626 327 626 c 0,12,13
 219 626 219 626 184 536 c 0,14,15
 154 460 154 460 154 334 c 0,16,17
 154 210 154 210 184 132 c 0,18,0
 201 88 201 88 237 65 c 128,-1,1
116.5 588 m 128,-1,20
 180 676 180 676 326.5 676 c 128,-1,21
 473 676 473 676 536.5 587.5 c 128,-1,22
 600 499 600 499 600 333.5 c 128,-1,23
 600 168 600 168 536.5 80.5 c 128,-1,24
 473 -7 473 -7 326.5 -7 c 128,-1,25
 180 -7 180 -7 116.5 81 c 128,-1,26
 53 169 53 169 53 334.5 c 128,-1,19
 53 500 53 500 116.5 588 c 128,-1,20
207 805 m 128,-1,28
 233 830 233 830 263 830 c 128,-1,29
 293 830 293 830 329 812.5 c 128,-1,30
 365 795 365 795 389 795 c 128,-1,31
 413 795 413 795 450 832 c 1,32,33
 467 826 467 826 483 813 c 1,34,35
 471 785 471 785 444.5 759 c 128,-1,36
 418 733 418 733 389 733 c 128,-1,37
 360 733 360 733 323 750.5 c 128,-1,38
 286 768 286 768 261.5 768 c 128,-1,39
 237 768 237 768 202 733 c 1,40,41
 186 737 186 737 170 752 c 1,42,27
 181 780 181 780 207 805 c 128,-1,28
EndSplineSet
EndChar

StartChar: Odieresis
Encoding: 214 214 152
Width: 653
GlyphClass: 2
Flags: W
LayerCount: 2
Fore
SplineSet
237 65 m 128,-1,1
 273 42 273 42 322 42 c 128,-1,2
 371 42 371 42 402.5 58 c 128,-1,3
 434 74 434 74 452.5 99.5 c 128,-1,4
 471 125 471 125 481.5 165 c 128,-1,5
 492 205 492 205 495.5 243.5 c 128,-1,6
 499 282 499 282 499 333 c 128,-1,7
 499 384 499 384 495.5 423 c 128,-1,8
 492 462 492 462 481.5 502 c 128,-1,9
 471 542 471 542 452 568 c 0,10,11
 410 626 410 626 327 626 c 0,12,13
 219 626 219 626 184 536 c 0,14,15
 154 460 154 460 154 334 c 0,16,17
 154 210 154 210 184 132 c 0,18,0
 201 88 201 88 237 65 c 128,-1,1
116.5 588 m 128,-1,20
 180 676 180 676 326.5 676 c 128,-1,21
 473 676 473 676 536.5 587.5 c 128,-1,22
 600 499 600 499 600 333.5 c 128,-1,23
 600 168 600 168 536.5 80.5 c 128,-1,24
 473 -7 473 -7 326.5 -7 c 128,-1,25
 180 -7 180 -7 116.5 81 c 128,-1,26
 53 169 53 169 53 334.5 c 128,-1,19
 53 500 53 500 116.5 588 c 128,-1,20
243 728 m 128,-1,28
 196 728 196 728 196 780.5 c 128,-1,29
 196 833 196 833 243 833 c 128,-1,30
 290 833 290 833 290 780.5 c 128,-1,27
 290 728 290 728 243 728 c 128,-1,28
409 728 m 0,31,32
 363 728 363 728 363 780.5 c 128,-1,33
 363 833 363 833 409 833 c 0,34,35
 457 833 457 833 457 780.5 c 128,-1,36
 457 728 457 728 409 728 c 0,31,32
EndSplineSet
EndChar

StartChar: multiply
Encoding: 215 215 153
Width: 554
GlyphClass: 2
Flags: W
LayerCount: 2
Fore
SplineSet
122 92 m 1,0,-1
 81 134 l 1,1,-1
 235 286 l 1,2,-1
 84 436 l 1,3,-1
 125 478 l 1,4,-1
 276 328 l 1,5,-1
 428 478 l 1,6,-1
 469 436 l 1,7,-1
 319 286 l 1,8,-1
 473 134 l 1,9,-1
 432 92 l 1,10,-1
 276 244 l 1,11,-1
 122 92 l 1,0,-1
EndSplineSet
EndChar

StartChar: Oslash
Encoding: 216 216 154
Width: 653
GlyphClass: 2
Flags: W
LayerCount: 2
Fore
SplineSet
332 676 m 0,0,1
 444 676 444 676 511 620 c 1,2,-1
 558 684 l 1,3,-1
 565 684 l 1,4,5
 575 679 575 679 591 660 c 1,6,-1
 540 590 l 1,7,8
 605 505 605 505 605 336.5 c 128,-1,9
 605 168 605 168 541.5 80.5 c 128,-1,10
 478 -7 478 -7 332 -7 c 0,11,12
 213 -7 213 -7 148 52 c 1,13,-1
 90 -27 l 1,14,-1
 83 -28 l 1,15,16
 72 -21 72 -21 57 -4 c 1,17,-1
 120 82 l 1,18,19
 58 165 58 165 58 332.5 c 128,-1,20
 58 500 58 500 121.5 588 c 128,-1,21
 185 676 185 676 332 676 c 0,0,1
332 42 m 0,22,23
 454 42 454 42 486 165 c 0,24,25
 504 232 504 232 504 341 c 128,-1,26
 504 450 504 450 483 512 c 1,27,-1
 195 117 l 1,28,29
 237 42 237 42 332 42 c 0,22,23
165.5 446 m 128,-1,31
 159 399 159 399 159 310 c 128,-1,32
 159 221 159 221 177 161 c 1,33,-1
 464 556 l 1,34,35
 423 626 423 626 332 626 c 0,36,37
 224 626 224 626 189 536 c 0,38,30
 172 493 172 493 165.5 446 c 128,-1,31
EndSplineSet
EndChar

StartChar: Ugrave
Encoding: 217 217 155
Width: 648
GlyphClass: 2
Flags: W
LayerCount: 2
Fore
SplineSet
558 216 m 2,0,1
 558 109 558 109 499.5 51 c 128,-1,2
 441 -7 441 -7 322.5 -7 c 128,-1,3
 204 -7 204 -7 146.5 45 c 128,-1,4
 89 97 89 97 89 210 c 2,5,-1
 89 604 l 1,6,7
 50 624 50 624 -8 631 c 1,8,-1
 -4 667 l 1,9,-1
 276 667 l 1,10,-1
 270 631 l 1,11,12
 213 621 213 621 180 604 c 1,13,-1
 180 210 l 2,14,15
 180 122 180 122 216.5 83.5 c 128,-1,16
 253 45 253 45 331.5 45 c 128,-1,17
 410 45 410 45 452 89 c 128,-1,18
 494 133 494 133 494 216 c 2,19,-1
 494 604 l 1,20,21
 457 624 457 624 397 631 c 1,22,23
 398 643 398 643 402 667 c 1,24,-1
 655 667 l 1,25,-1
 650 631 l 1,26,27
 591 621 591 621 558 604 c 1,28,-1
 558 216 l 2,0,1
248 789 m 1,29,30
 223 811 223 811 223 826.5 c 128,-1,31
 223 842 223 842 234 852.5 c 128,-1,32
 245 863 245 863 261.5 863 c 128,-1,33
 278 863 278 863 291 846 c 2,34,-1
 374 730 l 1,35,-1
 350 706 l 1,36,-1
 248 789 l 1,29,30
EndSplineSet
EndChar

StartChar: Uacute
Encoding: 218 218 156
Width: 648
GlyphClass: 2
Flags: W
LayerCount: 2
Fore
SplineSet
558 216 m 2,0,1
 558 109 558 109 499.5 51 c 128,-1,2
 441 -7 441 -7 322.5 -7 c 128,-1,3
 204 -7 204 -7 146.5 45 c 128,-1,4
 89 97 89 97 89 210 c 2,5,-1
 89 604 l 1,6,7
 50 624 50 624 -8 631 c 1,8,-1
 -4 667 l 1,9,-1
 276 667 l 1,10,-1
 270 631 l 1,11,12
 213 621 213 621 180 604 c 1,13,-1
 180 210 l 2,14,15
 180 122 180 122 216.5 83.5 c 128,-1,16
 253 45 253 45 331.5 45 c 128,-1,17
 410 45 410 45 452 89 c 128,-1,18
 494 133 494 133 494 216 c 2,19,-1
 494 604 l 1,20,21
 457 624 457 624 397 631 c 1,22,23
 398 643 398 643 402 667 c 1,24,-1
 655 667 l 1,25,-1
 650 631 l 1,26,27
 591 621 591 621 558 604 c 1,28,-1
 558 216 l 2,0,1
371 846 m 2,29,30
 384 863 384 863 400.5 863 c 128,-1,31
 417 863 417 863 428 852.5 c 128,-1,32
 439 842 439 842 439 826.5 c 128,-1,33
 439 811 439 811 414 789 c 1,34,-1
 310 706 l 1,35,-1
 288 730 l 1,36,-1
 371 846 l 2,29,30
EndSplineSet
EndChar

StartChar: Ucircumflex
Encoding: 219 219 157
Width: 648
GlyphClass: 2
Flags: W
LayerCount: 2
Fore
SplineSet
558 216 m 2,0,1
 558 109 558 109 499.5 51 c 128,-1,2
 441 -7 441 -7 322.5 -7 c 128,-1,3
 204 -7 204 -7 146.5 45 c 128,-1,4
 89 97 89 97 89 210 c 2,5,-1
 89 604 l 1,6,7
 50 624 50 624 -8 631 c 1,8,-1
 -4 667 l 1,9,-1
 276 667 l 1,10,-1
 270 631 l 1,11,12
 213 621 213 621 180 604 c 1,13,-1
 180 210 l 2,14,15
 180 122 180 122 216.5 83.5 c 128,-1,16
 253 45 253 45 331.5 45 c 128,-1,17
 410 45 410 45 452 89 c 128,-1,18
 494 133 494 133 494 216 c 2,19,-1
 494 604 l 1,20,21
 457 624 457 624 397 631 c 1,22,23
 398 643 398 643 402 667 c 1,24,-1
 655 667 l 1,25,-1
 650 631 l 1,26,27
 591 621 591 621 558 604 c 1,28,-1
 558 216 l 2,0,1
293 837 m 2,29,30
 307 853 307 853 324.5 853 c 128,-1,31
 342 853 342 853 355 837 c 2,32,-1
 447 730 l 1,33,-1
 424 706 l 1,34,-1
 323 783 l 1,35,-1
 222 706 l 1,36,-1
 200 730 l 1,37,-1
 293 837 l 2,29,30
EndSplineSet
EndChar

StartChar: Udieresis
Encoding: 220 220 158
Width: 648
GlyphClass: 2
Flags: W
LayerCount: 2
Fore
SplineSet
558 216 m 2,0,1
 558 109 558 109 499.5 51 c 128,-1,2
 441 -7 441 -7 322.5 -7 c 128,-1,3
 204 -7 204 -7 146.5 45 c 128,-1,4
 89 97 89 97 89 210 c 2,5,-1
 89 604 l 1,6,7
 50 624 50 624 -8 631 c 1,8,-1
 -4 667 l 1,9,-1
 276 667 l 1,10,-1
 270 631 l 1,11,12
 213 621 213 621 180 604 c 1,13,-1
 180 210 l 2,14,15
 180 122 180 122 216.5 83.5 c 128,-1,16
 253 45 253 45 331.5 45 c 128,-1,17
 410 45 410 45 452 89 c 128,-1,18
 494 133 494 133 494 216 c 2,19,-1
 494 604 l 1,20,21
 457 624 457 624 397 631 c 1,22,23
 398 643 398 643 402 667 c 1,24,-1
 655 667 l 1,25,-1
 650 631 l 1,26,27
 591 621 591 621 558 604 c 1,28,-1
 558 216 l 2,0,1
240 728 m 128,-1,30
 193 728 193 728 193 780.5 c 128,-1,31
 193 833 193 833 240 833 c 128,-1,32
 287 833 287 833 287 780.5 c 128,-1,29
 287 728 287 728 240 728 c 128,-1,30
406 728 m 0,33,34
 360 728 360 728 360 780.5 c 128,-1,35
 360 833 360 833 406 833 c 0,36,37
 454 833 454 833 454 780.5 c 128,-1,38
 454 728 454 728 406 728 c 0,33,34
EndSplineSet
EndChar

StartChar: Yacute
Encoding: 221 221 159
Width: 570
GlyphClass: 2
Flags: W
LayerCount: 2
Fore
SplineSet
141 0 m 1,0,-1
 146 37 l 1,1,2
 208 44 208 44 243 64 c 1,3,-1
 243 265 l 1,4,-1
 73 605 l 1,5,6
 49 623 49 623 11 631 c 1,7,-1
 16 667 l 1,8,-1
 263 667 l 1,9,10
 259 643 259 643 258 631 c 1,11,12
 206 624 206 624 171 604 c 1,13,-1
 296 343 l 1,14,-1
 424 605 l 1,15,16
 386 625 386 625 335 631 c 1,17,18
 336 643 336 643 340 667 c 1,19,-1
 560 667 l 1,20,-1
 554 631 l 1,21,22
 518 624 518 624 493 605 c 1,23,-1
 331 277 l 1,24,-1
 331 64 l 1,25,26
 365 45 365 45 433 37 c 1,27,-1
 429 0 l 1,28,-1
 141 0 l 1,0,-1
343 846 m 2,29,30
 356 863 356 863 372.5 863 c 128,-1,31
 389 863 389 863 400 852.5 c 128,-1,32
 411 842 411 842 411 826.5 c 128,-1,33
 411 811 411 811 386 789 c 1,34,-1
 282 706 l 1,35,-1
 260 730 l 1,36,-1
 343 846 l 2,29,30
EndSplineSet
EndChar

StartChar: Thorn
Encoding: 222 222 160
Width: 574
GlyphClass: 2
Flags: W
LayerCount: 2
Fore
SplineSet
235 200 m 1,0,-1
 268 200 l 2,1,2
 440 200 440 200 440 343 c 0,3,4
 440 412 440 412 406.5 447 c 128,-1,5
 373 482 373 482 311 482 c 0,6,7
 269 482 269 482 235 476 c 1,8,-1
 235 524 l 1,9,-1
 311 524 l 2,10,11
 530 524 530 524 530 341 c 0,12,13
 530 238 530 238 463 196.5 c 128,-1,14
 396 155 396 155 268 155 c 2,15,-1
 235 155 l 1,16,-1
 235 200 l 1,0,-1
49 0 m 1,17,-1
 55 37 l 1,18,19
 113 44 113 44 147 64 c 1,20,-1
 147 604 l 1,21,22
 108 624 108 624 49 631 c 1,23,24
 53 655 53 655 54 667 c 1,25,-1
 331 667 l 1,26,27
 330 655 330 655 326 631 c 1,28,29
 272 624 272 624 235 604 c 1,30,-1
 235 64 l 1,31,32
 268 45 268 45 332 37 c 1,33,-1
 327 0 l 1,34,-1
 49 0 l 1,17,-1
EndSplineSet
EndChar

StartChar: germandbls
Encoding: 223 223 161
Width: 605
GlyphClass: 2
Flags: W
LayerCount: 2
Fore
SplineSet
248 76 m 0,0,1
 248 102 248 102 263.5 118 c 128,-1,2
 279 134 279 134 300.5 134 c 128,-1,3
 322 134 322 134 341 124 c 1,4,5
 332 103 332 103 332 83.5 c 128,-1,6
 332 64 332 64 345.5 51 c 128,-1,7
 359 38 359 38 384 38 c 0,8,9
 421 38 421 38 442.5 74 c 128,-1,10
 464 110 464 110 464 177 c 128,-1,11
 464 244 464 244 419.5 284 c 128,-1,12
 375 324 375 324 278 338 c 1,13,-1
 278 391 l 1,14,15
 326 399 326 399 364.5 444.5 c 128,-1,16
 403 490 403 490 403 539.5 c 128,-1,17
 403 589 403 589 378.5 618 c 128,-1,18
 354 647 354 647 306 647 c 0,19,20
 231 647 231 647 214 572 c 1,21,22
 206 532 206 532 206 470 c 2,23,-1
 206 0 l 1,24,-1
 51 0 l 1,25,-1
 55 36 l 1,26,27
 98 43 98 43 121 62 c 1,28,-1
 121 515 l 2,29,30
 121 599 121 599 169.5 642.5 c 128,-1,31
 218 686 218 686 303.5 686 c 128,-1,32
 389 686 389 686 440 649 c 128,-1,33
 491 612 491 612 491 535 c 0,34,35
 491 487 491 487 452.5 442.5 c 128,-1,36
 414 398 414 398 353 371 c 1,37,38
 445 351 445 351 498.5 298 c 128,-1,39
 552 245 552 245 552 170 c 128,-1,40
 552 95 552 95 503.5 45 c 128,-1,41
 455 -5 455 -5 382 -5 c 0,42,43
 248 -5 248 -5 248 76 c 0,0,1
EndSplineSet
EndChar

StartChar: agrave
Encoding: 224 224 162
Width: 488
GlyphClass: 2
Flags: W
LayerCount: 2
Fore
SplineSet
171 -7 m 0,0,1
 109 -7 109 -7 75 23 c 128,-1,2
 41 53 41 53 41 112.5 c 128,-1,3
 41 172 41 172 89 209.5 c 128,-1,4
 137 247 137 247 228 253 c 2,5,-1
 310 259 l 1,6,-1
 310 340 l 2,7,8
 310 390 310 390 289 413 c 128,-1,9
 268 436 268 436 221 436 c 0,10,11
 138 436 138 436 138 391 c 0,12,13
 138 365 138 365 168 354 c 1,14,15
 168 306 168 306 111 306 c 0,16,17
 85 306 85 306 69 322 c 128,-1,18
 53 338 53 338 53 364 c 0,19,20
 53 415 53 415 98.5 445.5 c 128,-1,21
 144 476 144 476 223.5 476 c 128,-1,22
 303 476 303 476 349 440 c 128,-1,23
 395 404 395 404 395 340 c 2,24,-1
 395 61 l 1,25,26
 418 44 418 44 465 34 c 1,27,-1
 461 0 l 1,28,-1
 323 0 l 1,29,-1
 313 45 l 1,30,31
 257 -7 257 -7 171 -7 c 0,0,1
129 116 m 0,32,33
 129 34 129 34 196 34 c 0,34,35
 249 34 249 34 310 92 c 1,36,-1
 310 218 l 1,37,-1
 230 211 l 2,38,39
 183 207 183 207 156 181.5 c 128,-1,40
 129 156 129 156 129 116 c 0,32,33
153 589 m 1,41,42
 128 611 128 611 128 626.5 c 128,-1,43
 128 642 128 642 139 652.5 c 128,-1,44
 150 663 150 663 166.5 663 c 128,-1,45
 183 663 183 663 196 646 c 2,46,-1
 279 530 l 1,47,-1
 255 506 l 1,48,-1
 153 589 l 1,41,42
EndSplineSet
EndChar

StartChar: aacute
Encoding: 225 225 163
Width: 488
GlyphClass: 2
Flags: W
LayerCount: 2
Fore
SplineSet
171 -7 m 0,0,1
 109 -7 109 -7 75 23 c 128,-1,2
 41 53 41 53 41 112.5 c 128,-1,3
 41 172 41 172 89 209.5 c 128,-1,4
 137 247 137 247 228 253 c 2,5,-1
 310 259 l 1,6,-1
 310 340 l 2,7,8
 310 390 310 390 289 413 c 128,-1,9
 268 436 268 436 221 436 c 0,10,11
 138 436 138 436 138 391 c 0,12,13
 138 365 138 365 168 354 c 1,14,15
 168 306 168 306 111 306 c 0,16,17
 85 306 85 306 69 322 c 128,-1,18
 53 338 53 338 53 364 c 0,19,20
 53 415 53 415 98.5 445.5 c 128,-1,21
 144 476 144 476 223.5 476 c 128,-1,22
 303 476 303 476 349 440 c 128,-1,23
 395 404 395 404 395 340 c 2,24,-1
 395 61 l 1,25,26
 418 44 418 44 465 34 c 1,27,-1
 461 0 l 1,28,-1
 323 0 l 1,29,-1
 313 45 l 1,30,31
 257 -7 257 -7 171 -7 c 0,0,1
129 116 m 0,32,33
 129 34 129 34 196 34 c 0,34,35
 249 34 249 34 310 92 c 1,36,-1
 310 218 l 1,37,-1
 230 211 l 2,38,39
 183 207 183 207 156 181.5 c 128,-1,40
 129 156 129 156 129 116 c 0,32,33
276 646 m 2,41,42
 289 663 289 663 305.5 663 c 128,-1,43
 322 663 322 663 333 652.5 c 128,-1,44
 344 642 344 642 344 626.5 c 128,-1,45
 344 611 344 611 319 589 c 1,46,-1
 215 506 l 1,47,-1
 193 530 l 1,48,-1
 276 646 l 2,41,42
EndSplineSet
EndChar

StartChar: acircumflex
Encoding: 226 226 164
Width: 488
GlyphClass: 2
Flags: W
LayerCount: 2
Fore
SplineSet
171 -7 m 0,0,1
 109 -7 109 -7 75 23 c 128,-1,2
 41 53 41 53 41 112.5 c 128,-1,3
 41 172 41 172 89 209.5 c 128,-1,4
 137 247 137 247 228 253 c 2,5,-1
 310 259 l 1,6,-1
 310 340 l 2,7,8
 310 390 310 390 289 413 c 128,-1,9
 268 436 268 436 221 436 c 0,10,11
 138 436 138 436 138 391 c 0,12,13
 138 365 138 365 168 354 c 1,14,15
 168 306 168 306 111 306 c 0,16,17
 85 306 85 306 69 322 c 128,-1,18
 53 338 53 338 53 364 c 0,19,20
 53 415 53 415 98.5 445.5 c 128,-1,21
 144 476 144 476 223.5 476 c 128,-1,22
 303 476 303 476 349 440 c 128,-1,23
 395 404 395 404 395 340 c 2,24,-1
 395 61 l 1,25,26
 418 44 418 44 465 34 c 1,27,-1
 461 0 l 1,28,-1
 323 0 l 1,29,-1
 313 45 l 1,30,31
 257 -7 257 -7 171 -7 c 0,0,1
129 116 m 0,32,33
 129 34 129 34 196 34 c 0,34,35
 249 34 249 34 310 92 c 1,36,-1
 310 218 l 1,37,-1
 230 211 l 2,38,39
 183 207 183 207 156 181.5 c 128,-1,40
 129 156 129 156 129 116 c 0,32,33
198 637 m 2,41,42
 212 653 212 653 229.5 653 c 128,-1,43
 247 653 247 653 260 637 c 2,44,-1
 352 530 l 1,45,-1
 329 506 l 1,46,-1
 228 583 l 1,47,-1
 127 506 l 1,48,-1
 105 530 l 1,49,-1
 198 637 l 2,41,42
EndSplineSet
EndChar

StartChar: atilde
Encoding: 227 227 165
Width: 488
GlyphClass: 2
Flags: W
LayerCount: 2
Fore
SplineSet
171 -7 m 0,0,1
 109 -7 109 -7 75 23 c 128,-1,2
 41 53 41 53 41 112.5 c 128,-1,3
 41 172 41 172 89 209.5 c 128,-1,4
 137 247 137 247 228 253 c 2,5,-1
 310 259 l 1,6,-1
 310 340 l 2,7,8
 310 390 310 390 289 413 c 128,-1,9
 268 436 268 436 221 436 c 0,10,11
 138 436 138 436 138 391 c 0,12,13
 138 365 138 365 168 354 c 1,14,15
 168 306 168 306 111 306 c 0,16,17
 85 306 85 306 69 322 c 128,-1,18
 53 338 53 338 53 364 c 0,19,20
 53 415 53 415 98.5 445.5 c 128,-1,21
 144 476 144 476 223.5 476 c 128,-1,22
 303 476 303 476 349 440 c 128,-1,23
 395 404 395 404 395 340 c 2,24,-1
 395 61 l 1,25,26
 418 44 418 44 465 34 c 1,27,-1
 461 0 l 1,28,-1
 323 0 l 1,29,-1
 313 45 l 1,30,31
 257 -7 257 -7 171 -7 c 0,0,1
129 116 m 0,32,33
 129 34 129 34 196 34 c 0,34,35
 249 34 249 34 310 92 c 1,36,-1
 310 218 l 1,37,-1
 230 211 l 2,38,39
 183 207 183 207 156 181.5 c 128,-1,40
 129 156 129 156 129 116 c 0,32,33
109 605 m 128,-1,42
 135 630 135 630 165 630 c 128,-1,43
 195 630 195 630 231 612.5 c 128,-1,44
 267 595 267 595 291 595 c 128,-1,45
 315 595 315 595 352 632 c 1,46,47
 369 626 369 626 385 613 c 1,48,49
 373 585 373 585 346.5 559 c 128,-1,50
 320 533 320 533 291 533 c 128,-1,51
 262 533 262 533 225 550.5 c 128,-1,52
 188 568 188 568 163.5 568 c 128,-1,53
 139 568 139 568 104 533 c 1,54,55
 88 537 88 537 72 552 c 1,56,41
 83 580 83 580 109 605 c 128,-1,42
EndSplineSet
EndChar

StartChar: adieresis
Encoding: 228 228 166
Width: 488
GlyphClass: 2
Flags: W
LayerCount: 2
Fore
SplineSet
171 -7 m 0,0,1
 109 -7 109 -7 75 23 c 128,-1,2
 41 53 41 53 41 112.5 c 128,-1,3
 41 172 41 172 89 209.5 c 128,-1,4
 137 247 137 247 228 253 c 2,5,-1
 310 259 l 1,6,-1
 310 340 l 2,7,8
 310 390 310 390 289 413 c 128,-1,9
 268 436 268 436 221 436 c 0,10,11
 138 436 138 436 138 391 c 0,12,13
 138 365 138 365 168 354 c 1,14,15
 168 306 168 306 111 306 c 0,16,17
 85 306 85 306 69 322 c 128,-1,18
 53 338 53 338 53 364 c 0,19,20
 53 415 53 415 98.5 445.5 c 128,-1,21
 144 476 144 476 223.5 476 c 128,-1,22
 303 476 303 476 349 440 c 128,-1,23
 395 404 395 404 395 340 c 2,24,-1
 395 61 l 1,25,26
 418 44 418 44 465 34 c 1,27,-1
 461 0 l 1,28,-1
 323 0 l 1,29,-1
 313 45 l 1,30,31
 257 -7 257 -7 171 -7 c 0,0,1
129 116 m 0,32,33
 129 34 129 34 196 34 c 0,34,35
 249 34 249 34 310 92 c 1,36,-1
 310 218 l 1,37,-1
 230 211 l 2,38,39
 183 207 183 207 156 181.5 c 128,-1,40
 129 156 129 156 129 116 c 0,32,33
145 540 m 128,-1,42
 98 540 98 540 98 592.5 c 128,-1,43
 98 645 98 645 145 645 c 128,-1,44
 192 645 192 645 192 592.5 c 128,-1,41
 192 540 192 540 145 540 c 128,-1,42
311 540 m 0,45,46
 265 540 265 540 265 592.5 c 128,-1,47
 265 645 265 645 311 645 c 0,48,49
 359 645 359 645 359 592.5 c 128,-1,50
 359 540 359 540 311 540 c 0,45,46
EndSplineSet
EndChar

StartChar: aring
Encoding: 229 229 167
Width: 488
GlyphClass: 2
Flags: W
LayerCount: 2
Fore
SplineSet
171 -7 m 0,0,1
 109 -7 109 -7 75 23 c 128,-1,2
 41 53 41 53 41 112.5 c 128,-1,3
 41 172 41 172 89 209.5 c 128,-1,4
 137 247 137 247 228 253 c 2,5,-1
 310 259 l 1,6,-1
 310 340 l 2,7,8
 310 390 310 390 289 413 c 128,-1,9
 268 436 268 436 221 436 c 0,10,11
 138 436 138 436 138 391 c 0,12,13
 138 365 138 365 168 354 c 1,14,15
 168 306 168 306 111 306 c 0,16,17
 85 306 85 306 69 322 c 128,-1,18
 53 338 53 338 53 364 c 0,19,20
 53 415 53 415 98.5 445.5 c 128,-1,21
 144 476 144 476 223.5 476 c 128,-1,22
 303 476 303 476 349 440 c 128,-1,23
 395 404 395 404 395 340 c 2,24,-1
 395 61 l 1,25,26
 418 44 418 44 465 34 c 1,27,-1
 461 0 l 1,28,-1
 323 0 l 1,29,-1
 313 45 l 1,30,31
 257 -7 257 -7 171 -7 c 0,0,1
129 116 m 0,32,33
 129 34 129 34 196 34 c 0,34,35
 249 34 249 34 310 92 c 1,36,-1
 310 218 l 1,37,-1
 230 211 l 2,38,39
 183 207 183 207 156 181.5 c 128,-1,40
 129 156 129 156 129 116 c 0,32,33
228 505 m 128,-1,42
 190 505 190 505 166.5 528 c 128,-1,43
 143 551 143 551 143 587.5 c 128,-1,44
 143 624 143 624 166.5 647 c 128,-1,45
 190 670 190 670 228 670 c 128,-1,46
 266 670 266 670 290 646.5 c 128,-1,47
 314 623 314 623 314 587 c 128,-1,48
 314 551 314 551 290 528 c 128,-1,41
 266 505 266 505 228 505 c 128,-1,42
228 544 m 128,-1,50
 246 544 246 544 259.5 557 c 128,-1,51
 273 570 273 570 273 587.5 c 128,-1,52
 273 605 273 605 259.5 618.5 c 128,-1,53
 246 632 246 632 228 632 c 128,-1,54
 210 632 210 632 197.5 618.5 c 128,-1,55
 185 605 185 605 185 587 c 128,-1,56
 185 569 185 569 197.5 556.5 c 128,-1,49
 210 544 210 544 228 544 c 128,-1,50
EndSplineSet
EndChar

StartChar: ae
Encoding: 230 230 168
Width: 752
GlyphClass: 2
Flags: W
LayerCount: 2
Fore
SplineSet
231 476 m 0,0,1
 336 476 336 476 379 419 c 1,2,3
 433 476 433 476 530.5 476 c 128,-1,4
 628 476 628 476 668 424 c 128,-1,5
 708 372 708 372 711 270 c 1,6,-1
 690 243 l 1,7,-1
 412 243 l 1,8,-1
 412 238 l 2,9,10
 412 116 412 116 443 78 c 0,11,12
 472 42 472 42 535 42 c 0,13,14
 568 42 568 42 600 54 c 128,-1,15
 632 66 632 66 648 78 c 2,16,-1
 663 89 l 1,17,-1
 688 59 l 1,18,19
 681 52 681 52 668 41 c 128,-1,20
 655 30 655 30 614 11.5 c 128,-1,21
 573 -7 573 -7 531 -7 c 0,22,23
 408 -7 408 -7 359 68 c 1,24,25
 279 -7 279 -7 181 -7 c 0,26,27
 119 -7 119 -7 85 23 c 128,-1,28
 51 53 51 53 51 112.5 c 128,-1,29
 51 172 51 172 99 209.5 c 128,-1,30
 147 247 147 247 238 253 c 2,31,-1
 319 259 l 1,32,-1
 319 340 l 2,33,34
 319 390 319 390 298 413 c 128,-1,35
 277 436 277 436 234 436 c 128,-1,36
 191 436 191 436 169 424 c 128,-1,37
 147 412 147 412 147 388.5 c 128,-1,38
 147 365 147 365 178 354 c 1,39,40
 178 306 178 306 121 306 c 0,41,42
 95 306 95 306 79 322 c 128,-1,43
 63 338 63 338 63 364 c 0,44,45
 63 415 63 415 108.5 445.5 c 128,-1,46
 154 476 154 476 231 476 c 0,0,1
139 116 m 0,47,48
 139 34 139 34 206 34 c 0,49,50
 258 34 258 34 319 92 c 1,51,-1
 319 218 l 1,52,-1
 240 211 l 2,53,54
 193 207 193 207 166 181.5 c 128,-1,55
 139 156 139 156 139 116 c 0,47,48
525 436 m 0,56,57
 415 436 415 436 412 280 c 1,58,-1
 621 287 l 1,59,60
 621 365 621 365 600.5 400.5 c 128,-1,61
 580 436 580 436 525 436 c 0,56,57
EndSplineSet
EndChar

StartChar: ccedilla
Encoding: 231 231 169
Width: 441
GlyphClass: 2
Flags: W
LayerCount: 2
Fore
SplineSet
257 476 m 0,0,1
 326 476 326 476 368.5 446.5 c 128,-1,2
 411 417 411 417 411 370 c 0,3,4
 411 347 411 347 395.5 329 c 128,-1,5
 380 311 380 311 359.5 311 c 128,-1,6
 339 311 339 311 325 321 c 128,-1,7
 311 331 311 331 306 347 c 1,8,9
 319 368 319 368 319 388.5 c 128,-1,10
 319 409 319 409 302 424.5 c 128,-1,11
 285 440 285 440 252.5 440 c 128,-1,12
 220 440 220 440 194.5 424 c 128,-1,13
 169 408 169 408 156 378 c 0,14,15
 135 326 135 326 135 258 c 128,-1,16
 135 190 135 190 139 159 c 128,-1,17
 143 128 143 128 155 99 c 0,18,19
 179 42 179 42 258 42 c 0,20,21
 291 42 291 42 323 54 c 128,-1,22
 355 66 355 66 370 78 c 2,23,-1
 385 89 l 1,24,-1
 411 59 l 1,25,26
 404 52 404 52 391 41 c 128,-1,27
 378 30 378 30 336.5 11.5 c 128,-1,28
 295 -7 295 -7 253 -7 c 0,29,30
 140 -7 140 -7 91 54.5 c 128,-1,31
 42 116 42 116 42 238 c 1,32,33
 45 476 45 476 257 476 c 0,0,1
302.5 -71 m 128,-1,35
 322 -89 322 -89 322 -123.5 c 128,-1,36
 322 -158 322 -158 295 -181 c 128,-1,37
 268 -204 268 -204 225 -204 c 128,-1,38
 182 -204 182 -204 159 -184 c 128,-1,39
 136 -164 136 -164 136 -143 c 128,-1,40
 136 -122 136 -122 145 -110.5 c 128,-1,41
 154 -99 154 -99 166 -99 c 128,-1,42
 178 -99 178 -99 187 -103 c 1,43,44
 183 -117 183 -117 183 -130.5 c 128,-1,45
 183 -144 183 -144 196.5 -157.5 c 128,-1,46
 210 -171 210 -171 228 -171 c 0,47,48
 271 -171 271 -171 271 -121 c 0,49,50
 271 -84 271 -84 216 -76 c 1,51,-1
 198 -56 l 1,52,-1
 238 9 l 1,53,-1
 264 4 l 1,54,-1
 246 -46 l 1,55,34
 283 -53 283 -53 302.5 -71 c 128,-1,35
EndSplineSet
EndChar

StartChar: egrave
Encoding: 232 232 170
Width: 488
GlyphClass: 2
Flags: W
LayerCount: 2
Fore
SplineSet
152 243 m 1,0,-1
 152 238 l 2,1,2
 152 116 152 116 183 78 c 0,3,4
 212 42 212 42 275 42 c 0,5,6
 308 42 308 42 340 54 c 128,-1,7
 372 66 372 66 388 78 c 2,8,-1
 403 89 l 1,9,-1
 428 59 l 1,10,11
 421 52 421 52 408 41 c 128,-1,12
 395 30 395 30 354 11.5 c 128,-1,13
 313 -7 313 -7 271 -7 c 0,14,15
 157 -7 157 -7 108.5 54.5 c 128,-1,16
 60 116 60 116 60 232.5 c 128,-1,17
 60 349 60 349 113.5 412.5 c 128,-1,18
 167 476 167 476 267.5 476 c 128,-1,19
 368 476 368 476 408 424 c 128,-1,20
 448 372 448 372 451 270 c 1,21,-1
 430 243 l 1,22,-1
 152 243 l 1,0,-1
265 436 m 0,23,24
 155 436 155 436 152 280 c 1,25,-1
 361 287 l 1,26,27
 361 366 361 366 340.5 401 c 128,-1,28
 320 436 320 436 265 436 c 0,23,24
180 589 m 1,29,30
 155 611 155 611 155 626.5 c 128,-1,31
 155 642 155 642 166 652.5 c 128,-1,32
 177 663 177 663 193.5 663 c 128,-1,33
 210 663 210 663 223 646 c 2,34,-1
 306 530 l 1,35,-1
 282 506 l 1,36,-1
 180 589 l 1,29,30
EndSplineSet
EndChar

StartChar: eacute
Encoding: 233 233 171
Width: 488
GlyphClass: 2
Flags: W
LayerCount: 2
Fore
SplineSet
152 243 m 1,0,-1
 152 238 l 2,1,2
 152 116 152 116 183 78 c 0,3,4
 212 42 212 42 275 42 c 0,5,6
 308 42 308 42 340 54 c 128,-1,7
 372 66 372 66 388 78 c 2,8,-1
 403 89 l 1,9,-1
 428 59 l 1,10,11
 421 52 421 52 408 41 c 128,-1,12
 395 30 395 30 354 11.5 c 128,-1,13
 313 -7 313 -7 271 -7 c 0,14,15
 157 -7 157 -7 108.5 54.5 c 128,-1,16
 60 116 60 116 60 232.5 c 128,-1,17
 60 349 60 349 113.5 412.5 c 128,-1,18
 167 476 167 476 267.5 476 c 128,-1,19
 368 476 368 476 408 424 c 128,-1,20
 448 372 448 372 451 270 c 1,21,-1
 430 243 l 1,22,-1
 152 243 l 1,0,-1
265 436 m 0,23,24
 155 436 155 436 152 280 c 1,25,-1
 361 287 l 1,26,27
 361 366 361 366 340.5 401 c 128,-1,28
 320 436 320 436 265 436 c 0,23,24
303 646 m 2,29,30
 316 663 316 663 332.5 663 c 128,-1,31
 349 663 349 663 360 652.5 c 128,-1,32
 371 642 371 642 371 626.5 c 128,-1,33
 371 611 371 611 346 589 c 1,34,-1
 242 506 l 1,35,-1
 220 530 l 1,36,-1
 303 646 l 2,29,30
EndSplineSet
EndChar

StartChar: ecircumflex
Encoding: 234 234 172
Width: 488
GlyphClass: 2
Flags: W
LayerCount: 2
Fore
SplineSet
152 243 m 1,0,-1
 152 238 l 2,1,2
 152 116 152 116 183 78 c 0,3,4
 212 42 212 42 275 42 c 0,5,6
 308 42 308 42 340 54 c 128,-1,7
 372 66 372 66 388 78 c 2,8,-1
 403 89 l 1,9,-1
 428 59 l 1,10,11
 421 52 421 52 408 41 c 128,-1,12
 395 30 395 30 354 11.5 c 128,-1,13
 313 -7 313 -7 271 -7 c 0,14,15
 157 -7 157 -7 108.5 54.5 c 128,-1,16
 60 116 60 116 60 232.5 c 128,-1,17
 60 349 60 349 113.5 412.5 c 128,-1,18
 167 476 167 476 267.5 476 c 128,-1,19
 368 476 368 476 408 424 c 128,-1,20
 448 372 448 372 451 270 c 1,21,-1
 430 243 l 1,22,-1
 152 243 l 1,0,-1
265 436 m 0,23,24
 155 436 155 436 152 280 c 1,25,-1
 361 287 l 1,26,27
 361 366 361 366 340.5 401 c 128,-1,28
 320 436 320 436 265 436 c 0,23,24
225 637 m 2,29,30
 239 653 239 653 256.5 653 c 128,-1,31
 274 653 274 653 287 637 c 2,32,-1
 379 530 l 1,33,-1
 356 506 l 1,34,-1
 255 583 l 1,35,-1
 154 506 l 1,36,-1
 132 530 l 1,37,-1
 225 637 l 2,29,30
EndSplineSet
EndChar

StartChar: edieresis
Encoding: 235 235 173
Width: 488
GlyphClass: 2
Flags: W
LayerCount: 2
Fore
SplineSet
152 243 m 1,0,-1
 152 238 l 2,1,2
 152 116 152 116 183 78 c 0,3,4
 212 42 212 42 275 42 c 0,5,6
 308 42 308 42 340 54 c 128,-1,7
 372 66 372 66 388 78 c 2,8,-1
 403 89 l 1,9,-1
 428 59 l 1,10,11
 421 52 421 52 408 41 c 128,-1,12
 395 30 395 30 354 11.5 c 128,-1,13
 313 -7 313 -7 271 -7 c 0,14,15
 157 -7 157 -7 108.5 54.5 c 128,-1,16
 60 116 60 116 60 232.5 c 128,-1,17
 60 349 60 349 113.5 412.5 c 128,-1,18
 167 476 167 476 267.5 476 c 128,-1,19
 368 476 368 476 408 424 c 128,-1,20
 448 372 448 372 451 270 c 1,21,-1
 430 243 l 1,22,-1
 152 243 l 1,0,-1
265 436 m 0,23,24
 155 436 155 436 152 280 c 1,25,-1
 361 287 l 1,26,27
 361 366 361 366 340.5 401 c 128,-1,28
 320 436 320 436 265 436 c 0,23,24
172 540 m 128,-1,30
 125 540 125 540 125 592.5 c 128,-1,31
 125 645 125 645 172 645 c 128,-1,32
 219 645 219 645 219 592.5 c 128,-1,29
 219 540 219 540 172 540 c 128,-1,30
338 540 m 0,33,34
 292 540 292 540 292 592.5 c 128,-1,35
 292 645 292 645 338 645 c 0,36,37
 386 645 386 645 386 592.5 c 128,-1,38
 386 540 386 540 338 540 c 0,33,34
EndSplineSet
EndChar

StartChar: igrave
Encoding: 236 236 174
Width: 278
GlyphClass: 2
Flags: W
LayerCount: 2
Fore
SplineSet
104 349 m 2,0,1
 104 386 104 386 88.5 399.5 c 128,-1,2
 73 413 73 413 34 415 c 1,3,-1
 37 444 l 1,4,5
 75 451 75 451 169 479 c 1,6,-1
 189 468 l 1,7,-1
 189 61 l 1,8,9
 214 43 214 43 259 34 c 1,10,-1
 255 0 l 1,11,-1
 34 0 l 1,12,-1
 38 36 l 1,13,14
 79 43 79 43 104 61 c 1,15,-1
 104 349 l 2,0,1
63 589 m 1,16,17
 38 611 38 611 38 626.5 c 128,-1,18
 38 642 38 642 49 652.5 c 128,-1,19
 60 663 60 663 76.5 663 c 128,-1,20
 93 663 93 663 106 646 c 2,21,-1
 189 530 l 1,22,-1
 165 506 l 1,23,-1
 63 589 l 1,16,17
EndSplineSet
EndChar

StartChar: iacute
Encoding: 237 237 175
Width: 278
GlyphClass: 2
Flags: W
LayerCount: 2
Fore
SplineSet
104 349 m 2,0,1
 104 386 104 386 88.5 399.5 c 128,-1,2
 73 413 73 413 34 415 c 1,3,-1
 37 444 l 1,4,5
 75 451 75 451 169 479 c 1,6,-1
 189 468 l 1,7,-1
 189 61 l 1,8,9
 214 43 214 43 259 34 c 1,10,-1
 255 0 l 1,11,-1
 34 0 l 1,12,-1
 38 36 l 1,13,14
 79 43 79 43 104 61 c 1,15,-1
 104 349 l 2,0,1
186 646 m 2,16,17
 199 663 199 663 215.5 663 c 128,-1,18
 232 663 232 663 243 652.5 c 128,-1,19
 254 642 254 642 254 626.5 c 128,-1,20
 254 611 254 611 229 589 c 1,21,-1
 125 506 l 1,22,-1
 103 530 l 1,23,-1
 186 646 l 2,16,17
EndSplineSet
EndChar

StartChar: icircumflex
Encoding: 238 238 176
Width: 278
GlyphClass: 2
Flags: W
LayerCount: 2
Fore
SplineSet
104 349 m 2,0,1
 104 386 104 386 88.5 399.5 c 128,-1,2
 73 413 73 413 34 415 c 1,3,-1
 37 444 l 1,4,5
 75 451 75 451 169 479 c 1,6,-1
 189 468 l 1,7,-1
 189 61 l 1,8,9
 214 43 214 43 259 34 c 1,10,-1
 255 0 l 1,11,-1
 34 0 l 1,12,-1
 38 36 l 1,13,14
 79 43 79 43 104 61 c 1,15,-1
 104 349 l 2,0,1
108 637 m 2,16,17
 122 653 122 653 139.5 653 c 128,-1,18
 157 653 157 653 170 637 c 2,19,-1
 262 530 l 1,20,-1
 239 506 l 1,21,-1
 138 583 l 1,22,-1
 37 506 l 1,23,-1
 15 530 l 1,24,-1
 108 637 l 2,16,17
EndSplineSet
EndChar

StartChar: idieresis
Encoding: 239 239 177
Width: 278
GlyphClass: 2
Flags: W
LayerCount: 2
Fore
SplineSet
55 540 m 128,-1,1
 8 540 8 540 8 592.5 c 128,-1,2
 8 645 8 645 55 645 c 128,-1,3
 102 645 102 645 102 592.5 c 128,-1,0
 102 540 102 540 55 540 c 128,-1,1
191 540 m 0,4,5
 145 540 145 540 145 592.5 c 128,-1,6
 145 645 145 645 191 645 c 0,7,8
 239 645 239 645 239 592.5 c 128,-1,9
 239 540 239 540 191 540 c 0,4,5
104 349 m 2,10,11
 104 386 104 386 88.5 399.5 c 128,-1,12
 73 413 73 413 34 415 c 1,13,-1
 37 444 l 1,14,15
 75 451 75 451 169 479 c 1,16,-1
 189 468 l 1,17,-1
 189 61 l 1,18,19
 214 43 214 43 259 34 c 1,20,-1
 255 0 l 1,21,-1
 34 0 l 1,22,-1
 38 36 l 1,23,24
 79 43 79 43 104 61 c 1,25,-1
 104 349 l 2,10,11
EndSplineSet
EndChar

StartChar: eth
Encoding: 240 240 178
Width: 530
GlyphClass: 2
Flags: W
LayerCount: 2
Fore
SplineSet
353 85 m 128,-1,1
 381 131 381 131 381 240.5 c 128,-1,2
 381 350 381 350 370 408 c 1,3,4
 328 434 328 434 270 434 c 128,-1,5
 212 434 212 434 178 379 c 128,-1,6
 144 324 144 324 144 227 c 128,-1,7
 144 130 144 130 172 84.5 c 128,-1,8
 200 39 200 39 262.5 39 c 128,-1,0
 325 39 325 39 353 85 c 128,-1,1
469 277 m 2,9,-1
 469 235 l 2,10,11
 469 117 469 117 416.5 55 c 128,-1,12
 364 -7 364 -7 262 -7 c 128,-1,13
 160 -7 160 -7 108 53 c 128,-1,14
 56 113 56 113 56 230 c 128,-1,15
 56 347 56 347 112.5 411.5 c 128,-1,16
 169 476 169 476 276 476 c 0,17,18
 319 476 319 476 355 461 c 1,19,20
 331 528 331 528 278 573 c 1,21,-1
 131 517 l 1,22,-1
 114 557 l 1,23,-1
 233 605 l 1,24,25
 205 624 205 624 138 651 c 1,26,-1
 155 694 l 1,27,28
 252 659 252 659 296 630 c 1,29,-1
 410 676 l 1,30,-1
 430 631 l 1,31,-1
 344 599 l 1,32,33
 409 547 409 547 439 470 c 128,-1,34
 469 393 469 393 469 277 c 2,9,-1
EndSplineSet
EndChar

StartChar: ntilde
Encoding: 241 241 179
Width: 558
GlyphClass: 2
Flags: W
LayerCount: 2
Fore
SplineSet
383 329 m 2,0,1
 383 428 383 428 297 428 c 0,2,3
 263 428 263 428 232 404.5 c 128,-1,4
 201 381 201 381 185 344 c 1,5,-1
 185 62 l 1,6,7
 209 43 209 43 255 34 c 1,8,-1
 251 0 l 1,9,-1
 30 0 l 1,10,-1
 34 36 l 1,11,12
 77 43 77 43 100 62 c 1,13,-1
 100 347 l 2,14,15
 100 384 100 384 84.5 397.5 c 128,-1,16
 69 411 69 411 30 413 c 1,17,-1
 33 442 l 1,18,19
 46 444 46 444 155 476 c 1,20,-1
 173 467 l 1,21,-1
 182 405 l 1,22,23
 205 438 205 438 240.5 457 c 128,-1,24
 276 476 276 476 314 476 c 0,25,26
 387 476 387 476 427.5 439.5 c 128,-1,27
 468 403 468 403 468 338 c 2,28,-1
 468 62 l 1,29,30
 490 44 490 44 538 34 c 1,31,-1
 534 0 l 1,32,-1
 314 0 l 1,33,-1
 317 34 l 1,34,35
 355 40 355 40 383 62 c 1,36,-1
 383 329 l 2,0,1
165 605 m 128,-1,38
 191 630 191 630 221 630 c 128,-1,39
 251 630 251 630 287 612.5 c 128,-1,40
 323 595 323 595 347 595 c 128,-1,41
 371 595 371 595 408 632 c 1,42,43
 425 626 425 626 441 613 c 1,44,45
 429 585 429 585 402.5 559 c 128,-1,46
 376 533 376 533 347 533 c 128,-1,47
 318 533 318 533 281 550.5 c 128,-1,48
 244 568 244 568 219.5 568 c 128,-1,49
 195 568 195 568 160 533 c 1,50,51
 144 537 144 537 128 552 c 1,52,37
 139 580 139 580 165 605 c 128,-1,38
EndSplineSet
EndChar

StartChar: ograve
Encoding: 242 242 180
Width: 531
GlyphClass: 2
Flags: W
LayerCount: 2
Fore
SplineSet
143 235 m 128,-1,1
 143 131 143 131 171.5 85 c 128,-1,2
 200 39 200 39 265 39 c 128,-1,3
 330 39 330 39 359.5 85 c 128,-1,4
 389 131 389 131 389 235 c 128,-1,5
 389 339 389 339 360 384.5 c 128,-1,6
 331 430 331 430 265.5 430 c 128,-1,7
 200 430 200 430 171.5 384.5 c 128,-1,0
 143 339 143 339 143 235 c 128,-1,1
53 235 m 128,-1,9
 53 353 53 353 106.5 414.5 c 128,-1,10
 160 476 160 476 265 476 c 128,-1,11
 370 476 370 476 423.5 414.5 c 128,-1,12
 477 353 477 353 477 235 c 128,-1,13
 477 117 477 117 423.5 55 c 128,-1,14
 370 -7 370 -7 265 -7 c 128,-1,15
 160 -7 160 -7 106.5 55 c 128,-1,8
 53 117 53 117 53 235 c 128,-1,9
190 589 m 1,16,17
 165 611 165 611 165 626.5 c 128,-1,18
 165 642 165 642 176 652.5 c 128,-1,19
 187 663 187 663 203.5 663 c 128,-1,20
 220 663 220 663 233 646 c 2,21,-1
 316 530 l 1,22,-1
 292 506 l 1,23,-1
 190 589 l 1,16,17
EndSplineSet
EndChar

StartChar: oacute
Encoding: 243 243 181
Width: 531
GlyphClass: 2
Flags: W
LayerCount: 2
Fore
SplineSet
143 235 m 128,-1,1
 143 131 143 131 171.5 85 c 128,-1,2
 200 39 200 39 265 39 c 128,-1,3
 330 39 330 39 359.5 85 c 128,-1,4
 389 131 389 131 389 235 c 128,-1,5
 389 339 389 339 360 384.5 c 128,-1,6
 331 430 331 430 265.5 430 c 128,-1,7
 200 430 200 430 171.5 384.5 c 128,-1,0
 143 339 143 339 143 235 c 128,-1,1
53 235 m 128,-1,9
 53 353 53 353 106.5 414.5 c 128,-1,10
 160 476 160 476 265 476 c 128,-1,11
 370 476 370 476 423.5 414.5 c 128,-1,12
 477 353 477 353 477 235 c 128,-1,13
 477 117 477 117 423.5 55 c 128,-1,14
 370 -7 370 -7 265 -7 c 128,-1,15
 160 -7 160 -7 106.5 55 c 128,-1,8
 53 117 53 117 53 235 c 128,-1,9
313 646 m 2,16,17
 326 663 326 663 342.5 663 c 128,-1,18
 359 663 359 663 370 652.5 c 128,-1,19
 381 642 381 642 381 626.5 c 128,-1,20
 381 611 381 611 356 589 c 1,21,-1
 252 506 l 1,22,-1
 230 530 l 1,23,-1
 313 646 l 2,16,17
EndSplineSet
EndChar

StartChar: ocircumflex
Encoding: 244 244 182
Width: 531
GlyphClass: 2
Flags: W
LayerCount: 2
Fore
SplineSet
143 235 m 128,-1,1
 143 131 143 131 171.5 85 c 128,-1,2
 200 39 200 39 265 39 c 128,-1,3
 330 39 330 39 359.5 85 c 128,-1,4
 389 131 389 131 389 235 c 128,-1,5
 389 339 389 339 360 384.5 c 128,-1,6
 331 430 331 430 265.5 430 c 128,-1,7
 200 430 200 430 171.5 384.5 c 128,-1,0
 143 339 143 339 143 235 c 128,-1,1
53 235 m 128,-1,9
 53 353 53 353 106.5 414.5 c 128,-1,10
 160 476 160 476 265 476 c 128,-1,11
 370 476 370 476 423.5 414.5 c 128,-1,12
 477 353 477 353 477 235 c 128,-1,13
 477 117 477 117 423.5 55 c 128,-1,14
 370 -7 370 -7 265 -7 c 128,-1,15
 160 -7 160 -7 106.5 55 c 128,-1,8
 53 117 53 117 53 235 c 128,-1,9
235 637 m 2,16,17
 249 653 249 653 266.5 653 c 128,-1,18
 284 653 284 653 297 637 c 2,19,-1
 389 530 l 1,20,-1
 366 506 l 1,21,-1
 265 583 l 1,22,-1
 164 506 l 1,23,-1
 142 530 l 1,24,-1
 235 637 l 2,16,17
EndSplineSet
EndChar

StartChar: otilde
Encoding: 245 245 183
Width: 531
GlyphClass: 2
Flags: W
LayerCount: 2
Fore
SplineSet
143 235 m 128,-1,1
 143 131 143 131 171.5 85 c 128,-1,2
 200 39 200 39 265 39 c 128,-1,3
 330 39 330 39 359.5 85 c 128,-1,4
 389 131 389 131 389 235 c 128,-1,5
 389 339 389 339 360 384.5 c 128,-1,6
 331 430 331 430 265.5 430 c 128,-1,7
 200 430 200 430 171.5 384.5 c 128,-1,0
 143 339 143 339 143 235 c 128,-1,1
53 235 m 128,-1,9
 53 353 53 353 106.5 414.5 c 128,-1,10
 160 476 160 476 265 476 c 128,-1,11
 370 476 370 476 423.5 414.5 c 128,-1,12
 477 353 477 353 477 235 c 128,-1,13
 477 117 477 117 423.5 55 c 128,-1,14
 370 -7 370 -7 265 -7 c 128,-1,15
 160 -7 160 -7 106.5 55 c 128,-1,8
 53 117 53 117 53 235 c 128,-1,9
146 605 m 128,-1,17
 172 630 172 630 202 630 c 128,-1,18
 232 630 232 630 268 612.5 c 128,-1,19
 304 595 304 595 328 595 c 128,-1,20
 352 595 352 595 389 632 c 1,21,22
 406 626 406 626 422 613 c 1,23,24
 410 585 410 585 383.5 559 c 128,-1,25
 357 533 357 533 328 533 c 128,-1,26
 299 533 299 533 262.5 550.5 c 128,-1,27
 226 568 226 568 201 568 c 128,-1,28
 176 568 176 568 141 533 c 1,29,30
 125 537 125 537 109 552 c 1,31,16
 120 580 120 580 146 605 c 128,-1,17
EndSplineSet
EndChar

StartChar: odieresis
Encoding: 246 246 184
Width: 531
GlyphClass: 2
Flags: W
LayerCount: 2
Fore
SplineSet
143 235 m 128,-1,1
 143 131 143 131 171.5 85 c 128,-1,2
 200 39 200 39 265 39 c 128,-1,3
 330 39 330 39 359.5 85 c 128,-1,4
 389 131 389 131 389 235 c 128,-1,5
 389 339 389 339 360 384.5 c 128,-1,6
 331 430 331 430 265.5 430 c 128,-1,7
 200 430 200 430 171.5 384.5 c 128,-1,0
 143 339 143 339 143 235 c 128,-1,1
53 235 m 128,-1,9
 53 353 53 353 106.5 414.5 c 128,-1,10
 160 476 160 476 265 476 c 128,-1,11
 370 476 370 476 423.5 414.5 c 128,-1,12
 477 353 477 353 477 235 c 128,-1,13
 477 117 477 117 423.5 55 c 128,-1,14
 370 -7 370 -7 265 -7 c 128,-1,15
 160 -7 160 -7 106.5 55 c 128,-1,8
 53 117 53 117 53 235 c 128,-1,9
182 540 m 128,-1,17
 135 540 135 540 135 592.5 c 128,-1,18
 135 645 135 645 182 645 c 128,-1,19
 229 645 229 645 229 592.5 c 128,-1,16
 229 540 229 540 182 540 c 128,-1,17
348 540 m 0,20,21
 302 540 302 540 302 592.5 c 128,-1,22
 302 645 302 645 348 645 c 0,23,24
 396 645 396 645 396 592.5 c 128,-1,25
 396 540 396 540 348 540 c 0,20,21
EndSplineSet
EndChar

StartChar: divide
Encoding: 247 247 185
Width: 554
GlyphClass: 2
Flags: W
LayerCount: 2
Fore
SplineSet
62 259 m 1,0,-1
 62 312 l 1,1,-1
 491 312 l 1,2,-1
 491 259 l 1,3,-1
 62 259 l 1,0,-1
274 78 m 0,4,5
 228 78 228 78 228 130.5 c 128,-1,6
 228 183 228 183 274 183 c 0,7,8
 323 183 323 183 323 130.5 c 128,-1,9
 323 78 323 78 274 78 c 0,4,5
274 388 m 0,10,11
 228 388 228 388 228 440.5 c 128,-1,12
 228 493 228 493 274 493 c 0,13,14
 323 493 323 493 323 440.5 c 128,-1,15
 323 388 323 388 274 388 c 0,10,11
EndSplineSet
EndChar

StartChar: oslash
Encoding: 248 248 186
Width: 531
GlyphClass: 2
Flags: W
LayerCount: 2
Fore
SplineSet
96 68 m 1,0,1
 53 127 53 127 53 240 c 128,-1,2
 53 353 53 353 106.5 414.5 c 128,-1,3
 160 476 160 476 265 476 c 0,4,5
 349 476 349 476 401 436 c 1,6,-1
 441 484 l 1,7,-1
 449 484 l 1,8,9
 461 476 461 476 470 464 c 1,10,-1
 426 411 l 1,11,12
 477 351 477 351 477 234 c 128,-1,13
 477 117 477 117 423.5 55 c 128,-1,14
 370 -7 370 -7 271 -7 c 128,-1,15
 172 -7 172 -7 119 41 c 1,16,-1
 71 -17 l 1,17,-1
 65 -17 l 1,18,19
 57 -11 57 -11 43 3 c 1,20,-1
 96 68 l 1,0,1
359.5 85 m 128,-1,22
 389 131 389 131 389 219.5 c 128,-1,23
 389 308 389 308 375 350 c 1,24,-1
 165 96 l 1,25,26
 193 39 193 39 261.5 39 c 128,-1,21
 330 39 330 39 359.5 85 c 128,-1,22
143 235 m 0,27,28
 143 176 143 176 152 135 c 1,29,-1
 359 385 l 1,30,31
 330 430 330 430 265 430 c 128,-1,32
 200 430 200 430 171.5 384.5 c 128,-1,33
 143 339 143 339 143 235 c 0,27,28
EndSplineSet
EndChar

StartChar: ugrave
Encoding: 249 249 187
Width: 552
GlyphClass: 2
Flags: W
LayerCount: 2
Fore
SplineSet
254 -7 m 0,0,1
 93 -7 93 -7 93 154 c 2,2,-1
 93 349 l 2,3,4
 93 386 93 386 78 399.5 c 128,-1,5
 63 413 63 413 24 415 c 1,6,-1
 26 444 l 1,7,8
 60 450 60 450 159 479 c 1,9,-1
 179 469 l 1,10,-1
 179 143 l 2,11,12
 179 38 179 38 265 38 c 0,13,14
 291 38 291 38 320 57.5 c 128,-1,15
 349 77 349 77 371 117 c 1,16,-1
 371 349 l 2,17,18
 371 386 371 386 355.5 399.5 c 128,-1,19
 340 413 340 413 301 415 c 1,20,-1
 304 444 l 1,21,22
 338 450 338 450 437 479 c 1,23,-1
 456 469 l 1,24,-1
 456 62 l 1,25,26
 478 43 478 43 525 35 c 1,27,-1
 522 0 l 1,28,-1
 389 0 l 1,29,-1
 379 63 l 1,30,31
 327 -7 327 -7 254 -7 c 0,0,1
199 589 m 1,32,33
 174 611 174 611 174 626.5 c 128,-1,34
 174 642 174 642 185 652.5 c 128,-1,35
 196 663 196 663 212.5 663 c 128,-1,36
 229 663 229 663 242 646 c 2,37,-1
 325 530 l 1,38,-1
 301 506 l 1,39,-1
 199 589 l 1,32,33
EndSplineSet
EndChar

StartChar: uacute
Encoding: 250 250 188
Width: 552
GlyphClass: 2
Flags: W
LayerCount: 2
Fore
SplineSet
254 -7 m 0,0,1
 93 -7 93 -7 93 154 c 2,2,-1
 93 349 l 2,3,4
 93 386 93 386 78 399.5 c 128,-1,5
 63 413 63 413 24 415 c 1,6,-1
 26 444 l 1,7,8
 60 450 60 450 159 479 c 1,9,-1
 179 469 l 1,10,-1
 179 143 l 2,11,12
 179 38 179 38 265 38 c 0,13,14
 291 38 291 38 320 57.5 c 128,-1,15
 349 77 349 77 371 117 c 1,16,-1
 371 349 l 2,17,18
 371 386 371 386 355.5 399.5 c 128,-1,19
 340 413 340 413 301 415 c 1,20,-1
 304 444 l 1,21,22
 338 450 338 450 437 479 c 1,23,-1
 456 469 l 1,24,-1
 456 62 l 1,25,26
 478 43 478 43 525 35 c 1,27,-1
 522 0 l 1,28,-1
 389 0 l 1,29,-1
 379 63 l 1,30,31
 327 -7 327 -7 254 -7 c 0,0,1
322 646 m 2,32,33
 335 663 335 663 351.5 663 c 128,-1,34
 368 663 368 663 379 652.5 c 128,-1,35
 390 642 390 642 390 626.5 c 128,-1,36
 390 611 390 611 365 589 c 1,37,-1
 261 506 l 1,38,-1
 239 530 l 1,39,-1
 322 646 l 2,32,33
EndSplineSet
EndChar

StartChar: ucircumflex
Encoding: 251 251 189
Width: 552
GlyphClass: 2
Flags: W
LayerCount: 2
Fore
SplineSet
254 -7 m 0,0,1
 93 -7 93 -7 93 154 c 2,2,-1
 93 349 l 2,3,4
 93 386 93 386 78 399.5 c 128,-1,5
 63 413 63 413 24 415 c 1,6,-1
 26 444 l 1,7,8
 60 450 60 450 159 479 c 1,9,-1
 179 469 l 1,10,-1
 179 143 l 2,11,12
 179 38 179 38 265 38 c 0,13,14
 291 38 291 38 320 57.5 c 128,-1,15
 349 77 349 77 371 117 c 1,16,-1
 371 349 l 2,17,18
 371 386 371 386 355.5 399.5 c 128,-1,19
 340 413 340 413 301 415 c 1,20,-1
 304 444 l 1,21,22
 338 450 338 450 437 479 c 1,23,-1
 456 469 l 1,24,-1
 456 62 l 1,25,26
 478 43 478 43 525 35 c 1,27,-1
 522 0 l 1,28,-1
 389 0 l 1,29,-1
 379 63 l 1,30,31
 327 -7 327 -7 254 -7 c 0,0,1
244 637 m 2,32,33
 258 653 258 653 275.5 653 c 128,-1,34
 293 653 293 653 306 637 c 2,35,-1
 398 530 l 1,36,-1
 375 506 l 1,37,-1
 274 583 l 1,38,-1
 173 506 l 1,39,-1
 151 530 l 1,40,-1
 244 637 l 2,32,33
EndSplineSet
EndChar

StartChar: udieresis
Encoding: 252 252 190
Width: 552
GlyphClass: 2
Flags: W
LayerCount: 2
Fore
SplineSet
254 -7 m 0,0,1
 93 -7 93 -7 93 154 c 2,2,-1
 93 349 l 2,3,4
 93 386 93 386 78 399.5 c 128,-1,5
 63 413 63 413 24 415 c 1,6,-1
 26 444 l 1,7,8
 60 450 60 450 159 479 c 1,9,-1
 179 469 l 1,10,-1
 179 143 l 2,11,12
 179 38 179 38 265 38 c 0,13,14
 291 38 291 38 320 57.5 c 128,-1,15
 349 77 349 77 371 117 c 1,16,-1
 371 349 l 2,17,18
 371 386 371 386 355.5 399.5 c 128,-1,19
 340 413 340 413 301 415 c 1,20,-1
 304 444 l 1,21,22
 338 450 338 450 437 479 c 1,23,-1
 456 469 l 1,24,-1
 456 62 l 1,25,26
 478 43 478 43 525 35 c 1,27,-1
 522 0 l 1,28,-1
 389 0 l 1,29,-1
 379 63 l 1,30,31
 327 -7 327 -7 254 -7 c 0,0,1
191 540 m 128,-1,33
 144 540 144 540 144 592.5 c 128,-1,34
 144 645 144 645 191 645 c 128,-1,35
 238 645 238 645 238 592.5 c 128,-1,32
 238 540 238 540 191 540 c 128,-1,33
357 540 m 0,36,37
 311 540 311 540 311 592.5 c 128,-1,38
 311 645 311 645 357 645 c 0,39,40
 405 645 405 645 405 592.5 c 128,-1,41
 405 540 405 540 357 540 c 0,36,37
EndSplineSet
EndChar

StartChar: yacute
Encoding: 253 253 191
Width: 504
GlyphClass: 2
Flags: W
LayerCount: 2
Fore
SplineSet
202.5 -187.5 m 128,-1,1
 171 -218 171 -218 127.5 -218 c 128,-1,2
 84 -218 84 -218 58 -196.5 c 128,-1,3
 32 -175 32 -175 32 -144.5 c 128,-1,4
 32 -114 32 -114 46 -99 c 128,-1,5
 60 -84 60 -84 79.5 -84 c 128,-1,6
 99 -84 99 -84 116 -95 c 1,7,8
 104 -112 104 -112 104 -128.5 c 128,-1,9
 104 -145 104 -145 113 -154.5 c 128,-1,10
 122 -164 122 -164 140 -164 c 0,11,12
 177 -164 177 -164 207 -73 c 2,13,-1
 228 -8 l 1,14,-1
 64 394 l 2,15,16
 51 426 51 426 -7 436 c 1,17,-1
 -5 467 l 1,18,-1
 213 467 l 1,19,-1
 210 437 l 1,20,21
 172 434 172 434 151 415 c 1,22,-1
 267 110 l 1,23,-1
 366 415 l 1,24,25
 344 432 344 432 307 437 c 1,26,-1
 309 467 l 1,27,-1
 504 467 l 1,28,-1
 502 437 l 1,29,30
 436 427 436 427 429 407 c 2,31,-1
 259 -84 l 2,32,0
 234 -157 234 -157 202.5 -187.5 c 128,-1,1
296 646 m 2,33,34
 309 663 309 663 325.5 663 c 128,-1,35
 342 663 342 663 353 652.5 c 128,-1,36
 364 642 364 642 364 626.5 c 128,-1,37
 364 611 364 611 339 589 c 1,38,-1
 235 506 l 1,39,-1
 213 530 l 1,40,-1
 296 646 l 2,33,34
EndSplineSet
EndChar

StartChar: thorn
Encoding: 254 254 192
Width: 547
GlyphClass: 2
Flags: W
LayerCount: 2
Fore
SplineSet
93 567 m 2,0,1
 93 604 93 604 78 617.5 c 128,-1,2
 63 631 63 631 24 633 c 1,3,-1
 26 662 l 1,4,5
 60 668 60 668 159 697 c 1,6,-1
 179 687 l 1,7,-1
 179 410 l 1,8,9
 221 476 221 476 307 476 c 0,10,11
 490 476 490 476 490 244 c 0,12,13
 490 122 490 122 432 57.5 c 128,-1,14
 374 -7 374 -7 264 -7 c 0,15,16
 217 -7 217 -7 179 9 c 1,17,-1
 179 -149 l 1,18,19
 203 -168 203 -168 248 -176 c 1,20,-1
 245 -210 l 1,21,-1
 24 -210 l 1,22,-1
 27 -174 l 1,23,24
 67 -169 67 -169 93 -149 c 1,25,-1
 93 567 l 2,0,1
298 433 m 0,26,27
 179 433 179 433 179 245 c 2,28,-1
 179 54 l 1,29,30
 215 35 215 35 273 35 c 128,-1,31
 331 35 331 35 366.5 90 c 128,-1,32
 402 145 402 145 402 243 c 128,-1,33
 402 341 402 341 376.5 387 c 128,-1,34
 351 433 351 433 298 433 c 0,26,27
EndSplineSet
EndChar

StartChar: ydieresis
Encoding: 255 255 193
Width: 504
GlyphClass: 2
Flags: W
LayerCount: 2
Fore
SplineSet
202.5 -187.5 m 128,-1,1
 171 -218 171 -218 127.5 -218 c 128,-1,2
 84 -218 84 -218 58 -196.5 c 128,-1,3
 32 -175 32 -175 32 -144.5 c 128,-1,4
 32 -114 32 -114 46 -99 c 128,-1,5
 60 -84 60 -84 79.5 -84 c 128,-1,6
 99 -84 99 -84 116 -95 c 1,7,8
 104 -112 104 -112 104 -128.5 c 128,-1,9
 104 -145 104 -145 113 -154.5 c 128,-1,10
 122 -164 122 -164 140 -164 c 0,11,12
 177 -164 177 -164 207 -73 c 2,13,-1
 228 -8 l 1,14,-1
 64 394 l 2,15,16
 51 426 51 426 -7 436 c 1,17,-1
 -5 467 l 1,18,-1
 213 467 l 1,19,-1
 210 437 l 1,20,21
 172 434 172 434 151 415 c 1,22,-1
 267 110 l 1,23,-1
 366 415 l 1,24,25
 344 432 344 432 307 437 c 1,26,-1
 309 467 l 1,27,-1
 504 467 l 1,28,-1
 502 437 l 1,29,30
 436 427 436 427 429 407 c 2,31,-1
 259 -84 l 2,32,0
 234 -157 234 -157 202.5 -187.5 c 128,-1,1
165 540 m 128,-1,34
 118 540 118 540 118 592.5 c 128,-1,35
 118 645 118 645 165 645 c 128,-1,36
 212 645 212 645 212 592.5 c 128,-1,33
 212 540 212 540 165 540 c 128,-1,34
331 540 m 0,37,38
 285 540 285 540 285 592.5 c 128,-1,39
 285 645 285 645 331 645 c 0,40,41
 379 645 379 645 379 592.5 c 128,-1,42
 379 540 379 540 331 540 c 0,37,38
EndSplineSet
EndChar

StartChar: Amacron
Encoding: 256 256 194
Width: 623
GlyphClass: 2
Flags: W
LayerCount: 2
Fore
SplineSet
13 0 m 1,0,-1
 18 37 l 1,1,2
 63 44 63 44 89 63 c 1,3,-1
 276 667 l 1,4,-1
 336 667 l 1,5,-1
 542 62 l 1,6,7
 567 44 567 44 608 37 c 1,8,-1
 604 0 l 1,9,-1
 354 0 l 1,10,-1
 359 37 l 1,11,12
 417 44 417 44 451 64 c 1,13,-1
 400 215 l 1,14,-1
 198 215 l 1,15,-1
 152 64 l 1,16,17
 185 45 185 45 249 37 c 1,18,-1
 245 0 l 1,19,-1
 13 0 l 1,0,-1
295 528 m 1,20,-1
 214 267 l 1,21,-1
 383 267 l 1,22,-1
 295 528 l 1,20,-1
170 740 m 1,23,-1
 170 784 l 1,24,-1
 448 784 l 1,25,-1
 448 740 l 1,26,-1
 170 740 l 1,23,-1
EndSplineSet
EndChar

StartChar: amacron
Encoding: 257 257 195
Width: 488
GlyphClass: 2
Flags: W
LayerCount: 2
Fore
SplineSet
171 -7 m 0,0,1
 109 -7 109 -7 75 23 c 128,-1,2
 41 53 41 53 41 112.5 c 128,-1,3
 41 172 41 172 89 209.5 c 128,-1,4
 137 247 137 247 228 253 c 2,5,-1
 310 259 l 1,6,-1
 310 340 l 2,7,8
 310 390 310 390 289 413 c 128,-1,9
 268 436 268 436 221 436 c 0,10,11
 138 436 138 436 138 391 c 0,12,13
 138 365 138 365 168 354 c 1,14,15
 168 306 168 306 111 306 c 0,16,17
 85 306 85 306 69 322 c 128,-1,18
 53 338 53 338 53 364 c 0,19,20
 53 415 53 415 98.5 445.5 c 128,-1,21
 144 476 144 476 223.5 476 c 128,-1,22
 303 476 303 476 349 440 c 128,-1,23
 395 404 395 404 395 340 c 2,24,-1
 395 61 l 1,25,26
 418 44 418 44 465 34 c 1,27,-1
 461 0 l 1,28,-1
 323 0 l 1,29,-1
 313 45 l 1,30,31
 257 -7 257 -7 171 -7 c 0,0,1
129 116 m 0,32,33
 129 34 129 34 196 34 c 0,34,35
 249 34 249 34 310 92 c 1,36,-1
 310 218 l 1,37,-1
 230 211 l 2,38,39
 183 207 183 207 156 181.5 c 128,-1,40
 129 156 129 156 129 116 c 0,32,33
89 550 m 1,41,-1
 89 594 l 1,42,-1
 367 594 l 1,43,-1
 367 550 l 1,44,-1
 89 550 l 1,41,-1
EndSplineSet
EndChar

StartChar: Abreve
Encoding: 258 258 196
Width: 623
GlyphClass: 2
Flags: W
LayerCount: 2
Fore
SplineSet
13 0 m 1,0,-1
 18 37 l 1,1,2
 63 44 63 44 89 63 c 1,3,-1
 276 667 l 1,4,-1
 336 667 l 1,5,-1
 542 62 l 1,6,7
 567 44 567 44 608 37 c 1,8,-1
 604 0 l 1,9,-1
 354 0 l 1,10,-1
 359 37 l 1,11,12
 417 44 417 44 451 64 c 1,13,-1
 400 215 l 1,14,-1
 198 215 l 1,15,-1
 152 64 l 1,16,17
 185 45 185 45 249 37 c 1,18,-1
 245 0 l 1,19,-1
 13 0 l 1,0,-1
295 528 m 1,20,-1
 214 267 l 1,21,-1
 383 267 l 1,22,-1
 295 528 l 1,20,-1
309 706 m 128,-1,24
 259 706 259 706 227 738.5 c 128,-1,25
 195 771 195 771 192 824 c 1,26,27
 213 831 213 831 231 831 c 1,28,29
 233 799 233 799 254.5 779.5 c 128,-1,30
 276 760 276 760 309.5 760 c 128,-1,31
 343 760 343 760 364.5 779.5 c 128,-1,32
 386 799 386 799 388 831 c 1,33,34
 410 831 410 831 426 825 c 1,35,36
 424 771 424 771 391.5 738.5 c 128,-1,23
 359 706 359 706 309 706 c 128,-1,24
EndSplineSet
EndChar

StartChar: abreve
Encoding: 259 259 197
Width: 488
GlyphClass: 2
Flags: W
LayerCount: 2
Fore
SplineSet
171 -7 m 0,0,1
 109 -7 109 -7 75 23 c 128,-1,2
 41 53 41 53 41 112.5 c 128,-1,3
 41 172 41 172 89 209.5 c 128,-1,4
 137 247 137 247 228 253 c 2,5,-1
 310 259 l 1,6,-1
 310 340 l 2,7,8
 310 390 310 390 289 413 c 128,-1,9
 268 436 268 436 221 436 c 0,10,11
 138 436 138 436 138 391 c 0,12,13
 138 365 138 365 168 354 c 1,14,15
 168 306 168 306 111 306 c 0,16,17
 85 306 85 306 69 322 c 128,-1,18
 53 338 53 338 53 364 c 0,19,20
 53 415 53 415 98.5 445.5 c 128,-1,21
 144 476 144 476 223.5 476 c 128,-1,22
 303 476 303 476 349 440 c 128,-1,23
 395 404 395 404 395 340 c 2,24,-1
 395 61 l 1,25,26
 418 44 418 44 465 34 c 1,27,-1
 461 0 l 1,28,-1
 323 0 l 1,29,-1
 313 45 l 1,30,31
 257 -7 257 -7 171 -7 c 0,0,1
129 116 m 0,32,33
 129 34 129 34 196 34 c 0,34,35
 249 34 249 34 310 92 c 1,36,-1
 310 218 l 1,37,-1
 230 211 l 2,38,39
 183 207 183 207 156 181.5 c 128,-1,40
 129 156 129 156 129 116 c 0,32,33
228 516 m 128,-1,42
 178 516 178 516 146 548.5 c 128,-1,43
 114 581 114 581 111 634 c 1,44,45
 132 641 132 641 150 641 c 1,46,47
 152 609 152 609 173.5 589.5 c 128,-1,48
 195 570 195 570 228.5 570 c 128,-1,49
 262 570 262 570 283.5 589.5 c 128,-1,50
 305 609 305 609 307 641 c 1,51,52
 328 641 328 641 345 635 c 1,53,54
 343 581 343 581 310.5 548.5 c 128,-1,41
 278 516 278 516 228 516 c 128,-1,42
EndSplineSet
EndChar

StartChar: Aogonek
Encoding: 260 260 198
Width: 623
GlyphClass: 2
Flags: W
LayerCount: 2
Fore
SplineSet
554 0 m 2,0,1
 506 0 506 0 475.5 -37 c 128,-1,2
 445 -74 445 -74 445 -111 c 0,3,4
 445 -159 445 -159 487 -159 c 0,5,6
 509 -159 509 -159 536 -144 c 1,7,-1
 553 -165 l 1,8,9
 517 -204 517 -204 464 -204 c 0,10,11
 428 -204 428 -204 402.5 -184 c 128,-1,12
 377 -164 377 -164 377 -129 c 0,13,14
 377 -98 377 -98 400 -66 c 0,15,16
 407 -57 407 -57 424 -37 c 128,-1,17
 441 -17 441 -17 450 -5.5 c 128,-1,18
 459 6 459 6 459 24 c 128,-1,19
 459 42 459 42 451 64 c 2,20,-1
 400 215 l 1,21,-1
 198 215 l 1,22,-1
 152 64 l 1,23,24
 185 45 185 45 249 37 c 1,25,-1
 245 0 l 1,26,-1
 13 0 l 1,27,-1
 18 37 l 1,28,29
 63 44 63 44 89 63 c 1,30,-1
 276 667 l 1,31,-1
 336 667 l 1,32,-1
 542 62 l 1,33,34
 567 44 567 44 608 37 c 1,35,-1
 604 0 l 1,36,-1
 554 0 l 2,0,1
295 528 m 1,37,-1
 214 267 l 1,38,-1
 383 267 l 1,39,-1
 295 528 l 1,37,-1
EndSplineSet
EndChar

StartChar: aogonek
Encoding: 261 261 199
Width: 488
GlyphClass: 2
Flags: W
LayerCount: 2
Fore
SplineSet
406 0 m 2,0,1
 361 0 361 0 331.5 -37 c 128,-1,2
 302 -74 302 -74 302 -111 c 0,3,4
 302 -159 302 -159 344 -159 c 0,5,6
 366 -159 366 -159 393 -144 c 1,7,-1
 410 -165 l 1,8,9
 374 -204 374 -204 321 -204 c 0,10,11
 285 -204 285 -204 259.5 -184 c 128,-1,12
 234 -164 234 -164 234 -133.5 c 128,-1,13
 234 -103 234 -103 255.5 -73.5 c 128,-1,14
 277 -44 277 -44 298 -19.5 c 128,-1,15
 319 5 319 5 319 18 c 128,-1,16
 319 31 319 31 316 48 c 1,17,18
 284 19 284 19 252 6 c 128,-1,19
 220 -7 220 -7 164.5 -7 c 128,-1,20
 109 -7 109 -7 75 23 c 128,-1,21
 41 53 41 53 41 112.5 c 128,-1,22
 41 172 41 172 89 209.5 c 128,-1,23
 137 247 137 247 228 253 c 2,24,-1
 310 259 l 1,25,-1
 310 340 l 2,26,27
 310 390 310 390 289 413 c 128,-1,28
 268 436 268 436 221 436 c 0,29,30
 138 436 138 436 138 391 c 0,31,32
 138 365 138 365 168 354 c 1,33,34
 168 306 168 306 111 306 c 0,35,36
 85 306 85 306 69 322 c 128,-1,37
 53 338 53 338 53 364 c 0,38,39
 53 415 53 415 98.5 445.5 c 128,-1,40
 144 476 144 476 223.5 476 c 128,-1,41
 303 476 303 476 349 440 c 128,-1,42
 395 404 395 404 395 340 c 2,43,-1
 395 61 l 1,44,45
 418 44 418 44 465 34 c 1,46,-1
 461 0 l 1,47,-1
 406 0 l 2,0,1
129 116 m 0,48,49
 129 34 129 34 196 34 c 0,50,51
 249 34 249 34 310 92 c 1,52,-1
 310 218 l 1,53,-1
 230 211 l 2,54,55
 183 207 183 207 156 181.5 c 128,-1,56
 129 156 129 156 129 116 c 0,48,49
EndSplineSet
EndChar

StartChar: Cacute
Encoding: 262 262 200
Width: 562
GlyphClass: 2
Flags: W
LayerCount: 2
Fore
SplineSet
322 -7 m 0,0,1
 190 -7 190 -7 127 76 c 128,-1,2
 64 159 64 159 64 333.5 c 128,-1,3
 64 508 64 508 127.5 592 c 128,-1,4
 191 676 191 676 323 676 c 0,5,6
 409 676 409 676 465.5 638.5 c 128,-1,7
 522 601 522 601 522 544 c 0,8,9
 522 511 522 511 505 488 c 128,-1,10
 488 465 488 465 466 465 c 128,-1,11
 444 465 444 465 428 476 c 128,-1,12
 412 487 412 487 406 504 c 1,13,14
 425 530 425 530 425 557.5 c 128,-1,15
 425 585 425 585 397 603.5 c 128,-1,16
 369 622 369 622 323 622 c 0,17,18
 242 622 242 622 203 551.5 c 128,-1,19
 164 481 164 481 164 335 c 128,-1,20
 164 189 164 189 202.5 121 c 128,-1,21
 241 53 241 53 323 53 c 0,22,23
 375 53 375 53 424.5 77.5 c 128,-1,24
 474 102 474 102 499 135 c 1,25,-1
 534 97 l 1,26,27
 525 85 525 85 500.5 64 c 128,-1,28
 476 43 476 43 453 29 c 0,29,30
 394 -7 394 -7 322 -7 c 0,0,1
359 846 m 2,31,32
 372 863 372 863 388.5 863 c 128,-1,33
 405 863 405 863 416 852.5 c 128,-1,34
 427 842 427 842 427 826.5 c 128,-1,35
 427 811 427 811 402 789 c 1,36,-1
 298 706 l 1,37,-1
 276 730 l 1,38,-1
 359 846 l 2,31,32
EndSplineSet
EndChar

StartChar: cacute
Encoding: 263 263 201
Width: 441
GlyphClass: 2
Flags: W
LayerCount: 2
Fore
SplineSet
257 476 m 0,0,1
 326 476 326 476 368.5 446.5 c 128,-1,2
 411 417 411 417 411 370 c 0,3,4
 411 347 411 347 395.5 329 c 128,-1,5
 380 311 380 311 359.5 311 c 128,-1,6
 339 311 339 311 325 321 c 128,-1,7
 311 331 311 331 306 347 c 1,8,9
 319 368 319 368 319 388.5 c 128,-1,10
 319 409 319 409 302 424.5 c 128,-1,11
 285 440 285 440 252.5 440 c 128,-1,12
 220 440 220 440 194.5 424 c 128,-1,13
 169 408 169 408 156 378 c 0,14,15
 135 326 135 326 135 258 c 128,-1,16
 135 190 135 190 139 159 c 128,-1,17
 143 128 143 128 155 99 c 0,18,19
 179 42 179 42 258 42 c 0,20,21
 291 42 291 42 323 54 c 128,-1,22
 355 66 355 66 370 78 c 2,23,-1
 385 89 l 1,24,-1
 411 59 l 1,25,26
 404 52 404 52 391 41 c 128,-1,27
 378 30 378 30 336.5 11.5 c 128,-1,28
 295 -7 295 -7 253 -7 c 0,29,30
 140 -7 140 -7 91 54.5 c 128,-1,31
 42 116 42 116 42 238 c 1,32,33
 45 476 45 476 257 476 c 0,0,1
274 646 m 2,34,35
 287 663 287 663 303.5 663 c 128,-1,36
 320 663 320 663 331 652.5 c 128,-1,37
 342 642 342 642 342 626.5 c 128,-1,38
 342 611 342 611 317 589 c 1,39,-1
 213 506 l 1,40,-1
 191 530 l 1,41,-1
 274 646 l 2,34,35
EndSplineSet
EndChar

StartChar: Ccircumflex
Encoding: 264 264 202
Width: 562
GlyphClass: 2
Flags: W
LayerCount: 2
Fore
SplineSet
322 -7 m 0,0,1
 190 -7 190 -7 127 76 c 128,-1,2
 64 159 64 159 64 333.5 c 128,-1,3
 64 508 64 508 127.5 592 c 128,-1,4
 191 676 191 676 323 676 c 0,5,6
 409 676 409 676 465.5 638.5 c 128,-1,7
 522 601 522 601 522 544 c 0,8,9
 522 511 522 511 505 488 c 128,-1,10
 488 465 488 465 466 465 c 128,-1,11
 444 465 444 465 428 476 c 128,-1,12
 412 487 412 487 406 504 c 1,13,14
 425 530 425 530 425 557.5 c 128,-1,15
 425 585 425 585 397 603.5 c 128,-1,16
 369 622 369 622 323 622 c 0,17,18
 242 622 242 622 203 551.5 c 128,-1,19
 164 481 164 481 164 335 c 128,-1,20
 164 189 164 189 202.5 121 c 128,-1,21
 241 53 241 53 323 53 c 0,22,23
 375 53 375 53 424.5 77.5 c 128,-1,24
 474 102 474 102 499 135 c 1,25,-1
 534 97 l 1,26,27
 525 85 525 85 500.5 64 c 128,-1,28
 476 43 476 43 453 29 c 0,29,30
 394 -7 394 -7 322 -7 c 0,0,1
281 837 m 2,31,32
 295 853 295 853 312.5 853 c 128,-1,33
 330 853 330 853 343 837 c 2,34,-1
 435 730 l 1,35,-1
 412 706 l 1,36,-1
 311 783 l 1,37,-1
 210 706 l 1,38,-1
 188 730 l 1,39,-1
 281 837 l 2,31,32
EndSplineSet
EndChar

StartChar: ccircumflex
Encoding: 265 265 203
Width: 441
GlyphClass: 2
Flags: W
LayerCount: 2
Fore
SplineSet
257 476 m 0,0,1
 326 476 326 476 368.5 446.5 c 128,-1,2
 411 417 411 417 411 370 c 0,3,4
 411 347 411 347 395.5 329 c 128,-1,5
 380 311 380 311 359.5 311 c 128,-1,6
 339 311 339 311 325 321 c 128,-1,7
 311 331 311 331 306 347 c 1,8,9
 319 368 319 368 319 388.5 c 128,-1,10
 319 409 319 409 302 424.5 c 128,-1,11
 285 440 285 440 252.5 440 c 128,-1,12
 220 440 220 440 194.5 424 c 128,-1,13
 169 408 169 408 156 378 c 0,14,15
 135 326 135 326 135 258 c 128,-1,16
 135 190 135 190 139 159 c 128,-1,17
 143 128 143 128 155 99 c 0,18,19
 179 42 179 42 258 42 c 0,20,21
 291 42 291 42 323 54 c 128,-1,22
 355 66 355 66 370 78 c 2,23,-1
 385 89 l 1,24,-1
 411 59 l 1,25,26
 404 52 404 52 391 41 c 128,-1,27
 378 30 378 30 336.5 11.5 c 128,-1,28
 295 -7 295 -7 253 -7 c 0,29,30
 140 -7 140 -7 91 54.5 c 128,-1,31
 42 116 42 116 42 238 c 1,32,33
 45 476 45 476 257 476 c 0,0,1
196 637 m 2,34,35
 210 653 210 653 227.5 653 c 128,-1,36
 245 653 245 653 258 637 c 2,37,-1
 350 530 l 1,38,-1
 327 506 l 1,39,-1
 226 583 l 1,40,-1
 125 506 l 1,41,-1
 103 530 l 1,42,-1
 196 637 l 2,34,35
EndSplineSet
EndChar

StartChar: Cdotaccent
Encoding: 266 266 204
Width: 562
GlyphClass: 2
Flags: W
LayerCount: 2
Fore
SplineSet
322 -7 m 0,0,1
 190 -7 190 -7 127 76 c 128,-1,2
 64 159 64 159 64 333.5 c 128,-1,3
 64 508 64 508 127.5 592 c 128,-1,4
 191 676 191 676 323 676 c 0,5,6
 409 676 409 676 465.5 638.5 c 128,-1,7
 522 601 522 601 522 544 c 0,8,9
 522 511 522 511 505 488 c 128,-1,10
 488 465 488 465 466 465 c 128,-1,11
 444 465 444 465 428 476 c 128,-1,12
 412 487 412 487 406 504 c 1,13,14
 425 530 425 530 425 557.5 c 128,-1,15
 425 585 425 585 397 603.5 c 128,-1,16
 369 622 369 622 323 622 c 0,17,18
 242 622 242 622 203 551.5 c 128,-1,19
 164 481 164 481 164 335 c 128,-1,20
 164 189 164 189 202.5 121 c 128,-1,21
 241 53 241 53 323 53 c 0,22,23
 375 53 375 53 424.5 77.5 c 128,-1,24
 474 102 474 102 499 135 c 1,25,-1
 534 97 l 1,26,27
 525 85 525 85 500.5 64 c 128,-1,28
 476 43 476 43 453 29 c 0,29,30
 394 -7 394 -7 322 -7 c 0,0,1
364 783 m 128,-1,32
 364 725 364 725 311.5 725 c 128,-1,33
 259 725 259 725 259 783 c 128,-1,34
 259 841 259 841 311.5 841 c 128,-1,31
 364 841 364 841 364 783 c 128,-1,32
EndSplineSet
EndChar

StartChar: cdotaccent
Encoding: 267 267 205
Width: 441
GlyphClass: 2
Flags: W
LayerCount: 2
Fore
SplineSet
257 476 m 0,0,1
 326 476 326 476 368.5 446.5 c 128,-1,2
 411 417 411 417 411 370 c 0,3,4
 411 347 411 347 395.5 329 c 128,-1,5
 380 311 380 311 359.5 311 c 128,-1,6
 339 311 339 311 325 321 c 128,-1,7
 311 331 311 331 306 347 c 1,8,9
 319 368 319 368 319 388.5 c 128,-1,10
 319 409 319 409 302 424.5 c 128,-1,11
 285 440 285 440 252.5 440 c 128,-1,12
 220 440 220 440 194.5 424 c 128,-1,13
 169 408 169 408 156 378 c 0,14,15
 135 326 135 326 135 258 c 128,-1,16
 135 190 135 190 139 159 c 128,-1,17
 143 128 143 128 155 99 c 0,18,19
 179 42 179 42 258 42 c 0,20,21
 291 42 291 42 323 54 c 128,-1,22
 355 66 355 66 370 78 c 2,23,-1
 385 89 l 1,24,-1
 411 59 l 1,25,26
 404 52 404 52 391 41 c 128,-1,27
 378 30 378 30 336.5 11.5 c 128,-1,28
 295 -7 295 -7 253 -7 c 0,29,30
 140 -7 140 -7 91 54.5 c 128,-1,31
 42 116 42 116 42 238 c 1,32,33
 45 476 45 476 257 476 c 0,0,1
279 598 m 128,-1,35
 279 540 279 540 226.5 540 c 128,-1,36
 174 540 174 540 174 598 c 128,-1,37
 174 656 174 656 226.5 656 c 128,-1,34
 279 656 279 656 279 598 c 128,-1,35
EndSplineSet
EndChar

StartChar: Ccaron
Encoding: 268 268 206
Width: 562
GlyphClass: 2
Flags: W
LayerCount: 2
Fore
SplineSet
322 -7 m 0,0,1
 190 -7 190 -7 127 76 c 128,-1,2
 64 159 64 159 64 333.5 c 128,-1,3
 64 508 64 508 127.5 592 c 128,-1,4
 191 676 191 676 323 676 c 0,5,6
 409 676 409 676 465.5 638.5 c 128,-1,7
 522 601 522 601 522 544 c 0,8,9
 522 511 522 511 505 488 c 128,-1,10
 488 465 488 465 466 465 c 128,-1,11
 444 465 444 465 428 476 c 128,-1,12
 412 487 412 487 406 504 c 1,13,14
 425 530 425 530 425 557.5 c 128,-1,15
 425 585 425 585 397 603.5 c 128,-1,16
 369 622 369 622 323 622 c 0,17,18
 242 622 242 622 203 551.5 c 128,-1,19
 164 481 164 481 164 335 c 128,-1,20
 164 189 164 189 202.5 121 c 128,-1,21
 241 53 241 53 323 53 c 0,22,23
 375 53 375 53 424.5 77.5 c 128,-1,24
 474 102 474 102 499 135 c 1,25,-1
 534 97 l 1,26,27
 525 85 525 85 500.5 64 c 128,-1,28
 476 43 476 43 453 29 c 0,29,30
 394 -7 394 -7 322 -7 c 0,0,1
342 722 m 2,31,32
 329 706 329 706 311.5 706 c 128,-1,33
 294 706 294 706 280 722 c 2,34,-1
 188 828 l 1,35,-1
 210 853 l 1,36,-1
 311 776 l 1,37,-1
 413 853 l 1,38,-1
 435 828 l 1,39,-1
 342 722 l 2,31,32
EndSplineSet
EndChar

StartChar: ccaron
Encoding: 269 269 207
Width: 441
GlyphClass: 2
Flags: W
LayerCount: 2
Fore
SplineSet
257 476 m 0,0,1
 326 476 326 476 368.5 446.5 c 128,-1,2
 411 417 411 417 411 370 c 0,3,4
 411 347 411 347 395.5 329 c 128,-1,5
 380 311 380 311 359.5 311 c 128,-1,6
 339 311 339 311 325 321 c 128,-1,7
 311 331 311 331 306 347 c 1,8,9
 319 368 319 368 319 388.5 c 128,-1,10
 319 409 319 409 302 424.5 c 128,-1,11
 285 440 285 440 252.5 440 c 128,-1,12
 220 440 220 440 194.5 424 c 128,-1,13
 169 408 169 408 156 378 c 0,14,15
 135 326 135 326 135 258 c 128,-1,16
 135 190 135 190 139 159 c 128,-1,17
 143 128 143 128 155 99 c 0,18,19
 179 42 179 42 258 42 c 0,20,21
 291 42 291 42 323 54 c 128,-1,22
 355 66 355 66 370 78 c 2,23,-1
 385 89 l 1,24,-1
 411 59 l 1,25,26
 404 52 404 52 391 41 c 128,-1,27
 378 30 378 30 336.5 11.5 c 128,-1,28
 295 -7 295 -7 253 -7 c 0,29,30
 140 -7 140 -7 91 54.5 c 128,-1,31
 42 116 42 116 42 238 c 1,32,33
 45 476 45 476 257 476 c 0,0,1
257 522 m 2,34,35
 244 506 244 506 226.5 506 c 128,-1,36
 209 506 209 506 195 522 c 2,37,-1
 103 628 l 1,38,-1
 125 653 l 1,39,-1
 226 576 l 1,40,-1
 328 653 l 1,41,-1
 350 628 l 1,42,-1
 257 522 l 2,34,35
EndSplineSet
EndChar

StartChar: Dcaron
Encoding: 270 270 208
Width: 662
GlyphClass: 2
Flags: W
LayerCount: 2
Fore
SplineSet
260 667 m 2,0,1
 435 667 435 667 522 587 c 128,-1,2
 609 507 609 507 609 332.5 c 128,-1,3
 609 158 609 158 521.5 79 c 128,-1,4
 434 0 434 0 254 0 c 2,5,-1
 41 0 l 1,6,-1
 46 37 l 1,7,8
 107 45 107 45 137 63 c 1,9,-1
 137 604 l 1,10,11
 102 623 102 623 40 631 c 1,12,-1
 45 667 l 1,13,-1
 260 667 l 2,0,1
274 617 m 2,14,-1
 226 617 l 1,15,-1
 226 53 l 1,16,17
 243 49 243 49 271 49 c 0,18,19
 391 49 391 49 450 113.5 c 128,-1,20
 509 178 509 178 509 333.5 c 128,-1,21
 509 489 509 489 451 553 c 128,-1,22
 393 617 393 617 274 617 c 2,14,-1
355 722 m 2,23,24
 342 706 342 706 324.5 706 c 128,-1,25
 307 706 307 706 293 722 c 2,26,-1
 201 828 l 1,27,-1
 223 853 l 1,28,-1
 324 776 l 1,29,-1
 426 853 l 1,30,-1
 448 828 l 1,31,-1
 355 722 l 2,23,24
EndSplineSet
EndChar

StartChar: dcaron
Encoding: 271 271 209
Width: 678
GlyphClass: 2
Flags: W
LayerCount: 2
Fore
SplineSet
238 -7 m 0,0,1
 55 -7 55 -7 55 224 c 0,2,3
 55 347 55 347 113 411.5 c 128,-1,4
 171 476 171 476 281 476 c 0,5,6
 324 476 324 476 366 459 c 1,7,-1
 366 567 l 2,8,9
 366 604 366 604 351 617.5 c 128,-1,10
 336 631 336 631 297 633 c 1,11,-1
 299 662 l 1,12,13
 333 668 333 668 432 697 c 1,14,-1
 452 687 l 1,15,-1
 452 61 l 1,16,17
 475 43 475 43 521 34 c 1,18,-1
 518 0 l 1,19,-1
 374 0 l 1,20,-1
 366 59 l 1,21,22
 324 -7 324 -7 238 -7 c 0,0,1
247 36 m 0,23,24
 366 36 366 36 366 224 c 2,25,-1
 366 414 l 1,26,27
 328 434 328 434 278 434 c 0,28,29
 214 434 214 434 178.5 379 c 128,-1,30
 143 324 143 324 143 225.5 c 128,-1,31
 143 127 143 127 168.5 81.5 c 128,-1,32
 194 36 194 36 247 36 c 0,23,24
524 506 m 1,33,34
 542 553 542 553 542 589.5 c 128,-1,35
 542 626 542 626 520 645 c 1,36,37
 535 667 535 667 558.5 667 c 128,-1,38
 582 667 582 667 596 654 c 128,-1,39
 610 641 610 641 610 620 c 0,40,41
 610 566 610 566 555 493 c 1,42,-1
 524 506 l 1,33,34
EndSplineSet
EndChar

StartChar: Dcroat
Encoding: 272 272 210
Width: 665
GlyphClass: 2
Flags: W
LayerCount: 2
Fore
SplineSet
260 667 m 2,0,1
 435 667 435 667 522 587 c 128,-1,2
 609 507 609 507 609 332.5 c 128,-1,3
 609 158 609 158 521.5 79 c 128,-1,4
 434 0 434 0 254 0 c 2,5,-1
 41 0 l 1,6,-1
 46 37 l 1,7,8
 107 45 107 45 137 63 c 1,9,-1
 137 604 l 1,10,11
 102 623 102 623 40 631 c 1,12,-1
 45 667 l 1,13,-1
 260 667 l 2,0,1
274 617 m 2,14,-1
 226 617 l 1,15,-1
 226 53 l 1,16,17
 243 49 243 49 271 49 c 0,18,19
 391 49 391 49 450 113.5 c 128,-1,20
 509 178 509 178 509 333.5 c 128,-1,21
 509 489 509 489 451 553 c 128,-1,22
 393 617 393 617 274 617 c 2,14,-1
60 304 m 1,23,-1
 60 348 l 1,24,-1
 338 348 l 1,25,-1
 338 304 l 1,26,-1
 60 304 l 1,23,-1
EndSplineSet
EndChar

StartChar: dcroat
Encoding: 273 273 211
Width: 555
GlyphClass: 2
Flags: W
LayerCount: 2
Fore
SplineSet
244 525 m 1,0,-1
 244 569 l 1,1,-1
 522 569 l 1,2,-1
 522 525 l 1,3,-1
 244 525 l 1,0,-1
235 -7 m 0,4,5
 52 -7 52 -7 52 224 c 0,6,7
 52 347 52 347 110 411.5 c 128,-1,8
 168 476 168 476 278 476 c 0,9,10
 321 476 321 476 363 459 c 1,11,-1
 363 567 l 2,12,13
 363 604 363 604 348 617.5 c 128,-1,14
 333 631 333 631 294 633 c 1,15,-1
 296 662 l 1,16,17
 330 668 330 668 429 697 c 1,18,-1
 449 687 l 1,19,-1
 449 61 l 1,20,21
 472 43 472 43 518 34 c 1,22,-1
 515 0 l 1,23,-1
 371 0 l 1,24,-1
 363 59 l 1,25,26
 321 -7 321 -7 235 -7 c 0,4,5
244 36 m 0,27,28
 363 36 363 36 363 224 c 2,29,-1
 363 414 l 1,30,31
 325 434 325 434 275 434 c 0,32,33
 211 434 211 434 175.5 379 c 128,-1,34
 140 324 140 324 140 225.5 c 128,-1,35
 140 127 140 127 165.5 81.5 c 128,-1,36
 191 36 191 36 244 36 c 0,27,28
EndSplineSet
EndChar

StartChar: Emacron
Encoding: 274 274 212
Width: 575
GlyphClass: 2
Flags: W
LayerCount: 2
Fore
SplineSet
490 515 m 1,0,1
 477 510 477 510 467 510 c 128,-1,2
 457 510 457 510 447 512 c 1,3,4
 434 578 434 578 405 614 c 1,5,-1
 217 614 l 1,6,-1
 217 364 l 1,7,-1
 330 369 l 2,8,9
 369 370 369 370 386 436 c 1,10,-1
 418 436 l 1,11,-1
 418 238 l 1,12,-1
 386 238 l 1,13,14
 381 262 381 262 376 274 c 128,-1,15
 371 286 371 286 358.5 298.5 c 128,-1,16
 346 311 346 311 329 312 c 2,17,-1
 217 318 l 1,18,-1
 217 58 l 1,19,-1
 430 58 l 1,20,21
 460 100 460 100 473 171 c 1,22,23
 485 173 485 173 491 173 c 128,-1,24
 497 173 497 173 513 171 c 1,25,-1
 504 0 l 1,26,-1
 31 0 l 1,27,-1
 37 37 l 1,28,29
 104 45 104 45 129 64 c 1,30,-1
 129 604 l 1,31,32
 91 624 91 624 31 631 c 1,33,34
 35 655 35 655 36 667 c 1,35,-1
 482 667 l 1,36,-1
 490 515 l 1,0,1
133 740 m 1,37,-1
 133 784 l 1,38,-1
 411 784 l 1,39,-1
 411 740 l 1,40,-1
 133 740 l 1,37,-1
EndSplineSet
EndChar

StartChar: emacron
Encoding: 275 275 213
Width: 488
GlyphClass: 2
Flags: W
LayerCount: 2
Fore
SplineSet
152 243 m 1,0,-1
 152 238 l 2,1,2
 152 116 152 116 183 78 c 0,3,4
 212 42 212 42 275 42 c 0,5,6
 308 42 308 42 340 54 c 128,-1,7
 372 66 372 66 388 78 c 2,8,-1
 403 89 l 1,9,-1
 428 59 l 1,10,11
 421 52 421 52 408 41 c 128,-1,12
 395 30 395 30 354 11.5 c 128,-1,13
 313 -7 313 -7 271 -7 c 0,14,15
 157 -7 157 -7 108.5 54.5 c 128,-1,16
 60 116 60 116 60 232.5 c 128,-1,17
 60 349 60 349 113.5 412.5 c 128,-1,18
 167 476 167 476 267.5 476 c 128,-1,19
 368 476 368 476 408 424 c 128,-1,20
 448 372 448 372 451 270 c 1,21,-1
 430 243 l 1,22,-1
 152 243 l 1,0,-1
265 436 m 0,23,24
 155 436 155 436 152 280 c 1,25,-1
 361 287 l 1,26,27
 361 366 361 366 340.5 401 c 128,-1,28
 320 436 320 436 265 436 c 0,23,24
116 550 m 1,29,-1
 116 594 l 1,30,-1
 394 594 l 1,31,-1
 394 550 l 1,32,-1
 116 550 l 1,29,-1
EndSplineSet
EndChar

StartChar: Ebreve
Encoding: 276 276 214
Width: 575
GlyphClass: 2
Flags: W
LayerCount: 2
Fore
SplineSet
490 515 m 1,0,1
 477 510 477 510 467 510 c 128,-1,2
 457 510 457 510 447 512 c 1,3,4
 434 578 434 578 405 614 c 1,5,-1
 217 614 l 1,6,-1
 217 364 l 1,7,-1
 330 369 l 2,8,9
 369 370 369 370 386 436 c 1,10,-1
 418 436 l 1,11,-1
 418 238 l 1,12,-1
 386 238 l 1,13,14
 381 262 381 262 376 274 c 128,-1,15
 371 286 371 286 358.5 298.5 c 128,-1,16
 346 311 346 311 329 312 c 2,17,-1
 217 318 l 1,18,-1
 217 58 l 1,19,-1
 430 58 l 1,20,21
 460 100 460 100 473 171 c 1,22,23
 485 173 485 173 491 173 c 128,-1,24
 497 173 497 173 513 171 c 1,25,-1
 504 0 l 1,26,-1
 31 0 l 1,27,-1
 37 37 l 1,28,29
 104 45 104 45 129 64 c 1,30,-1
 129 604 l 1,31,32
 91 624 91 624 31 631 c 1,33,34
 35 655 35 655 36 667 c 1,35,-1
 482 667 l 1,36,-1
 490 515 l 1,0,1
272 706 m 128,-1,38
 222 706 222 706 190 738.5 c 128,-1,39
 158 771 158 771 155 824 c 1,40,41
 176 831 176 831 194 831 c 1,42,43
 196 799 196 799 217.5 779.5 c 128,-1,44
 239 760 239 760 272.5 760 c 128,-1,45
 306 760 306 760 327.5 779.5 c 128,-1,46
 349 799 349 799 351 831 c 1,47,48
 372 831 372 831 389 825 c 1,49,50
 387 771 387 771 354.5 738.5 c 128,-1,37
 322 706 322 706 272 706 c 128,-1,38
EndSplineSet
EndChar

StartChar: ebreve
Encoding: 277 277 215
Width: 488
GlyphClass: 2
Flags: W
LayerCount: 2
Fore
SplineSet
152 243 m 1,0,-1
 152 238 l 2,1,2
 152 116 152 116 183 78 c 0,3,4
 212 42 212 42 275 42 c 0,5,6
 308 42 308 42 340 54 c 128,-1,7
 372 66 372 66 388 78 c 2,8,-1
 403 89 l 1,9,-1
 428 59 l 1,10,11
 421 52 421 52 408 41 c 128,-1,12
 395 30 395 30 354 11.5 c 128,-1,13
 313 -7 313 -7 271 -7 c 0,14,15
 157 -7 157 -7 108.5 54.5 c 128,-1,16
 60 116 60 116 60 232.5 c 128,-1,17
 60 349 60 349 113.5 412.5 c 128,-1,18
 167 476 167 476 267.5 476 c 128,-1,19
 368 476 368 476 408 424 c 128,-1,20
 448 372 448 372 451 270 c 1,21,-1
 430 243 l 1,22,-1
 152 243 l 1,0,-1
265 436 m 0,23,24
 155 436 155 436 152 280 c 1,25,-1
 361 287 l 1,26,27
 361 366 361 366 340.5 401 c 128,-1,28
 320 436 320 436 265 436 c 0,23,24
255 516 m 128,-1,30
 205 516 205 516 173 548.5 c 128,-1,31
 141 581 141 581 138 634 c 1,32,33
 159 641 159 641 177 641 c 1,34,35
 179 609 179 609 200.5 589.5 c 128,-1,36
 222 570 222 570 255.5 570 c 128,-1,37
 289 570 289 570 310.5 589.5 c 128,-1,38
 332 609 332 609 334 641 c 1,39,40
 356 641 356 641 372 635 c 1,41,42
 370 581 370 581 337.5 548.5 c 128,-1,29
 305 516 305 516 255 516 c 128,-1,30
EndSplineSet
EndChar

StartChar: Edotaccent
Encoding: 278 278 216
Width: 575
GlyphClass: 2
Flags: W
LayerCount: 2
Fore
SplineSet
490 515 m 1,0,1
 477 510 477 510 467 510 c 128,-1,2
 457 510 457 510 447 512 c 1,3,4
 434 578 434 578 405 614 c 1,5,-1
 217 614 l 1,6,-1
 217 364 l 1,7,-1
 330 369 l 2,8,9
 369 370 369 370 386 436 c 1,10,-1
 418 436 l 1,11,-1
 418 238 l 1,12,-1
 386 238 l 1,13,14
 381 262 381 262 376 274 c 128,-1,15
 371 286 371 286 358.5 298.5 c 128,-1,16
 346 311 346 311 329 312 c 2,17,-1
 217 318 l 1,18,-1
 217 58 l 1,19,-1
 430 58 l 1,20,21
 460 100 460 100 473 171 c 1,22,23
 485 173 485 173 491 173 c 128,-1,24
 497 173 497 173 513 171 c 1,25,-1
 504 0 l 1,26,-1
 31 0 l 1,27,-1
 37 37 l 1,28,29
 104 45 104 45 129 64 c 1,30,-1
 129 604 l 1,31,32
 91 624 91 624 31 631 c 1,33,34
 35 655 35 655 36 667 c 1,35,-1
 482 667 l 1,36,-1
 490 515 l 1,0,1
325 783 m 128,-1,38
 325 725 325 725 272.5 725 c 128,-1,39
 220 725 220 725 220 783 c 128,-1,40
 220 841 220 841 272.5 841 c 128,-1,37
 325 841 325 841 325 783 c 128,-1,38
EndSplineSet
EndChar

StartChar: edotaccent
Encoding: 279 279 217
Width: 488
GlyphClass: 2
Flags: W
LayerCount: 2
Fore
SplineSet
152 243 m 1,0,-1
 152 238 l 2,1,2
 152 116 152 116 183 78 c 0,3,4
 212 42 212 42 275 42 c 0,5,6
 308 42 308 42 340 54 c 128,-1,7
 372 66 372 66 388 78 c 2,8,-1
 403 89 l 1,9,-1
 428 59 l 1,10,11
 421 52 421 52 408 41 c 128,-1,12
 395 30 395 30 354 11.5 c 128,-1,13
 313 -7 313 -7 271 -7 c 0,14,15
 157 -7 157 -7 108.5 54.5 c 128,-1,16
 60 116 60 116 60 232.5 c 128,-1,17
 60 349 60 349 113.5 412.5 c 128,-1,18
 167 476 167 476 267.5 476 c 128,-1,19
 368 476 368 476 408 424 c 128,-1,20
 448 372 448 372 451 270 c 1,21,-1
 430 243 l 1,22,-1
 152 243 l 1,0,-1
265 436 m 0,23,24
 155 436 155 436 152 280 c 1,25,-1
 361 287 l 1,26,27
 361 366 361 366 340.5 401 c 128,-1,28
 320 436 320 436 265 436 c 0,23,24
308 598 m 128,-1,30
 308 540 308 540 255.5 540 c 128,-1,31
 203 540 203 540 203 598 c 128,-1,32
 203 656 203 656 255.5 656 c 128,-1,29
 308 656 308 656 308 598 c 128,-1,30
EndSplineSet
EndChar

StartChar: Eogonek
Encoding: 280 280 218
Width: 575
GlyphClass: 2
Flags: W
LayerCount: 2
Fore
SplineSet
420.5 -33 m 128,-1,1
 385 -66 385 -66 385 -112.5 c 128,-1,2
 385 -159 385 -159 427 -159 c 0,3,4
 449 -159 449 -159 476 -144 c 1,5,-1
 493 -165 l 1,6,7
 457 -204 457 -204 404 -204 c 0,8,9
 368 -204 368 -204 342.5 -184 c 128,-1,10
 317 -164 317 -164 317 -134 c 128,-1,11
 317 -104 317 -104 331.5 -80 c 128,-1,12
 346 -56 346 -56 369.5 -30 c 128,-1,13
 393 -4 393 -4 402 10 c 1,14,-1
 504 0 l 1,15,0
 456 0 456 0 420.5 -33 c 128,-1,1
490 515 m 1,16,17
 477 510 477 510 467 510 c 128,-1,18
 457 510 457 510 447 512 c 1,19,20
 434 578 434 578 405 614 c 1,21,-1
 217 614 l 1,22,-1
 217 364 l 1,23,-1
 330 369 l 2,24,25
 369 370 369 370 386 436 c 1,26,-1
 418 436 l 1,27,-1
 418 238 l 1,28,-1
 386 238 l 1,29,30
 381 262 381 262 376 274 c 128,-1,31
 371 286 371 286 358.5 298.5 c 128,-1,32
 346 311 346 311 329 312 c 2,33,-1
 217 318 l 1,34,-1
 217 58 l 1,35,-1
 430 58 l 1,36,37
 460 100 460 100 473 171 c 1,38,39
 485 173 485 173 491 173 c 128,-1,40
 497 173 497 173 513 171 c 1,41,-1
 504 0 l 1,42,-1
 31 0 l 1,43,-1
 37 37 l 1,44,45
 104 45 104 45 129 64 c 1,46,-1
 129 604 l 1,47,48
 91 624 91 624 31 631 c 1,49,50
 35 655 35 655 36 667 c 1,51,-1
 482 667 l 1,52,-1
 490 515 l 1,16,17
EndSplineSet
EndChar

StartChar: eogonek
Encoding: 281 281 219
Width: 488
GlyphClass: 2
Flags: W
LayerCount: 2
Fore
SplineSet
265 436 m 0,0,1
 155 436 155 436 152 280 c 1,2,-1
 361 287 l 1,3,4
 361 366 361 366 340.5 401 c 128,-1,5
 320 436 320 436 265 436 c 0,0,1
152 243 m 1,6,-1
 152 238 l 2,7,8
 152 116 152 116 183 78 c 0,9,10
 212 42 212 42 275 42 c 0,11,12
 308 42 308 42 340 54 c 128,-1,13
 372 66 372 66 388 78 c 2,14,-1
 403 89 l 1,15,-1
 428 59 l 1,16,17
 415 46 415 46 392 31 c 1,18,19
 352 7 352 7 323.5 -33 c 128,-1,20
 295 -73 295 -73 295 -111 c 0,21,22
 295 -159 295 -159 337 -159 c 0,23,24
 359 -159 359 -159 386 -144 c 1,25,-1
 403 -165 l 1,26,27
 367 -204 367 -204 314 -204 c 0,28,29
 278 -204 278 -204 252.5 -184 c 128,-1,30
 227 -164 227 -164 227 -135 c 128,-1,31
 227 -106 227 -106 237.5 -86 c 128,-1,32
 248 -66 248 -66 272.5 -38.5 c 128,-1,33
 297 -11 297 -11 302 -4 c 1,34,35
 287 -7 287 -7 271 -7 c 0,36,37
 157 -7 157 -7 108.5 54.5 c 128,-1,38
 60 116 60 116 60 232.5 c 128,-1,39
 60 349 60 349 113.5 412.5 c 128,-1,40
 167 476 167 476 267.5 476 c 128,-1,41
 368 476 368 476 408 424 c 128,-1,42
 448 372 448 372 451 270 c 1,43,-1
 430 243 l 1,44,-1
 152 243 l 1,6,-1
EndSplineSet
EndChar

StartChar: Ecaron
Encoding: 282 282 220
Width: 575
GlyphClass: 2
Flags: W
LayerCount: 2
Fore
SplineSet
490 515 m 1,0,1
 477 510 477 510 467 510 c 128,-1,2
 457 510 457 510 447 512 c 1,3,4
 434 578 434 578 405 614 c 1,5,-1
 217 614 l 1,6,-1
 217 364 l 1,7,-1
 330 369 l 2,8,9
 369 370 369 370 386 436 c 1,10,-1
 418 436 l 1,11,-1
 418 238 l 1,12,-1
 386 238 l 1,13,14
 381 262 381 262 376 274 c 128,-1,15
 371 286 371 286 358.5 298.5 c 128,-1,16
 346 311 346 311 329 312 c 2,17,-1
 217 318 l 1,18,-1
 217 58 l 1,19,-1
 430 58 l 1,20,21
 460 100 460 100 473 171 c 1,22,23
 485 173 485 173 491 173 c 128,-1,24
 497 173 497 173 513 171 c 1,25,-1
 504 0 l 1,26,-1
 31 0 l 1,27,-1
 37 37 l 1,28,29
 104 45 104 45 129 64 c 1,30,-1
 129 604 l 1,31,32
 91 624 91 624 31 631 c 1,33,34
 35 655 35 655 36 667 c 1,35,-1
 482 667 l 1,36,-1
 490 515 l 1,0,1
303 722 m 2,37,38
 290 706 290 706 272.5 706 c 128,-1,39
 255 706 255 706 241 722 c 2,40,-1
 149 828 l 1,41,-1
 171 853 l 1,42,-1
 272 776 l 1,43,-1
 374 853 l 1,44,-1
 396 828 l 1,45,-1
 303 722 l 2,37,38
EndSplineSet
EndChar

StartChar: ecaron
Encoding: 283 283 221
Width: 488
GlyphClass: 2
Flags: W
LayerCount: 2
Fore
SplineSet
152 243 m 1,0,-1
 152 238 l 2,1,2
 152 116 152 116 183 78 c 0,3,4
 212 42 212 42 275 42 c 0,5,6
 308 42 308 42 340 54 c 128,-1,7
 372 66 372 66 388 78 c 2,8,-1
 403 89 l 1,9,-1
 428 59 l 1,10,11
 421 52 421 52 408 41 c 128,-1,12
 395 30 395 30 354 11.5 c 128,-1,13
 313 -7 313 -7 271 -7 c 0,14,15
 157 -7 157 -7 108.5 54.5 c 128,-1,16
 60 116 60 116 60 232.5 c 128,-1,17
 60 349 60 349 113.5 412.5 c 128,-1,18
 167 476 167 476 267.5 476 c 128,-1,19
 368 476 368 476 408 424 c 128,-1,20
 448 372 448 372 451 270 c 1,21,-1
 430 243 l 1,22,-1
 152 243 l 1,0,-1
265 436 m 0,23,24
 155 436 155 436 152 280 c 1,25,-1
 361 287 l 1,26,27
 361 366 361 366 340.5 401 c 128,-1,28
 320 436 320 436 265 436 c 0,23,24
286 522 m 2,29,30
 273 506 273 506 255.5 506 c 128,-1,31
 238 506 238 506 224 522 c 2,32,-1
 132 628 l 1,33,-1
 154 653 l 1,34,-1
 255 576 l 1,35,-1
 357 653 l 1,36,-1
 379 628 l 1,37,-1
 286 522 l 2,29,30
EndSplineSet
EndChar

StartChar: Gcircumflex
Encoding: 284 284 222
Width: 611
GlyphClass: 2
Flags: W
LayerCount: 2
Fore
SplineSet
339 -7 m 0,0,1
 192 -7 192 -7 129.5 80.5 c 128,-1,2
 67 168 67 168 67 334 c 128,-1,3
 67 500 67 500 130.5 588 c 128,-1,4
 194 676 194 676 340 676 c 0,5,6
 455 676 455 676 516 620 c 0,7,8
 551 588 551 588 551 548.5 c 128,-1,9
 551 509 551 509 533.5 487 c 128,-1,10
 516 465 516 465 494 465 c 128,-1,11
 472 465 472 465 456 476 c 128,-1,12
 440 487 440 487 434 504 c 1,13,14
 453 532 453 532 453 559.5 c 128,-1,15
 453 587 453 587 421.5 604.5 c 128,-1,16
 390 622 390 622 338.5 622 c 128,-1,17
 287 622 287 622 251.5 599.5 c 128,-1,18
 216 577 216 577 198.5 534 c 128,-1,19
 181 491 181 491 174.5 444.5 c 128,-1,20
 168 398 168 398 168 334 c 128,-1,21
 168 270 168 270 174.5 223.5 c 128,-1,22
 181 177 181 177 198 134 c 0,23,24
 233 46 233 46 339 46 c 0,25,26
 410 46 410 46 462 83 c 1,27,-1
 462 258 l 1,28,29
 425 274 425 274 360 279 c 1,30,-1
 364 316 l 1,31,-1
 551 325 l 1,32,-1
 551 42 l 1,33,34
 462 -7 462 -7 339 -7 c 0,0,1
292 837 m 2,35,36
 306 853 306 853 323.5 853 c 128,-1,37
 341 853 341 853 354 837 c 2,38,-1
 446 730 l 1,39,-1
 423 706 l 1,40,-1
 322 783 l 1,41,-1
 221 706 l 1,42,-1
 199 730 l 1,43,-1
 292 837 l 2,35,36
EndSplineSet
EndChar

StartChar: gcircumflex
Encoding: 285 285 223
Width: 494
GlyphClass: 2
Flags: W
LayerCount: 2
Fore
SplineSet
241 475 m 0,0,1
 310 475 310 475 353 451 c 1,2,3
 389 462 389 462 389 487.5 c 128,-1,4
 389 513 389 513 361 526 c 1,5,6
 361 541 361 541 373.5 550.5 c 128,-1,7
 386 560 386 560 408 560 c 128,-1,8
 430 560 430 560 444 546 c 128,-1,9
 458 532 458 532 458 510 c 0,10,11
 458 447 458 447 388 423 c 1,12,13
 425 382 425 382 425 308 c 128,-1,14
 425 234 425 234 375.5 190.5 c 128,-1,15
 326 147 326 147 241 147 c 2,16,-1
 227 147 l 1,17,-1
 185 95 l 1,18,19
 187 80 187 80 200.5 74 c 128,-1,20
 214 68 214 68 249 67 c 1,21,-1
 291 67 l 2,22,23
 383 67 383 67 426.5 25.5 c 128,-1,24
 470 -16 470 -16 470 -80 c 0,25,26
 470 -219 470 -219 258 -219 c 0,27,28
 152 -219 152 -219 98.5 -185 c 128,-1,29
 45 -151 45 -151 45 -97 c 128,-1,30
 45 -43 45 -43 62 -19.5 c 128,-1,31
 79 4 79 4 122 28 c 1,32,33
 100 53 100 53 100 95 c 1,34,-1
 182 153 l 1,35,36
 123 167 123 167 90.5 207.5 c 128,-1,37
 58 248 58 248 58 308 c 0,38,39
 58 475 58 475 241 475 c 0,0,1
241 188 m 128,-1,41
 290 188 290 188 312 217 c 128,-1,42
 334 246 334 246 334 311 c 128,-1,43
 334 376 334 376 312 405.5 c 128,-1,44
 290 435 290 435 241 435 c 128,-1,45
 192 435 192 435 170 405.5 c 128,-1,46
 148 376 148 376 148 311 c 128,-1,47
 148 246 148 246 170 217 c 128,-1,40
 192 188 192 188 241 188 c 128,-1,41
267 -1 m 2,48,-1
 182 -1 l 1,49,50
 137 -30 137 -30 137 -80 c 0,51,52
 137 -178 137 -178 257.5 -178 c 128,-1,53
 378 -178 378 -178 378 -80 c 0,54,55
 378 -1 378 -1 267 -1 c 2,48,-1
227 637 m 2,56,57
 241 653 241 653 258.5 653 c 128,-1,58
 276 653 276 653 289 637 c 2,59,-1
 381 530 l 1,60,-1
 358 506 l 1,61,-1
 257 583 l 1,62,-1
 156 506 l 1,63,-1
 134 530 l 1,64,-1
 227 637 l 2,56,57
EndSplineSet
EndChar

StartChar: Gbreve
Encoding: 286 286 224
Width: 611
GlyphClass: 2
Flags: W
LayerCount: 2
Fore
SplineSet
339 -7 m 0,0,1
 192 -7 192 -7 129.5 80.5 c 128,-1,2
 67 168 67 168 67 334 c 128,-1,3
 67 500 67 500 130.5 588 c 128,-1,4
 194 676 194 676 340 676 c 0,5,6
 455 676 455 676 516 620 c 0,7,8
 551 588 551 588 551 548.5 c 128,-1,9
 551 509 551 509 533.5 487 c 128,-1,10
 516 465 516 465 494 465 c 128,-1,11
 472 465 472 465 456 476 c 128,-1,12
 440 487 440 487 434 504 c 1,13,14
 453 532 453 532 453 559.5 c 128,-1,15
 453 587 453 587 421.5 604.5 c 128,-1,16
 390 622 390 622 338.5 622 c 128,-1,17
 287 622 287 622 251.5 599.5 c 128,-1,18
 216 577 216 577 198.5 534 c 128,-1,19
 181 491 181 491 174.5 444.5 c 128,-1,20
 168 398 168 398 168 334 c 128,-1,21
 168 270 168 270 174.5 223.5 c 128,-1,22
 181 177 181 177 198 134 c 0,23,24
 233 46 233 46 339 46 c 0,25,26
 410 46 410 46 462 83 c 1,27,-1
 462 258 l 1,28,29
 425 274 425 274 360 279 c 1,30,-1
 364 316 l 1,31,-1
 551 325 l 1,32,-1
 551 42 l 1,33,34
 462 -7 462 -7 339 -7 c 0,0,1
322 706 m 128,-1,36
 272 706 272 706 240 738.5 c 128,-1,37
 208 771 208 771 205 824 c 1,38,39
 226 831 226 831 244 831 c 1,40,41
 246 799 246 799 267.5 779.5 c 128,-1,42
 289 760 289 760 322.5 760 c 128,-1,43
 356 760 356 760 377.5 779.5 c 128,-1,44
 399 799 399 799 401 831 c 1,45,46
 423 831 423 831 439 825 c 1,47,48
 437 771 437 771 404.5 738.5 c 128,-1,35
 372 706 372 706 322 706 c 128,-1,36
EndSplineSet
EndChar

